<svg xmlns="http://www.w3.org/2000/svg" xmlns:xlink="http://www.w3.org/1999/xlink" version="1.1" id="Layer_1" x="0px" y="0px" width="100px" height="100px" viewBox="0 0 100 100" enable-background="new 0 0 100 100" xml:space="preserve">
<g>
	<path fill="#FFFFFF" d="M24.458,55.755c0-0.678-0.549-1.228-1.228-1.228c-0.677,0-1.227,0.55-1.227,1.228v1.942   c0,0.678,0.55,1.227,1.227,1.227c0.678,0,1.228-0.549,1.228-1.227V55.755z"/>
	<path fill="#FFFFFF" d="M29.68,55.755c0-0.678-0.55-1.228-1.228-1.228s-1.227,0.55-1.227,1.228v1.942   c0,0.678,0.549,1.227,1.227,1.227s1.228-0.549,1.228-1.227V55.755z"/>
	<path fill="#FFFFFF" d="M34.899,55.755c0-0.678-0.549-1.228-1.227-1.228c-0.678,0-1.228,0.55-1.228,1.228v1.942   c0,0.678,0.549,1.227,1.228,1.227c0.677,0,1.227-0.549,1.227-1.227V55.755z"/>
	<path fill="#FFFFFF" d="M40.12,55.755c0-0.678-0.549-1.228-1.227-1.228s-1.227,0.55-1.227,1.228v1.942   c0,0.678,0.549,1.227,1.227,1.227s1.227-0.549,1.227-1.227V55.755z"/>
	<path fill="#FFFFFF" d="M45.341,55.755c0-0.678-0.549-1.228-1.228-1.228c-0.677,0-1.227,0.55-1.227,1.228v1.942   c0,0.678,0.55,1.227,1.227,1.227c0.678,0,1.228-0.549,1.228-1.227V55.755z"/>
	<path fill="#FFFFFF" d="M50.562,55.755c0-0.678-0.549-1.228-1.227-1.228s-1.227,0.55-1.227,1.228v1.942   c0,0.678,0.549,1.227,1.227,1.227s1.227-0.549,1.227-1.227V55.755z"/>
	<path fill="#FFFFFF" d="M45.717,16.467c0-0.678-0.549-1.228-1.227-1.228s-1.227,0.549-1.227,1.228v1.942   c0,0.677,0.549,1.227,1.227,1.227s1.227-0.55,1.227-1.227V16.467z"/>
	<path fill="#FFFFFF" d="M50.937,16.467c0-0.678-0.549-1.228-1.227-1.228s-1.227,0.549-1.227,1.228v1.942   c0,0.677,0.549,1.227,1.227,1.227s1.227-0.55,1.227-1.227V16.467z"/>
	<path fill="#FFFFFF" d="M56.158,16.467c0-0.678-0.549-1.228-1.227-1.228c-0.679,0-1.229,0.549-1.229,1.228v1.942   c0,0.677,0.55,1.227,1.229,1.227c0.678,0,1.227-0.55,1.227-1.227V16.467z"/>
	<path fill="#FFFFFF" d="M61.378,16.467c0-0.678-0.548-1.228-1.227-1.228c-0.678,0-1.228,0.549-1.228,1.228v1.942   c0,0.677,0.55,1.227,1.228,1.227c0.679,0,1.227-0.55,1.227-1.227V16.467z"/>
	<path fill="#FFFFFF" d="M66.601,16.467c0-0.678-0.549-1.228-1.228-1.228s-1.227,0.549-1.227,1.228v1.942   c0,0.677,0.548,1.227,1.227,1.227s1.228-0.55,1.228-1.227V16.467z"/>
	<path fill="#FFFFFF" d="M71.82,16.467c0-0.678-0.548-1.228-1.227-1.228s-1.227,0.549-1.227,1.228v1.942   c0,0.677,0.548,1.227,1.227,1.227s1.227-0.55,1.227-1.227V16.467z"/>
	<path fill="#FFFFFF" d="M24.458,64.181c0-0.679-0.549-1.228-1.228-1.228c-0.677,0-1.227,0.549-1.227,1.228v1.941   c0,0.678,0.55,1.227,1.227,1.227c0.678,0,1.228-0.549,1.228-1.227V64.181z"/>
	<path fill="#FFFFFF" d="M29.68,64.181c0-0.679-0.55-1.228-1.228-1.228s-1.227,0.549-1.227,1.228v1.941   c0,0.678,0.549,1.227,1.227,1.227s1.228-0.549,1.228-1.227V64.181z"/>
	<path fill="#FFFFFF" d="M34.899,64.181c0-0.679-0.549-1.228-1.227-1.228c-0.678,0-1.228,0.549-1.228,1.228v1.941   c0,0.678,0.549,1.227,1.228,1.227c0.677,0,1.227-0.549,1.227-1.227V64.181z"/>
	<path fill="#FFFFFF" d="M40.12,64.181c0-0.679-0.549-1.228-1.227-1.228s-1.227,0.549-1.227,1.228v1.941   c0,0.678,0.549,1.227,1.227,1.227s1.227-0.549,1.227-1.227V64.181z"/>
	<path fill="#FFFFFF" d="M45.341,64.181c0-0.679-0.549-1.228-1.228-1.228c-0.677,0-1.227,0.549-1.227,1.228v1.941   c0,0.678,0.55,1.227,1.227,1.227c0.678,0,1.228-0.549,1.228-1.227V64.181z"/>
	<path fill="#FFFFFF" d="M50.562,64.181c0-0.679-0.549-1.228-1.227-1.228s-1.227,0.549-1.227,1.228v1.941   c0,0.678,0.549,1.227,1.227,1.227s1.227-0.549,1.227-1.227V64.181z"/>
	<path fill="#FFFFFF" d="M45.717,24.894c0-0.677-0.549-1.227-1.227-1.227s-1.227,0.549-1.227,1.227v1.943   c0,0.678,0.549,1.228,1.227,1.228s1.227-0.55,1.227-1.228V24.894z"/>
	<path fill="#FFFFFF" d="M50.937,24.894c0-0.677-0.549-1.227-1.227-1.227s-1.227,0.549-1.227,1.227v1.943   c0,0.678,0.549,1.228,1.227,1.228s1.227-0.55,1.227-1.228V24.894z"/>
	<path fill="#FFFFFF" d="M56.158,24.894c0-0.677-0.549-1.227-1.227-1.227c-0.679,0-1.229,0.549-1.229,1.227v1.943   c0,0.678,0.55,1.228,1.229,1.228c0.678,0,1.227-0.55,1.227-1.228V24.894z"/>
	<path fill="#FFFFFF" d="M61.378,24.894c0-0.677-0.548-1.227-1.227-1.227c-0.678,0-1.228,0.549-1.228,1.227v1.943   c0,0.678,0.55,1.228,1.228,1.228c0.679,0,1.227-0.55,1.227-1.228V24.894z"/>
	<path fill="#FFFFFF" d="M66.601,24.894c0-0.677-0.549-1.227-1.228-1.227s-1.227,0.549-1.227,1.227v1.943   c0,0.678,0.548,1.228,1.227,1.228s1.228-0.55,1.228-1.228V24.894z"/>
	<path fill="#FFFFFF" d="M71.82,24.894c0-0.677-0.548-1.227-1.227-1.227s-1.227,0.549-1.227,1.227v1.943   c0,0.678,0.548,1.228,1.227,1.228s1.227-0.55,1.227-1.228V24.894z"/>
	<path fill="#FFFFFF" d="M23.231,71.381c-0.677,0-1.227,0.549-1.227,1.227v1.941c0,0.679,0.55,1.227,1.227,1.227   c0.678,0,1.228-0.548,1.228-1.227v-1.941C24.458,71.93,23.909,71.381,23.231,71.381z"/>
	<path fill="#FFFFFF" d="M28.452,71.381c-0.678,0-1.227,0.549-1.227,1.227v1.941c0,0.679,0.549,1.227,1.227,1.227   s1.228-0.548,1.228-1.227v-1.941C29.68,71.93,29.13,71.381,28.452,71.381z"/>
	<path fill="#FFFFFF" d="M33.673,71.381c-0.678,0-1.228,0.549-1.228,1.227v1.941c0,0.679,0.549,1.227,1.228,1.227   c0.677,0,1.227-0.548,1.227-1.227v-1.941C34.899,71.93,34.35,71.381,33.673,71.381z"/>
	<path fill="#FFFFFF" d="M38.893,71.381c-0.678,0-1.227,0.549-1.227,1.227v1.941c0,0.679,0.549,1.227,1.227,1.227   s1.227-0.548,1.227-1.227v-1.941C40.12,71.93,39.571,71.381,38.893,71.381z"/>
	<path fill="#FFFFFF" d="M44.114,71.381c-0.677,0-1.227,0.549-1.227,1.227v1.941c0,0.679,0.55,1.227,1.227,1.227   c0.678,0,1.228-0.548,1.228-1.227v-1.941C45.341,71.93,44.792,71.381,44.114,71.381z"/>
	<path fill="#FFFFFF" d="M49.334,71.381c-0.678,0-1.227,0.549-1.227,1.227v1.941c0,0.679,0.549,1.227,1.227,1.227   s1.227-0.548,1.227-1.227v-1.941C50.562,71.93,50.013,71.381,49.334,71.381z"/>
	<path fill="#FFFFFF" d="M44.49,32.093c-0.678,0-1.227,0.55-1.227,1.227v1.943c0,0.678,0.549,1.228,1.227,1.228   s1.227-0.55,1.227-1.228V33.32C45.717,32.643,45.167,32.093,44.49,32.093z"/>
	<path fill="#FFFFFF" d="M49.709,32.093c-0.678,0-1.227,0.55-1.227,1.227v1.943c0,0.678,0.549,1.228,1.227,1.228   s1.227-0.55,1.227-1.228V33.32C50.937,32.643,50.388,32.093,49.709,32.093z"/>
	<path fill="#FFFFFF" d="M54.932,32.093c-0.679,0-1.229,0.55-1.229,1.227v1.943c0,0.678,0.55,1.228,1.229,1.228   c0.678,0,1.227-0.55,1.227-1.228V33.32C56.158,32.643,55.609,32.093,54.932,32.093z"/>
	<path fill="#FFFFFF" d="M60.151,32.093c-0.678,0-1.228,0.55-1.228,1.227v1.943c0,0.678,0.55,1.228,1.228,1.228   c0.679,0,1.227-0.55,1.227-1.228V33.32C61.378,32.643,60.83,32.093,60.151,32.093z"/>
	<path fill="#FFFFFF" d="M65.373,32.093c-0.679,0-1.227,0.55-1.227,1.227v1.943c0,0.678,0.548,1.228,1.227,1.228   s1.228-0.55,1.228-1.228V33.32C66.601,32.643,66.052,32.093,65.373,32.093z"/>
	<path fill="#FFFFFF" d="M70.594,32.093c-0.679,0-1.227,0.55-1.227,1.227v1.943c0,0.678,0.548,1.228,1.227,1.228   s1.227-0.55,1.227-1.228V33.32C71.82,32.643,71.272,32.093,70.594,32.093z"/>
	<path fill="#FFFFFF" d="M37.51,47.831c0.678,0,1.228-0.549,1.228-1.227V12.671h37.895v46.881c0,0.679,0.548,1.229,1.228,1.229   c0.679,0,1.227-0.55,1.227-1.229V11.444c0-0.678-0.548-1.227-1.227-1.227H37.51c-0.677,0-1.227,0.549-1.227,1.227v35.16   C36.283,47.281,36.833,47.831,37.51,47.831z"/>
	<path fill="#FFFFFF" d="M83.749,62.254H65.752c-0.679,0-1.227,0.549-1.227,1.227c0,0.679,0.548,1.228,1.227,1.228h16.77v22.621   h-3.356v-5.997c0-0.679-0.548-1.228-1.228-1.228h-4.939c-0.679,0-1.228,0.549-1.228,1.228v5.997H57.875l0.031-36.597   c0-0.326-0.129-0.638-0.359-0.869c-0.23-0.23-0.541-0.359-0.867-0.359H16.252c-0.678,0-1.228,0.549-1.228,1.228v37.825   c0,0.678,0.549,1.227,1.228,1.227h36.561c0.679,0,1.227-0.549,1.227-1.227c0-0.679-0.548-1.228-1.227-1.228H17.479V51.958h37.972   l-0.032,36.599c0,0.325,0.129,0.638,0.359,0.867c0.23,0.23,0.542,0.359,0.867,0.359h16.353c0.679,0,1.227-0.549,1.227-1.227V82.56   h2.486v5.997c0,0.678,0.548,1.227,1.227,1.227h5.812c0.677,0,1.227-0.549,1.227-1.227V63.48   C84.976,62.803,84.426,62.254,83.749,62.254z"/>
</g>
</svg>