<?xml version="1.0" encoding="utf-8"?>
<!-- Generator: Adobe Illustrator 18.0.0, SVG Export Plug-In . SVG Version: 6.00 Build 0)  -->
<!DOCTYPE svg PUBLIC "-//W3C//DTD SVG 1.1//EN" "http://www.w3.org/Graphics/SVG/1.1/DTD/svg11.dtd">
<svg version="1.1" id="close" xmlns="http://www.w3.org/2000/svg" xmlns:xlink="http://www.w3.org/1999/xlink" x="0px" y="0px"
	 viewBox="21.3 4.4 60 60" enable-background="new 21.3 4.4 60 60" xml:space="preserve">
<g>
	<path fill="#FFFFFF" d="M51.2,34.8c-0.1,0-0.3,0-0.4-0.1l-7.4-7.4c-0.2-0.2-0.2-0.5,0-0.7c0.2-0.2,0.5-0.2,0.7,0l7.4,7.4
		c0.2,0.2,0.2,0.5,0,0.7C51.5,34.8,51.4,34.8,51.2,34.8z"/>
	<path fill="#FFFFFF" d="M51.2,34.9c-0.1,0-0.3,0-0.4-0.1c-0.2-0.2-0.2-0.5,0-0.7l7.4-7.4c0.2-0.2,0.5-0.2,0.7,0
		c0.2,0.2,0.2,0.5,0,0.7l-7.4,7.4C51.5,34.8,51.4,34.9,51.2,34.9z"/>
	<path fill="#FFFFFF" d="M58.6,42.3c-0.1,0-0.3,0-0.4-0.1l-7.4-7.4c-0.2-0.2-0.2-0.5,0-0.7c0.2-0.2,0.5-0.2,0.7,0l7.4,7.4
		c0.2,0.2,0.2,0.5,0,0.7C58.9,42.2,58.8,42.3,58.6,42.3z"/>
	<path fill="#FFFFFF" d="M43.9,42.3c-0.1,0-0.3,0-0.4-0.1c-0.2-0.2-0.2-0.5,0-0.7l7.4-7.4c0.2-0.2,0.5-0.2,0.7,0
		c0.2,0.2,0.2,0.5,0,0.7l-7.4,7.4C44.1,42.2,44,42.3,43.9,42.3z"/>
</g>
<path fill="#FFFFFF" d="M51.3,64.4c-16.5,0-30-13.5-30-30s13.5-30,30-30s30,13.5,30,30S67.8,64.4,51.3,64.4z M51.3,5.4
	c-16,0-29,13-29,29s13,29,29,29c16,0,29-13,29-29S67.3,5.4,51.3,5.4z"/>
</svg>
