<?xml version="1.0" encoding="utf-8"?>
<!-- Generator: Adobe Illustrator 18.0.0, SVG Export Plug-In . SVG Version: 6.00 Build 0)  -->
<!DOCTYPE svg PUBLIC "-//W3C//DTD SVG 1.1//EN" "http://www.w3.org/Graphics/SVG/1.1/DTD/svg11.dtd">
<svg version="1.1" id="Layer_1" xmlns="http://www.w3.org/2000/svg" xmlns:xlink="http://www.w3.org/1999/xlink" x="0px" y="0px"
	 viewBox="0 0 81.6 81.6" enable-background="new 0 0 81.6 81.6" xml:space="preserve">
<g>
	<g>
		<g>
			<path fill="#FFFFFF" d="M56,41.3c0.3,0,0.6-0.1,1.1-0.2c0,0-0.4-1-0.4-1c0-0.1,0-0.3-0.1-0.5c-0.1-0.4-0.4-0.8-0.3-1.3
				c0.2-2.1,0.1-2.1-0.2-3c-0.2-0.6-1.2-0.1-1.1-1.6c-0.6,0-1,0.9-1.7,0.8c-1-0.2-0.2-1.1,0.1-1.8c0.2-0.4,0.1-0.6,0.6-0.7
				c-0.6,0.1-0.9,0.1-1.4-0.1c-0.3-0.1-0.6-0.5-0.8-0.7c-0.4-0.4-0.5-0.3-1-0.4c-1.5-0.5-2.8-1.4-4.2-2c-0.7-0.3-1.5-0.2-2.3-0.3
				c-0.7-0.1-1.5-0.6-2.1,0.1c0.4,0.5,1,1,1.3,1.5c0.2,0.5,0.3,1.2,0.5,1.7c0.4,1.1,1.3,2,1.6,3.1c0.2,0.7,0,1,0.8,1.3
				c0.8,0.3,1.5,0.5,2.3,0.8c1.1,0.4,3,2.6,3.9,3.1c0.7,0.4,2.1,1.1,2.8,1.5C55.7,41.4,55.9,41.4,56,41.3z"/>
		</g>
		<g>
			<g>
				<path fill="#FFFFFF" d="M40.8,0C18.3,0,0,18.3,0,40.8c0,22.5,18.3,40.8,40.8,40.8c22.5,0,40.8-18.3,40.8-40.8
					C81.6,18.3,63.4,0,40.8,0z M63.2,69.7c-0.1,0.2-0.9,0.6-1.7,0.2c-0.7-0.3-1.9,0.1-2.6,0c-1.4-0.1-3.3-0.2-3.9-0.1
					c-1.8,0.1-2.4-0.4-4.2-0.4c-2,0-3.3,0.3-4.4,0.4c-0.3,0-2.1-0.3-2.1-0.3s-1.4-0.1-3.9,0c-0.8,0-2.6,0.3-3.3,0.3
					c-0.7,0-1.3,0.1-2,0.1c-1.1,0-2.4-0.3-3.9-0.5c-0.6-0.1-1.3,0.1-2.1,0c-1-0.1-1.4-0.2-1.7-0.5c-0.2-0.1-0.5-0.1-0.6-0.7
					c-0.3-1.8-1.6-2-1.6-3.8c0-0.7-0.6-2.7-0.7-3.4c-0.2-0.9-0.4-1.3-1-2.1c-0.5-0.6-0.9-1.1-1.4-1.7c-0.6-0.7-0.9-2.1-1.4-2.9
					c-0.4-0.7-0.3-1.7-0.8-2.4c-0.4-0.6-0.9-1-1.1-1.8c-0.4-1.7-0.7-3.6-0.7-5.4c0-0.7,0.2-1.9,0.4-2.6c0.2-0.5,0.3-0.4,0.5-0.8
					c0.4-0.6,0.4-1.4,0.4-2c0.1-1.8,0.6-3,0.5-4.7c0-0.3-0.4-1.5,0.1-3.1c0.3-0.9,0.8-1.2,1.3-2c0.6-1,1-2.4,1.2-2.8
					c0.7-1.5,1.4-3.5,2.6-4.6c0.6-0.6,1.3-1.1,1.6-2c0.3-0.8,0.3-1,1.1-1.5c0.3-0.2,0.8-0.2,1-0.6c0.2-0.4,0.4-0.9,0.7-1.2
					c0.5-0.6,1.3-0.6,2.1-0.7c1.5-0.2,3.2-0.8,4.3-1.9c0.7-0.6,1.4-1.5,2.1-2c0.6-0.5,1.4-0.4,2.1-0.6c1.6-0.4,3.3-0.7,4.8-1.5
					c1.4,0,2.4,0.4,3.7,0.7c1.4,0.4,1.9,1,3.1,1.9c1,0.8,1.8,1.7,2.5,2.8c0.2,0.4,0.7,0.9,0.9,1c0.5,0.3,0.9,0.4,0.9,1
					c0.1,1.2-1.5,1.6-1.7,2.7c-0.3,1.3,1.7,1.7,1.7,2.9c0,0.7-0.4,0.7,0,1.5c0.2,0.4,0.5,0.9,0.6,1.4c0.1,0.4-0.2,1.4,0.1,1.7
					c0.3,0.3,0.6,0.6,0.1,0.7c0,0.1,0,0.1,0,0.2c0.7,0.3-0.4,0.8-0.6,1.2c-0.3,0.5-0.2,1.4-0.8,1.7c0.5-0.1,1.1-0.1,1.6,0
					c0.5,0,1.4,0.6,1.4,0.6c0.4,0.2,0.8,0.3,1,0.8c0.1,0.2,0.2,0.7,0.5,1.5c0,0.2,0.3,1.3,0.5,1.9c0.1,0.5,0.2,0.7,0.1,1.2
					c0,0.3,0.4,0.9,0.5,1.2c0.7,1.4,1.2,3.3,1,4.9c-0.1,0.9,0.2,1.3-0.2,2.2c-0.4,0.9-0.1,1.5-0.9,2.2c-0.8,0.7-1.5,0.7-2.6,1.5
					c0,0-0.5,0.4-0.5,0.4s-0.2,0.1-0.4,0.5c-0.1,0.4,0.2,1.3,0.2,1.8c-0.2,1.3-0.5,2.4-0.4,3.7c0.1,1.5-0.5,2.9-0.8,4.4
					c-0.1,0.6-0.7,1.9-0.7,1.9s-0.1,0.5-0.1,1.1c-0.1,0.9-0.8,1.7,0.3,1.8c0,0,1,0.6,1.8,0.6c0.6-0.1,1.6,0.6,1.9,0.6
					c0.6,0,1.5-0.3,2.9,0.4c0.3,0.2,0.6,0.9,1,1.5C63.8,68.6,63.3,69.3,63.2,69.7z"/>
			</g>
		</g>
	</g>
</g>
</svg>
