<?xml version="1.0" encoding="utf-8"?>
<!-- Generator: Adobe Illustrator 18.0.0, SVG Export Plug-In . SVG Version: 6.00 Build 0)  -->
<!DOCTYPE svg PUBLIC "-//W3C//DTD SVG 1.1//EN" "http://www.w3.org/Graphics/SVG/1.1/DTD/svg11.dtd">
<svg version="1.1" id="Layer_1" xmlns="http://www.w3.org/2000/svg" xmlns:xlink="http://www.w3.org/1999/xlink" x="0px" y="0px"
	 viewBox="0 123.3 595.2 595.2" enable-background="new 0 123.3 595.2 595.2" xml:space="preserve">
<circle fill="#FFFFFF" cx="297.6" cy="420.9" r="297.6"/>
<g>
	<g>
		<g>
			<path fill="#FFC600" d="M408.5,424.6c2.2,0,4.4-0.7,8-1.5l-2.9-7.3c0-0.7,0-2.2-0.7-3.6c-0.7-2.9-2.9-5.8-2.2-9.5
				c1.5-15.3,0.7-15.3-1.5-21.9c-1.5-4.4-8.8-0.7-8-11.7c-4.4,0-7.3,6.6-12.4,5.8c-7.3-1.5-1.5-8,0.7-13.1c1.5-2.9,0.7-4.4,4.4-5.1
				c-4.4,0.7-6.6,0.7-10.2-0.7c-2.2-0.7-4.4-3.6-5.8-5.1c-2.9-2.9-3.6-2.2-7.3-2.9c-10.9-3.6-20.4-10.2-30.6-14.6
				c-5.1-2.2-10.9-1.5-16.8-2.2c-5.1-0.7-10.9-4.4-15.3,0.7c2.9,3.6,7.3,7.3,9.5,10.9c1.5,3.6,2.2,8.8,3.6,12.4
				c2.9,8,9.5,14.6,11.7,22.6c1.5,5.1,0,7.3,5.8,9.5c5.8,2.2,10.9,3.6,16.8,5.8c8,2.9,21.9,19,28.5,22.6c5.1,2.9,15.3,8,20.4,10.9
				C406.3,425.3,407.8,425.3,408.5,424.6z"/>
		</g>
		<g>
			<g>
				<path fill="#FFC600" d="M297.6,123.3C133.5,123.3,0,256.8,0,420.9s133.5,297.6,297.6,297.6S595.2,585,595.2,420.9
					S462.5,123.3,297.6,123.3z M461.1,631.8c-0.7,1.5-6.6,4.4-12.4,1.5c-5.1-2.2-13.9,0.7-19,0c-10.2-0.7-24.1-1.5-28.5-0.7
					c-13.1,0.7-17.5-2.9-30.6-2.9c-14.6,0-24.1,2.2-32.1,2.9c-2.2,0-15.3-2.2-15.3-2.2s-10.2-0.7-28.5,0c-5.8,0-19,2.2-24.1,2.2
					s-9.5,0.7-14.6,0.7c-8,0-17.5-2.2-28.5-3.6c-4.4-0.7-9.5,0.7-15.3,0c-7.3-0.7-10.2-1.5-12.4-3.6c-1.5-0.7-3.6-0.7-4.4-5.1
					c-2.2-13.1-11.7-14.6-11.7-27.7c0-5.1-4.4-19.7-5.1-24.8c-1.5-6.6-2.9-9.5-7.3-15.3c-3.6-4.4-6.6-8-10.2-12.4
					c-4.4-5.1-6.6-15.3-10.2-21.2c-2.9-5.1-2.2-12.4-5.8-17.5c-2.9-4.4-6.6-7.3-8-13.1c-2.9-12.4-5.1-26.3-5.1-39.4
					c0-5.1,1.5-13.9,2.9-19c1.5-3.6,2.2-2.9,3.6-5.8c2.9-4.4,2.9-10.2,2.9-14.6c0.7-13.1,4.4-21.9,3.6-34.3c0-2.2-2.9-10.9,0.7-22.6
					c2.2-6.6,5.8-8.8,9.5-14.6c4.4-7.3,7.3-17.5,8.8-20.4c5.1-10.9,10.2-25.5,19-33.6c4.4-4.4,9.5-8,11.7-14.6
					c2.2-5.8,2.2-7.3,8-10.9c2.2-1.5,5.8-1.5,7.3-4.4c1.5-2.9,2.9-6.6,5.1-8.8c3.6-4.4,9.5-4.4,15.3-5.1
					c10.9-1.5,23.3-5.8,31.4-13.9c5.1-4.4,10.2-10.9,15.3-14.6c4.4-3.6,10.2-2.9,15.3-4.4c11.7-2.9,24.1-5.1,35-10.9
					c10.2,0,17.5,2.9,27,5.1c10.2,2.9,13.9,7.3,22.6,13.9c7.3,5.8,13.1,12.4,18.2,20.4c1.5,2.9,5.1,6.6,6.6,7.3
					c3.6,2.2,6.6,2.9,6.6,7.3c0.7,8.8-10.9,11.7-12.4,19.7c-2.2,9.5,12.4,12.4,12.4,21.2c0,5.1-2.9,5.1,0,10.9
					c1.5,2.9,3.6,6.6,4.4,10.2c0.7,2.9-1.5,10.2,0.7,12.4c2.2,2.2,4.4,4.4,0.7,5.1c0,0.7,0,0.7,0,1.5c5.1,2.2-2.9,5.8-4.4,8.8
					c-2.2,3.6-1.5,10.2-5.8,12.4c3.6-0.7,8-0.7,11.7,0c3.6,0,10.2,4.4,10.2,4.4c2.9,1.5,5.8,2.2,7.3,5.8c0.7,1.5,1.5,5.1,3.6,10.9
					c0,1.5,2.2,9.5,3.6,13.9c0.7,3.6,1.5,5.1,0.7,8.8c0,2.2,2.9,6.6,3.6,8.8c5.1,10.2,8.8,24.1,7.3,35.7c-0.7,6.6,1.5,9.5-1.5,16
					c-2.9,6.6-0.7,10.9-6.6,16c-5.8,5.1-10.9,5.1-19,10.9l-3.6,2.9c0,0-1.5,0.7-2.9,3.6c-0.7,2.9,1.5,9.5,1.5,13.1
					c-1.5,9.5-3.6,17.5-2.9,27c0.7,10.9-3.6,21.2-5.8,32.1c-0.7,4.4-5.1,13.9-5.1,13.9s-0.7,3.6-0.7,8c-0.7,6.6-5.8,12.4,2.2,13.1
					c0,0,7.3,4.4,13.1,4.4c4.4-0.7,11.7,4.4,13.9,4.4c4.4,0,10.9-2.2,21.2,2.9c2.2,1.5,4.4,6.6,7.3,10.9
					C465.4,623.7,461.8,628.9,461.1,631.8z"/>
			</g>
		</g>
	</g>
</g>
</svg>
