<?xml version="1.0" encoding="utf-8"?>
<!-- Generator: Adobe Illustrator 18.0.0, SVG Export Plug-In . SVG Version: 6.00 Build 0)  -->
<!DOCTYPE svg PUBLIC "-//W3C//DTD SVG 1.1//EN" "http://www.w3.org/Graphics/SVG/1.1/DTD/svg11.dtd">
<svg version="1.1" id="Layer_1" xmlns="http://www.w3.org/2000/svg" xmlns:xlink="http://www.w3.org/1999/xlink" x="0px" y="0px"
	 viewBox="0 0 24 24" enable-background="new 0 0 24 24" xml:space="preserve">
<g>
	<path fill="#FFFFFF" d="M19,5.5H5c-1.1,0-2,0.9-2,2v9c0,1.1,0.9,2,2,2h14c1.1,0,2-0.9,2-2v-9C21,6.4,20.1,5.5,19,5.5z M9.3,12.8
		l1.6,1.4c0.3,0.3,0.7,0.4,1.1,0.4s0.8-0.1,1.1-0.4l1.6-1.4l0,0l3.6,3.6H5.7L9.3,12.8C9.4,12.9,9.3,12.8,9.3,12.8z M5,15.8V9
		l3.6,3.2L5,15.8z M15.4,12.2L19,9v6.8L15.4,12.2z M19,7.5v0.2l-6.6,5.8c-0.2,0.2-0.6,0.2-0.8,0L5,7.7V7.5H19z"/>
</g>
</svg>
