<?xml version="1.0" encoding="utf-8"?>
<!-- Generator: Adobe Illustrator 18.0.0, SVG Export Plug-In . SVG Version: 6.00 Build 0)  -->
<!DOCTYPE svg PUBLIC "-//W3C//DTD SVG 1.1//EN" "http://www.w3.org/Graphics/SVG/1.1/DTD/svg11.dtd">
<svg version="1.1" id="Layer_1" xmlns="http://www.w3.org/2000/svg" xmlns:xlink="http://www.w3.org/1999/xlink" x="0px" y="0px"
	 viewBox="0 0 100 100" enable-background="new 0 0 100 100" xml:space="preserve">
<path fill="#FFFFFF" d="M71.2,77.8H29.1c-0.6,0-1-0.4-1-1V49.1c-1.4-0.2-2.7-0.8-3.7-1.8c-1.2-1.2-1.8-2.7-1.8-4.4
	c0-0.1,0-0.1,0-0.2c0-0.1,0-0.1,0.1-0.2L28,28.8v-5.3c0-0.6,0.4-1,1-1h42.4c0.6,0,1,0.4,1,1v5.3l5.1,13.7c0,0.1,0,0.1,0.1,0.2
	c0,0.1,0,0.1,0,0.2c0,1.7-0.7,3.2-1.8,4.4c-0.9,0.9-2.1,1.6-3.4,1.8v27.8C72.2,77.4,71.8,77.8,71.2,77.8z M66.3,75.8h3.9V49
	c-1.3-0.2-2.5-0.8-3.4-1.8c-0.3-0.3-0.6-0.7-0.9-1.1c-0.2,0.4-0.5,0.7-0.9,1.1c-1.2,1.2-2.8,1.8-4.4,1.8s-3.2-0.7-4.4-1.8
	c-0.3-0.3-0.6-0.7-0.9-1.1c-0.2,0.4-0.5,0.7-0.9,1.1c-1.2,1.2-2.8,1.8-4.4,1.8s-3.2-0.7-4.4-1.8c-0.3-0.3-0.6-0.7-0.9-1.1
	c-0.2,0.4-0.5,0.7-0.9,1.1c-1.2,1.2-2.8,1.8-4.4,1.8c-1.7,0-3.2-0.7-4.4-1.8c-0.3-0.3-0.6-0.7-0.9-1.1c-0.2,0.4-0.5,0.7-0.9,1.1
	c-0.9,0.9-2,1.5-3.2,1.7v26.8H54V53.7c0-0.6,0.4-1,1-1h10.4c0.6,0,1,0.4,1,1L66.3,75.8L66.3,75.8z M56,75.8h8.4V54.7H56
	C56,54.7,56,75.8,56,75.8z M56.3,42.4c0.1,0.1,0.1,0.3,0.1,0.4c0,1.1,0.4,2.2,1.3,3c0.8,0.8,1.9,1.2,3,1.2c1.1,0,2.2-0.4,3-1.3
	c0.8-0.8,1.3-1.9,1.3-3c0-0.1,0-0.1,0-0.2L62.2,30h-6.6L56.3,42.4z M45.7,42.6c0,0.1,0,0.2,0,0.2c0,1.1,0.4,2.2,1.3,3s1.9,1.2,3,1.2
	c1.1,0,2.2-0.4,3-1.2c0.8-0.8,1.2-1.9,1.3-3L53.7,30h-6.6L45.7,42.6z M35.2,42.8C35.2,42.8,35.2,42.8,35.2,42.8
	c0,1.2,0.4,2.3,1.3,3.1c0.8,0.8,1.9,1.2,3,1.2s2.2-0.4,3-1.2c0.8-0.8,1.2-1.9,1.3-3c0,0,0,0,0-0.1c0,0,0,0,0-0.1L45.1,30h-6.5
	L35.2,42.8z M24.6,43c0,1.1,0.5,2.1,1.2,2.8c0.8,0.8,1.9,1.3,3.1,1.2c0.1,0,0.1,0,0.2,0c1-0.1,2-0.5,2.7-1.2c0.8-0.8,1.2-1.9,1.2-3
	c0,0,0-0.1,0-0.1c0-0.1,0-0.1,0-0.1L36.5,30h-6.8L24.6,43z M71.2,47.1C71.3,47.1,71.3,47.1,71.2,47.1c1.2,0,2.2-0.5,3-1.2
	c0.8-0.8,1.2-1.8,1.2-2.8l-4.8-13h-6.4L67,42.6c0,0.1,0,0.2,0,0.3c0,1.1,0.5,2.1,1.3,2.9C69,46.6,70,47.1,71.2,47.1
	C71.2,47.1,71.2,47.1,71.2,47.1z M63.1,28h7.3v-3.5H30V28h7.8c0,0,0,0,0,0h8.4c0,0,0,0,0,0h8.4c0,0,0,0,0,0L63.1,28
	C63,28,63.1,28,63.1,28z M49.9,66.2H34.1c-0.6,0-1-0.4-1-1V53.9c0-0.6,0.4-1,1-1h15.8c0.6,0,1,0.4,1,1v11.3
	C50.9,65.7,50.4,66.2,49.9,66.2z M35.1,64.2h13.8v-9.3H35.1V64.2z"/>
</svg>
