<?xml version="1.0" standalone="no"?>
<!DOCTYPE svg PUBLIC "-//W3C//DTD SVG 1.1//EN" "http://www.w3.org/Graphics/SVG/1.1/DTD/svg11.dtd" >
<svg>
<metadata>
Created by FontForge 20090914 at Thu Dec 11 15:08:42 2014
 By www-data
Copyright (C) 2004, 2009 Hoefler &#38; Frere-Jones. http://www.typography.com
</metadata>
<defs>
<font id="TungstenSemibold" horiz-adv-x="500" >
  <font-face 
    font-family="TungstenSemibold"
    font-weight="375"
    font-stretch="normal"
    units-per-em="1000"
    panose-1="0 0 0 0 0 0 0 0 0 0"
    ascent="800"
    descent="-200"
    x-height="549"
    cap-height="700"
    bbox="-25 -221 644 874"
    underline-thickness="50"
    underline-position="-50"
    unicode-range="U+0020-U+FB04"
  />
<missing-glyph 
d="M0 -200v1000h500v-1000h-500zM71 750l179 -390l179 390h-358zM50 -76l172 376l-172 376v-752zM450 676l-172 -376l172 -376v752zM250 240l-179 -390h358z" />
    <glyph glyph-name="f_f" unicode="ff" horiz-adv-x="413" 
d="M47 549v52c0 72.667 36.333 109 109 109h56v-87h-36c-18.667 0 -28 -9.33301 -28 -28v-46h56v-88h-56v-461h-101v461h-31v88h31zM245 549v52c0 72.667 36.333 109 109 109h56v-87h-36c-18.667 0 -28 -9.33301 -28 -28v-46h61v-88h-61v-461h-101v461h-32v88h32z" />
    <glyph glyph-name="fi" unicode="fi" horiz-adv-x="379" 
d="M243 595v98h105v-98h-105zM245 0v549h101v-549h-101zM47 549v52c0 72.667 36.333 109 109 109h56v-87h-36c-18.667 0 -28 -9.33301 -28 -28v-46h61v-88h-61v-461h-101v461h-31v88h31z" />
    <glyph glyph-name="fl" unicode="fl" horiz-adv-x="379" 
d="M245 0v710h101v-710h-101zM47 549v52c0 72.667 36.333 109 109 109h56v-87h-36c-18.667 0 -28 -9.33301 -28 -28v-46h61v-88h-61v-461h-101v461h-31v88h31z" />
    <glyph glyph-name="f_f_i" unicode="ffi" horiz-adv-x="577" 
d="M442 595v98h105v-98h-105zM444 0v549h101v-549h-101zM47 549v52c0 72.667 36.333 109 109 109h56v-87h-36c-18.667 0 -28 -9.33301 -28 -28v-46h56v-88h-56v-461h-101v461h-31v88h31zM245 549v52c0 72.667 36.333 109 109 109h56v-87h-36c-18.667 0 -28 -9.33301 -28 -28
v-46h61v-88h-61v-461h-101v461h-32v88h32z" />
    <glyph glyph-name="f_f_l" unicode="ffl" horiz-adv-x="577" 
d="M47 549v52c0 72.667 36.333 109 109 109h56v-87h-36c-18.667 0 -28 -9.33301 -28 -28v-46h56v-88h-56v-461h-101v461h-31v88h31zM245 549v52c0 72.667 36.333 109 109 109h56v-87h-36c-18.667 0 -28 -9.33301 -28 -28v-46h61v-88h-61v-461h-101v461h-32v88h32zM444 0v710
h101v-710h-101z" />
    <glyph glyph-name=".notdef" 
d="M0 -200v1000h500v-1000h-500zM71 750l179 -390l179 390h-358zM50 -76l172 376l-172 376v-752zM450 676l-172 -376l172 -376v752zM250 240l-179 -390h358z" />
    <glyph glyph-name="space" unicode=" " horiz-adv-x="127" 
 />
    <glyph glyph-name="exclam" unicode="!" horiz-adv-x="170" 
d="M136 539l-27 -341h-48l-28 341v161h103v-161zM135 133v-133h-100v133h100z" />
    <glyph glyph-name="quotedbl" unicode="&#x22;" horiz-adv-x="261" 
d="M125 700l-41 -268h-66l15 268h92zM250 700l-41 -268h-67l16 268h92z" />
    <glyph glyph-name="numbersign" unicode="#" horiz-adv-x="351" 
d="M288 702v-117l48 13v-111l-48 -13v-182l48 13v-111l-48 -13v-183h-80v162l-65 -17v-145h-80v124l-48 -12v111l48 12v182l-48 -12v111l48 12v176h80v-155l65 17v138h80zM143 436v-182l65 17v182z" />
    <glyph glyph-name="dollar" unicode="$" horiz-adv-x="358" 
d="M215 763v-60.999c75.333 -4.66699 113 -47 113 -127v-125h-103v120c0 27.333 -13 41 -39 41h-13c-26 0 -39 -13.667 -39 -41v-77c0 -23.333 10.333 -42.333 31 -57l103 -75c23.333 -16.667 39.5 -33.834 48.5 -51.501s13.5 -40.5 13.5 -68.5v-115
c0 -81.333 -38.333 -124 -115 -128v-65h-71v65c-76 4 -114 46.333 -114 127v146h102v-141c0 -27.333 13.333 -41 40 -41h15c26 0 39 13.667 39 41v96c0 22.667 -10 41.667 -30 57l-105 76c-23.333 16.667 -39.333 34 -48 52s-13 40.667 -13 68v95
c0 80 37.667 122.667 113 128v61h72z" />
    <glyph glyph-name="percent" unicode="%" horiz-adv-x="453" 
d="M149 280h-40c-56.667 0 -85 29 -85 87v251c0 58.667 28.333 88 85 88h44c56.667 0 85 -29.333 85 -88v-153l70 237h71l-94 -284c8 1.33301 14.333 2 19 2h40c57.333 0 86 -29 86 -87v-251c0 -58.667 -28.667 -88 -86 -88h-43c-57.333 0 -86 29.333 -86 88v152l-70 -236
h-70l93 283c-4 -0.666992 -10.333 -1 -19 -1zM140 632h-16c-17.333 0 -26 -9.66699 -26 -29v-223c0 -19.333 8.66699 -29 26 -29h16c16.667 0 25 9.66699 25 29v223c0 19.333 -8.33301 29 -25 29zM329 349h-16c-16.667 0 -25 -9.66699 -25 -29v-223
c0 -19.333 8.66699 -29 26 -29h15c17.333 0 26 9.66699 26 29v223c0 19.333 -8.66699 29 -26 29z" />
    <glyph glyph-name="ampersand" unicode="&#x26;" horiz-adv-x="435" 
d="M334 0l-40 73c-12.667 -28.667 -27.667 -49 -45 -61s-43.333 -18 -78 -18h-30c-81.333 0 -122 40.667 -122 122v141c0 52 15.667 91.333 47 118l39 34l-23 42c-16 30 -24 64.333 -24 103v26c0 84 41.667 126 125 126h37c83.333 0 125 -41.333 125 -124v-99h-101v92
c0 24.667 -12.333 37 -37 37h-9c-25.333 0 -38 -12.333 -38 -37v-24c0 -24 5.66699 -46.667 17 -68l106 -197l40 129h102l-78 -234l99 -181h-112zM178 86c11.333 0 19.833 3 25.5 9s11.167 16.333 16.5 31l15 42l-82 152l-4 -3c-18.667 -16 -28 -37 -28 -63v-131
c0 -24.667 12 -37 36 -37h21z" />
    <glyph glyph-name="quotesingle" unicode="'" horiz-adv-x="139" 
d="M128 700l-41 -268h-69l15 268h95z" />
    <glyph glyph-name="parenleft" unicode="(" horiz-adv-x="206" 
d="M199 -19l-55 -23c-46 46 -76.333 89.333 -91 130s-22 103 -22 187v150c0 84 7.33301 146.333 22 187s45 84 91 130l55 -23c-36 -50 -59.5 -92.5 -70.5 -127.5s-16.5 -90.167 -16.5 -165.5v-152c0 -75.333 5.5 -130.5 16.5 -165.5s34.5 -77.5 70.5 -127.5z" />
    <glyph glyph-name="parenright" unicode=")" horiz-adv-x="206" 
d="M7 719l55 23c46 -46 76.333 -89.333 91 -130s22 -103 22 -187v-150c0 -84 -7.33301 -146.333 -22 -187s-45 -84 -91 -130l-55 23c36 50 59.5 92.5 70.5 127.5s16.5 90.167 16.5 165.5v152c0 75.333 -5.5 130.5 -16.5 165.5s-34.5 77.5 -70.5 127.5z" />
    <glyph glyph-name="asterisk" unicode="*" horiz-adv-x="267" 
d="M162 702l-3 -95l91 52h3v-63l-73 -37l73 -37v-63h-3l-90 52l2 -95h-57l2 95l-90 -52h-3v63l72 37l-72 37v63h3l90 -52l-2 95h57z" />
    <glyph glyph-name="plus" unicode="+" horiz-adv-x="313" 
d="M116 208v109h-106v77h106v109h82v-109h106v-77h-106v-109h-82z" />
    <glyph glyph-name="comma" unicode="," horiz-adv-x="151" 
d="M126 133v-82c0 -27.333 -2.16699 -48 -6.5 -62s-14.833 -32.667 -31.5 -56l-23 -34l-41 12l13 27c12 28 19.667 48.667 23 62h-35v133h101z" />
    <glyph glyph-name="hyphen" unicode="-" horiz-adv-x="213" 
d="M13 331h187v-93h-187v93z" />
    <glyph glyph-name="period" unicode="." horiz-adv-x="151" 
d="M126 133v-133h-101v133h101z" />
    <glyph glyph-name="slash" unicode="/" horiz-adv-x="213" 
d="M211 732l-130 -764h-78l130 764h78z" />
    <glyph glyph-name="zero" unicode="0" horiz-adv-x="373" 
d="M343 124c0 -86.667 -43.333 -130 -130 -130h-53c-86.667 0 -130 43.333 -130 130v452c0 86.667 43.333 130 130 130h53c86.667 0 130 -43.333 130 -130v-452zM237 571c0 27.333 -13.333 41 -40 41h-20c-27.333 0 -41 -13.667 -41 -41v-442c0 -27.333 13.667 -41 41 -41
h20c26.667 0 40 13.667 40 41v442z" />
    <glyph glyph-name="one" unicode="1" horiz-adv-x="215" 
d="M176 703l-0.000976562 -703h-103v559h-66v78c21.333 2 38.333 6.66699 51 14s25.334 19.333 38.001 36l12 16h68z" />
    <glyph glyph-name="two" unicode="2" horiz-adv-x="350" 
d="M79 265l113.001 142.002c18.667 23.333 28 45.666 28 66.999v97c0 27.333 -13 41 -39 41h-13c-26.667 0 -40 -13.667 -40 -41v-124h-102v129c0 86.667 43 130 129 130h42c86 0 129 -43.333 129 -130v-97c0 -25.333 -3.83301 -48.333 -11.5 -69
s-21.834 -43.667 -42.501 -69l-113 -142c-19.333 -24.667 -29 -50.334 -29 -77.001v-25h196v-97h-302v126c0 26 4 49.167 12 69.5s22.333 43.5 43 69.5z" />
    <glyph glyph-name="three" unicode="3" horiz-adv-x="359" 
d="M224 129v138.001c0 27.333 -13 41 -39 41h-93v96h91c26 0 39 13.333 39 40v127c0 27.333 -13 41 -39 41h-16c-26.667 0 -40 -13.667 -40 -41v-92h-102v97c0 86.667 43.333 130 130 130h43c86.667 0 130 -43.333 130 -130v-110c0 -54.667 -19.333 -89.334 -58 -104.001
c40 -11.333 60 -41.333 60 -90v-148c0 -86.667 -43.333 -130 -130 -130h-48c-86 0 -129 43 -129 129v111h102v-105c0 -27.333 13.667 -41 41 -41h17c27.333 0 41 13.667 41 41z" />
    <glyph glyph-name="four" unicode="4" horiz-adv-x="350" 
d="M14 120v103l140 477h140v-487h50v-93h-50v-120h-96v120h-184zM100 213h98v339z" />
    <glyph glyph-name="five" unicode="5" horiz-adv-x="358" 
d="M332 337l-0.000976562 -213.001c0 -86.667 -43 -130 -129 -130h-45c-85.333 0 -128 43 -128 129v124h103v-118c0 -27.333 13.333 -41 40 -41h13c26.667 0 40 13.667 40 41v180c0 29.333 -12.333 44 -37 44c-20 0 -40.333 -11.667 -61 -35h-94v382h288v-97h-189l-2 -188
c28.667 24 59.667 36 93 36c32.667 0 58.834 -10.167 78.501 -30.5s29.5 -48.166 29.5 -83.499z" />
    <glyph glyph-name="six" unicode="6" horiz-adv-x="365" 
d="M136 571v-169c26 14 53.667 21 83 21h5c35.333 0 63 -10.667 83 -32s30 -49.333 30 -84v-183c0 -86.667 -43.333 -130 -130 -130h-47c-86.667 0 -130 43.333 -130 130v452c0 86.667 43.333 130 130 130h46c85.333 0 128 -42.667 128 -128v-96h-103v89
c0 27.333 -13 41 -39 41h-17c-26 0 -39 -13.667 -39 -41zM136 317v-188c0 -27.333 13 -41 39 -41h18c26 0 39 13.667 39 41v157c0 28 -13.667 42 -41 42c-20.667 0 -39 -3.66699 -55 -11z" />
    <glyph glyph-name="seven" unicode="7" horiz-adv-x="295" 
d="M176 603h-165v97h267v-105l-131 -595h-104z" />
    <glyph glyph-name="eight" unicode="8" horiz-adv-x="363" 
d="M160 706h43c86.667 0 130 -43.333 130 -130v-108c0 -54.667 -19.333 -89.334 -58 -104.001c40 -11.333 60 -41.333 60 -90v-150c0 -86.667 -43.333 -130 -130 -130h-47c-86.667 0 -130 43.333 -130 130v150c0 48.667 20 78.667 60 90
c-38.667 14.667 -58 49.334 -58 104.001v108c0 86.667 43.333 130 130 130zM132 272v-145c0 -26.667 13.667 -40 41 -40h18c26.667 0 40 13.333 40 40v145c0 26.667 -13.333 40 -40 40h-18c-27.333 0 -41 -13.333 -41 -40zM174 403h16c26.667 0 40 13.667 40 41v129
c0 26.667 -13.333 40 -40 40h-16c-27.333 0 -41 -13.333 -41 -40v-129c0 -27.333 13.667 -41 41 -41z" />
    <glyph glyph-name="nine" unicode="9" horiz-adv-x="364" 
d="M189 88c26 0 39 13.667 39 41v160c-26.667 -13.333 -54 -20 -82 -20h-4c-35.333 0 -63 10.667 -83 32s-30 49.333 -30 84v191c0 86.667 43.333 130 130 130h45c86.667 0 130 -43.333 130 -130v-452c0 -86.667 -43.333 -130 -130 -130h-45c-44 0 -76.5 10.333 -97.5 31
s-31.5 53 -31.5 97v88h103v-81c0 -27.333 13 -41 39 -41h17zM228 375v196c0 27.333 -13 41 -39 41h-16c-26 0 -39 -13.667 -39 -41v-165c0 -28 13.333 -42 40 -42c21.333 0 39.333 3.66699 54 11z" />
    <glyph glyph-name="colon" unicode=":" horiz-adv-x="151" 
d="M126 133v-133h-101v133h101zM126 548v-133h-101v133h101z" />
    <glyph glyph-name="semicolon" unicode=";" horiz-adv-x="151" 
d="M126 133v-82c0 -27.333 -2.16699 -48 -6.5 -62s-14.833 -32.667 -31.5 -56l-23 -34l-41 12l13 27c12 28 19.667 48.667 23 62h-35v133h101zM126 548v-133h-101v133h101z" />
    <glyph glyph-name="less" unicode="&#x3c;" horiz-adv-x="314" 
d="M15 409l276 95v-85l-206 -62l206 -60v-88l-276 94v106z" />
    <glyph glyph-name="equal" unicode="=" horiz-adv-x="314" 
d="M15 467h284v-78h-284v78zM15 322h284v-78h-284v78z" />
    <glyph glyph-name="greater" unicode="&#x3e;" horiz-adv-x="314" 
d="M299 305l-276 -95v85l206 62l-206 60v88l276 -94v-106z" />
    <glyph glyph-name="question" unicode="?" horiz-adv-x="329" 
d="M161 399l21 24c16 18 24 36 24 54v94c0 27.333 -13 41 -39 41h-13c-26.667 0 -40 -13.667 -40 -41v-120h-97v125c0 86.667 43.333 130 130 130h35c86.667 0 130 -43.333 130 -130v-95c0 -24 -3.83301 -44 -11.5 -60s-22.5 -36.333 -44.5 -61l-41 -47
c-12 -14 -18 -34 -18 -60v-63h-82v101c0 25.333 2.83301 44.5 8.5 57.5s18.167 29.833 37.5 50.5zM206 133v-133h-100v133h100z" />
    <glyph glyph-name="at" unicode="@" horiz-adv-x="498" 
d="M390 30l-33.9971 -0.000976562c-34.667 0 -57.334 13.333 -68.001 40c-24.667 -27.333 -52 -41 -82 -41c-23.333 0 -41.333 7 -54 21s-19 33.333 -19 58v109c0 26.667 4.66699 46.834 14 60.501s25.666 24.5 48.999 32.5l84 28v81c0 19.333 -9.33301 29 -28 29h-5
c-19.333 0 -29 -9.66699 -29 -29v-60h-80v70c0 62.667 32.333 94 97 94h30c64 0 96 -31.333 96 -94v-340c0 -16.667 8 -25 24 -25h6c24.667 0 37 16.667 37 50v348c0 48 -9.16699 81.667 -27.5 101s-49.166 29 -92.499 29h-118c-43.333 0 -74.166 -9.66699 -92.499 -29
s-27.5 -53 -27.5 -101v-373c0 -48 9.16699 -81.667 27.5 -101s49.166 -29 92.499 -29h241v-34h-241c-56 0 -96 12.333 -120 37s-36 67 -36 127v373c0 59.333 12.167 101.5 36.5 126.5s64.166 37.5 119.499 37.5h118c55.333 0 95.166 -12.5 119.499 -37.5
s36.5 -67.167 36.5 -126.5v-349c0 -55.333 -24.667 -83 -74 -83zM240.003 105.999c11.333 0 24.667 4.66699 40 14v144l-43 -16c-15.333 -6 -23 -18.333 -23 -37v-78c0 -18 8.66699 -27 26 -27z" />
    <glyph glyph-name="A" unicode="A" horiz-adv-x="367" 
d="M254 701l101 -701h-106l-14 110h-111l-13 -110h-99l100 701h142zM180 555l-44 -350h87z" />
    <glyph glyph-name="B" unicode="B" horiz-adv-x="365" 
d="M275 360c41.333 -14 62 -47.666 62 -100.999v-129c0 -86.667 -43.333 -130 -130 -130h-175v700h173c86.667 0 130 -43.333 130 -130v-103c0 -56.667 -20 -92.334 -60 -107.001zM229 566.001c0 26.667 -13.333 40 -40 40h-51v-204h47c29.333 0 44 14.667 44 44v120z
M138 311.001v-217h53c26.667 0 40 13.333 40 40v133c0 29.333 -14.667 44 -44 44h-49z" />
    <glyph glyph-name="C" unicode="C" horiz-adv-x="371" 
d="M238 287h105v-163c0 -86.667 -43.333 -130 -130 -130h-53c-86.667 0 -130 43.333 -130 130v452c0 86.667 43.333 130 130 130h52c86 0 129 -43 129 -129v-143h-105v137c0 27.333 -13.333 41 -40 41h-18c-27.333 0 -41 -13.667 -41 -41v-442c0 -27.333 13.667 -41 41 -41
h20c26.667 0 40 13.667 40 41v158z" />
    <glyph glyph-name="D" unicode="D" horiz-adv-x="376" 
d="M32 0v700h161c102 0 153 -51 153 -153v-394c0 -102 -51 -153 -153 -153h-161zM139 606v-512h39c40.667 0 61 20.667 61 62v388c0 41.333 -20.333 62 -61 62h-39z" />
    <glyph glyph-name="E" unicode="E" horiz-adv-x="297" 
d="M32 700h238v-97h-131v-198h126v-97h-126v-211h133v-97h-240v700z" />
    <glyph glyph-name="F" unicode="F" horiz-adv-x="286" 
d="M32 700h233v-97h-126v-202h121v-97h-121v-304h-107v700z" />
    <glyph glyph-name="G" unicode="G" horiz-adv-x="376" 
d="M243 290h-56v92h160v-258c0 -86.667 -43.333 -130 -130 -130h-57c-86.667 0 -130 43.333 -130 130v452c0 86.667 43.333 130 130 130h56c86 0 129 -43 129 -129v-113h-105v107c0 27.333 -13.333 41 -40 41h-22c-27.333 0 -41 -13.667 -41 -41v-442
c0 -27.333 13.667 -41 41 -41h24c27.333 0 41 13.667 41 41v161z" />
    <glyph glyph-name="H" unicode="H" horiz-adv-x="381" 
d="M139 405h103v295h107v-700h-107v308h-103v-308h-107v700h107v-295z" />
    <glyph glyph-name="I" unicode="I" horiz-adv-x="173" 
d="M140 700v-700h-107v700h107z" />
    <glyph glyph-name="J" unicode="J" horiz-adv-x="243" 
d="M211 700v-570c0 -86.667 -43.333 -130 -130 -130h-65v97h47c27.333 0 41 13.667 41 41v562h107z" />
    <glyph glyph-name="K" unicode="K" horiz-adv-x="364" 
d="M358 0h-115l-104 343v-343h-107v700h107v-338l111 338h112l-120 -344z" />
    <glyph glyph-name="L" unicode="L" horiz-adv-x="274" 
d="M32 700h107v-603h118v-97h-225v700z" />
    <glyph glyph-name="M" unicode="M" horiz-adv-x="519" 
d="M192 700l68 -493l68 493h159v-700h-105v525l-77 -525h-104l-77 527v-527h-92v700h160z" />
    <glyph glyph-name="N" unicode="N" horiz-adv-x="384" 
d="M257 265l-1 435h96v-700h-116l-109 472l1 -472h-96v700h125z" />
    <glyph glyph-name="O" unicode="O" horiz-adv-x="377" 
d="M347 124c0 -86.667 -43.333 -130 -130 -130h-57c-86.667 0 -130 43.333 -130 130v452c0 86.667 43.333 130 130 130h57c86.667 0 130 -43.333 130 -130v-452zM240 571c0 27.333 -13.333 41 -40 41h-22c-27.333 0 -41 -13.667 -41 -41v-442c0 -27.333 13.667 -41 41 -41
h22c26.667 0 40 13.667 40 41v442z" />
    <glyph glyph-name="P" unicode="P" horiz-adv-x="351" 
d="M139 254v-254h-107v700h168c86.667 0 130 -43.333 130 -130v-186c0 -86.667 -43.333 -130 -130 -130h-61zM223 565c0 27.333 -13.333 41 -40 41h-44v-258h44c26.667 0 40 13.667 40 41v176z" />
    <glyph glyph-name="Q" unicode="Q" horiz-adv-x="377" 
d="M347 576v-441c0 -55.333 -17.667 -92 -53 -110l71 -29l-52 -81l-129 79h-24c-86.667 0 -130 43.333 -130 130v452c0 86.667 43.333 130 130 130h57c86.667 0 130 -43.333 130 -130zM240 571c0 27.333 -13.333 41 -40 41h-22c-27.333 0 -41 -13.667 -41 -41v-442
c0 -27.333 13.667 -41 41 -41h22c26.667 0 40 13.667 40 41v442z" />
    <glyph glyph-name="R" unicode="R" horiz-adv-x="369" 
d="M277 330c22 -6 37.833 -16.167 47.5 -30.5s14.5 -34.833 14.5 -61.5v-238h-107v236c0 30 -15 45 -45 45h-48v-281h-107v700h176c86.667 0 130 -43.333 130 -130v-132c0 -55.333 -20.333 -91.333 -61 -108zM231 565c0 26.667 -13.333 40 -40 40h-52v-231h48
c29.333 0 44 14.333 44 43v148z" />
    <glyph glyph-name="S" unicode="S" horiz-adv-x="361" 
d="M273 359c23.333 -16.667 39.5 -33.832 48.5 -51.499s13.5 -40.834 13.5 -69.501v-114c0 -86.667 -43.333 -130 -130 -130h-47c-86 0 -129 43 -129 129v148h104v-144c0 -26.667 13.667 -40 41 -40h14c27.333 0 41 13.333 41 40v96c0 23.333 -10 42.333 -30 57l-108 79
c-23.333 16.667 -39.5 34 -48.5 52s-13.5 41 -13.5 69v96c0 86.667 43.333 130 130 130h45c86 0 129 -43 129 -129v-127h-105v123c0 26.667 -13.333 40 -40 40h-13c-26.667 0 -40 -13.333 -40 -40v-78c0 -24 10 -43 30 -57z" />
    <glyph glyph-name="T" unicode="T" horiz-adv-x="319" 
d="M213 0h-107v603h-96v97h299v-97h-96v-603z" />
    <glyph glyph-name="U" unicode="U" horiz-adv-x="374" 
d="M343 700v-576c0 -86.667 -43.333 -130 -130 -130h-52c-86.667 0 -130 43.333 -130 130v576h107v-571c0 -27.333 13.667 -41 41 -41h17c26.667 0 40 13.667 40 41v571h107z" />
    <glyph glyph-name="V" unicode="V" horiz-adv-x="361" 
d="M184 184l64 516h101l-103 -701h-131l-103 701h108z" />
    <glyph glyph-name="W" unicode="W" horiz-adv-x="552" 
d="M102 0l-85 700h108l50 -494l54 494h103l54 -493l50 493h98l-85 -700h-126l-47 419l-47 -419h-127z" />
    <glyph glyph-name="X" unicode="X" horiz-adv-x="361" 
d="M346 700l-96 -346l98 -354h-110l-59 251l-63 -251h-103l98 345l-96 355h110l58 -250l60 250h103z" />
    <glyph glyph-name="Y" unicode="Y" horiz-adv-x="345" 
d="M175 405l63 295h103l-115 -455v-245h-107v240l-115 460h110z" />
    <glyph glyph-name="Z" unicode="Z" horiz-adv-x="298" 
d="M175 604h-151v96h255v-105l-155 -499h155v-96h-260v105z" />
    <glyph glyph-name="bracketleft" unicode="[" horiz-adv-x="205" 
d="M197 31v-63h-159v764h159v-63h-80v-638h80z" />
    <glyph glyph-name="backslash" unicode="\" horiz-adv-x="213" 
d="M133 -32l-130 764h78l130 -764h-78z" />
    <glyph glyph-name="bracketright" unicode="]" horiz-adv-x="205" 
d="M7 -32v63h80v638h-80v63h159v-764h-159z" />
    <glyph glyph-name="asciicircum" unicode="^" horiz-adv-x="400" 
d="M235 700l100 -205h-76l-59 125l-59 -125h-76l100 205h70z" />
    <glyph glyph-name="underscore" unicode="_" horiz-adv-x="458" 
d="M-2 -22h462v-78h-462v78z" />
    <glyph glyph-name="grave" unicode="`" 
d="M295 699l37 -110h-71l-67 110h101z" />
    <glyph glyph-name="a" unicode="a" horiz-adv-x="336" 
d="M26 87v111.001c0 32 5.66699 56.167 17 72.5s31.333 29.166 60 38.499l105 36v85c0 24.667 -12.333 37 -37 37h-7c-24.667 0 -37 -12.333 -37 -37v-68h-95v71c0 81.333 40.667 122 122 122h32c81.333 0 122 -40.667 122 -122v-433h-99v35
c-32 -27.333 -63.667 -41 -95 -41h-1c-58 0 -87 31 -87 93zM156 85.001c17.333 0 34.667 5.33301 52 16v159l-55 -21c-11.333 -5.33301 -19 -11 -23 -17s-6 -15.333 -6 -28v-78c0 -20.667 10.667 -31 32 -31z" />
    <glyph glyph-name="b" unicode="b" horiz-adv-x="347" 
d="M29 0v710h101v-198c30 28.667 61.667 43 95 43h1c30 0 53.167 -9 69.5 -27s24.5 -43.333 24.5 -76v-355c0 -32.667 -8.16699 -58 -24.5 -76s-39.5 -27 -69.5 -27h-1c-34 0 -66 13 -96 39v-33h-100zM130 445v-341c16.667 -12 34.334 -18 53.001 -18c24 0 36 11.333 36 34
v309c0 22.667 -12 34 -36 34c-18.667 0 -36.334 -6 -53.001 -18z" />
    <glyph glyph-name="c" unicode="c" horiz-adv-x="338" 
d="M213 334v93c0 24.667 -12.333 37 -37 37h-12c-24 0 -36 -12.333 -36 -37v-305c0 -24.667 12 -37 36 -37h13c24.667 0 37 12.333 37 37v111h99v-117c0 -81.333 -40.667 -122 -122 -122h-42c-81.333 0 -122 40.667 -122 122v317c0 81.333 40.667 122 122 122h42
c80.667 0 121 -40.333 121 -121v-100h-99z" />
    <glyph glyph-name="d" unicode="d" horiz-adv-x="347" 
d="M318 710v-710h-100v37c-30 -28.667 -61.667 -43 -95 -43h-1c-30.667 0 -54.167 9 -70.5 27s-24.5 43.333 -24.5 76v355c0 32.667 8.16699 58 24.5 76s39.833 27 70.5 27h1c32.667 0 64 -13 94 -39v194h101zM217 104v341c-16.667 12 -34.334 18 -53.001 18
c-24 0 -36 -11.333 -36 -34v-309c0 -22.667 12 -34 36 -34c18.667 0 36.334 6 53.001 18z" />
    <glyph glyph-name="e" unicode="e" horiz-adv-x="336" 
d="M310 235h-183v-114c0 -24.667 12 -37 36 -37h13c24.667 0 37 12.333 37 37v58h97v-63c0 -81.333 -40.667 -122 -122 -122h-39c-81.333 0 -122 40.667 -122 122v317c0 81.333 40.667 122 122 122h39c81.333 0 122 -40.667 122 -122v-198zM127 429v-108h84v108
c0 24.667 -12.333 37 -37 37h-11c-24 0 -36 -12.333 -36 -37z" />
    <glyph glyph-name="f" unicode="f" horiz-adv-x="215" 
d="M47 549v52c0 72.667 36.333 109 109 109h56v-87h-36c-18.667 0 -28 -9.33301 -28 -28v-46h61v-88h-61v-461h-101v461h-31v88h31z" />
    <glyph glyph-name="g" unicode="g" horiz-adv-x="347" 
d="M318 549v-546c0 -78 -39.333 -117 -118 -117h-65c-70.667 0 -106 35 -106 105v32h92v-24c0 -22 10.333 -33 31 -33h35c20.667 0 31 11 31 33v92c-30 -25.333 -61.667 -38 -95 -38h-1c-30.667 0 -54.167 9 -70.5 27s-24.5 43.333 -24.5 76v296
c0 32.667 8.16699 58 24.5 76s39.833 27 70.5 27h1c33.333 0 65 -13 95 -39v33h100zM217 160v285c-16.667 12 -34.334 18 -53.001 18c-24 0 -36 -11.333 -36 -34v-252c0 -22.667 12 -34 36 -34c18.667 0 36.334 5.66699 53.001 17z" />
    <glyph glyph-name="h" unicode="h" horiz-adv-x="346" 
d="M29 0l-0.000976562 710h101v-197c30.667 28 62.334 42 95.001 42h5c58.667 0 88 -31.333 88 -94v-461h-101v431c0 21.333 -11 32 -33 32c-16.667 0 -34.667 -5.66699 -54 -17v-446h-101z" />
    <glyph glyph-name="i" unicode="i" horiz-adv-x="164" 
d="M29 595v98h105v-98h-105zM31 0v549h101v-549h-101z" />
    <glyph glyph-name="j" unicode="j" horiz-adv-x="165" 
d="M30 595v98h105v-98h-105zM133 549v-556c0 -70 -34.667 -105 -104 -105h-34v85h9c18.667 0 28 9.33301 28 28v548h101z" />
    <glyph glyph-name="k" unicode="k" horiz-adv-x="331" 
d="M223 549h106l-102 -269l98 -280h-108l-87 273v-273h-101v710h101v-428z" />
    <glyph glyph-name="l" unicode="l" horiz-adv-x="164" 
d="M31 0v710h101v-710h-101z" />
    <glyph glyph-name="m" unicode="m" horiz-adv-x="527" 
d="M315 446v-446h-102v432c0 20.667 -10 31 -30 31c-16 0 -33.667 -5.66699 -53 -17v-446h-101v549h100v-36c31.333 28 63 42 95 42h4c38.667 0 64.667 -15.333 78 -46c32.667 30.667 66.667 46 102 46h4c28 0 49.5 -8 64.5 -24s22.5 -39 22.5 -69v-462h-101v432
c0 20.667 -10.333 31 -31 31c-16 0 -33.333 -5.66699 -52 -17z" />
    <glyph glyph-name="n" unicode="n" horiz-adv-x="346" 
d="M29 0v549h100v-36c31.333 28 63.333 42 96 42h5c58.667 0 88 -31.333 88 -94v-461h-101v431c0 21.333 -11 32 -33 32c-16.667 0 -34.667 -5.66699 -54 -17v-446h-101z" />
    <glyph glyph-name="o" unicode="o" horiz-adv-x="344" 
d="M180 464h-16c-24 0 -36 -12.333 -36 -37v-305c0 -24.667 12 -37 36 -37h16c24.667 0 37 12.333 37 37v305c0 24.667 -12.333 37 -37 37zM196 -6h-47c-81.333 0 -122 40.667 -122 122v317c0 81.333 40.667 122 122 122h47c81.333 0 122 -40.667 122 -122v-317
c0 -81.333 -40.667 -122 -122 -122z" />
    <glyph glyph-name="p" unicode="p" horiz-adv-x="347" 
d="M29 -110v659h100v-37c30 28.667 62 43 96 43h1c30 0 53.167 -9 69.5 -27s24.5 -43.333 24.5 -76v-355c0 -32.667 -8.16699 -58 -24.5 -76s-39.5 -27 -69.5 -27h-1c-33.333 0 -65 13 -95 39v-143h-101zM130 445v-341c16.667 -12 34.334 -18 53.001 -18
c24 0 36 11.333 36 34v309c0 22.667 -12 34 -36 34c-18.667 0 -36.334 -6 -53.001 -18z" />
    <glyph glyph-name="q" unicode="q" horiz-adv-x="347" 
d="M318 549v-659h-101v147c-30 -28.667 -61.333 -43 -94 -43h-1c-30.667 0 -54.167 9 -70.5 27s-24.5 43.333 -24.5 76v355c0 32.667 8.16699 58 24.5 76s39.833 27 70.5 27h1c33.333 0 65 -13 95 -39v33h100zM217 104v341c-16.667 12 -34.334 18 -53.001 18
c-24 0 -36 -11.333 -36 -34v-309c0 -22.667 12 -34 36 -34c18.667 0 36.334 6 53.001 18z" />
    <glyph glyph-name="r" unicode="r" horiz-adv-x="225" 
d="M29 0v549.001h100v-59c12 22.667 24.333 39 37 49s28.667 15 48 15v-112c-35.333 -2.66699 -63.333 -13.334 -84 -32.001v-410h-101z" />
    <glyph glyph-name="s" unicode="s" horiz-adv-x="330" 
d="M206 354v77c0 24 -12 36 -36 36h-11c-23.333 0 -35 -12 -35 -36v-43c0 -18 8 -32 24 -42l95 -60c22.667 -14 38.667 -28.5 48 -43.5s14 -35.167 14 -60.5v-66c0 -81.333 -40.667 -122 -122 -122h-36c-80.667 0 -121 40.333 -121 121v83h98v-80c0 -24 11.667 -36 35 -36
h13c24 0 36 12 36 36v46c0 18 -8 32.333 -24 43l-96 59c-22 14 -37.667 28.5 -47 43.5s-14 35.167 -14 60.5v63c0 81.333 40.667 122 122 122h34c80.667 0 121 -40.333 121 -121v-80h-98z" />
    <glyph glyph-name="t" unicode="t" horiz-adv-x="215" 
d="M151 461v-461h-101v461h-36v88h36v90h101v-90h53v-88h-53z" />
    <glyph glyph-name="u" unicode="u" horiz-adv-x="346" 
d="M317 549v-549h-100v36c-30.667 -28 -62.667 -42 -96 -42h-4c-59.333 0 -89 31.333 -89 94v461h101v-431c0 -21.333 11 -32 33 -32c17.333 0 35.333 5.66699 54 17v446h101z" />
    <glyph glyph-name="v" unicode="v" horiz-adv-x="329" 
d="M226 0h-123l-92 549h102l54 -390l54 390h96z" />
    <glyph glyph-name="w" unicode="w" horiz-adv-x="483" 
d="M94 0l-82 549h100l39 -355l48 355h91l48 -354l39 354h94l-82 -549h-103l-43 319l-46 -319h-103z" />
    <glyph glyph-name="x" unicode="x" horiz-adv-x="315" 
d="M102 0h-99l90 266l-88 283h106l48 -181l52 181h99l-89 -267l91 -282h-106l-50 182z" />
    <glyph glyph-name="y" unicode="y" horiz-adv-x="327" 
d="M181 -110h-97l29 131l-104 528h101l53 -334l59 334h97z" />
    <glyph glyph-name="z" unicode="z" horiz-adv-x="277" 
d="M157 461h-136v88h240v-88l-142 -373h142v-88h-245v88z" />
    <glyph glyph-name="braceleft" unicode="{" horiz-adv-x="257" 
d="M82 278c0 11.333 -2.83301 19.5 -8.5 24.5s-14.834 8.83301 -27.501 11.5l-34 7v60l34 6c12.667 2.66699 21.834 6.5 27.501 11.5s8.5 13.167 8.5 24.5v72c0 64.667 6.5 111.167 19.5 139.5s44.167 64.166 93.5 107.499l55 -23c-39.333 -46.667 -63.5 -81.667 -72.5 -105
s-13.5 -62.666 -13.5 -117.999v-41c0 -54 -20 -88.667 -60 -104c40 -11.333 60 -41.333 60 -90v-57c0 -55.333 4.5 -94.666 13.5 -117.999s33.167 -58.333 72.5 -105l-55 -23c-49.333 43.333 -80.5 79.166 -93.5 107.499s-19.5 74.833 -19.5 139.5v73z" />
    <glyph glyph-name="bar" unicode="|" horiz-adv-x="248" 
d="M161 763v-830h-74v830h74z" />
    <glyph glyph-name="braceright" unicode="}" horiz-adv-x="257" 
d="M175 278v-73c0 -64.667 -6.5 -111.167 -19.5 -139.5s-44.167 -64.166 -93.5 -107.499l-55 23c39.333 46.667 63.5 81.667 72.5 105s13.5 62.666 13.5 117.999v57c0 48.667 20 78.667 60 90c-40 15.333 -60 50 -60 104v41c0 55.333 -4.5 94.666 -13.5 117.999
s-33.167 58.333 -72.5 105l55 23c49.333 -43.333 80.5 -79.166 93.5 -107.499s19.5 -74.833 19.5 -139.5v-72c0 -11.333 2.83301 -19.5 8.5 -24.5s14.834 -8.83301 27.501 -11.5l34 -6v-60l-34 -7c-12.667 -2.66699 -21.834 -6.5 -27.501 -11.5s-8.5 -13.167 -8.5 -24.5z
" />
    <glyph glyph-name="asciitilde" unicode="~" horiz-adv-x="399" 
d="M185 395l47 -32c9.33301 -6.66699 17.333 -10 24 -10h1c6.66699 0 10 4 10 12v45h59v-69c0 -33.333 -16 -50 -48 -50h-11c-20.667 0 -38 5 -52 15l-46 32c-10 6.66699 -18.333 10 -25 10h-1c-6.66699 0 -10 -4 -10 -12v-45h-59v69c0 33.333 16 50 48 50h11
c20.667 0 38 -5 52 -15z" />
    <glyph glyph-name="uni00A0" unicode="&#xa0;" horiz-adv-x="153" 
 />
    <glyph glyph-name="exclamdown" unicode="&#xa1;" horiz-adv-x="170" 
d="M33 161l27 341h48l28 -341v-161h-103v161zM34 567v133h100v-133h-100z" />
    <glyph glyph-name="cent" unicode="&#xa2;" horiz-adv-x="335" 
d="M209 415v97.999c0 24.667 -12 37 -36 37h-9c-24.667 0 -37 -12.333 -37 -37v-322c0 -24.667 12.333 -37 37 -37h10c24 0 36 12.333 36 37v116h97v-120c0 -74 -34 -114.667 -102 -122v-68h-72v68c-69.333 6 -104 46.667 -104 122v330c0 74.667 34.667 115 104 121v65h72
v-65c67.333 -7.33301 101 -47.666 101 -120.999v-102h-97z" />
    <glyph glyph-name="sterling" unicode="&#xa3;" horiz-adv-x="381" 
d="M18 273v95h41v208c0 86.667 43.333 130 130 130h39c86 0 129 -43 129 -129v-114h-102v108c0 27.333 -13.333 41 -40 41h-11c-26 0 -39 -13.667 -39 -41v-203h126v-95h-126v-176h194v-97h-341v97h41v176h-41z" />
    <glyph glyph-name="yen" unicode="&#xa5;" horiz-adv-x="342" 
d="M26 293h83l-103 407h108l59 -289l62 289h101l-104 -407h84v-61h-93v-41h93v-62h-93v-129h-104v129h-93v62h93v41h-93v61z" />
    <glyph glyph-name="section" unicode="&#xa7;" horiz-adv-x="359" 
d="M327 333v-17.001l-222 89c-27.333 11.333 -46.333 24.333 -57 39s-16 37.334 -16 68.001v64c0 86.667 43.333 130 130 130h37c86 0 129 -43 129 -129v-85h-100v82c0 26.667 -13.667 40 -41 40h-13c-26.667 0 -40 -13.333 -40 -40v-68c0 -18.667 10.333 -32 31 -40
l100 -41c26 -10.667 42.833 -22.167 50.5 -34.5s11.5 -31.5 11.5 -57.5zM32 366.999v17.001l222 -89c27.333 -11.333 46.333 -24.333 57 -39s16 -37.334 16 -68.001v-64c0 -86.667 -43.333 -130 -130 -130h-37c-86 0 -129 43 -129 129v85h100v-82
c0 -26.667 13.667 -40 41 -40h12c27.333 0 41 13.333 41 40v68c0 18.667 -10.333 32 -31 40l-100 41c-26 10.667 -42.833 22.167 -50.5 34.5s-11.5 31.5 -11.5 57.5z" />
    <glyph glyph-name="dieresis" unicode="&#xa8;" 
d="M270 589v103h83v-103h-83zM230 692v-103h-83v103h83z" />
    <glyph glyph-name="copyright" unicode="&#xa9;" horiz-adv-x="493" 
d="M281 302h80v-121c0 -60.667 -32 -91 -96 -91h-34c-63.333 0 -95 30.333 -95 91v339c0 60.667 31.667 91 95 91h32c64 0 96 -30.333 96 -91v-107h-80v97c0 17.333 -8.66699 26 -26 26h-9c-18 0 -27 -8.66699 -27 -26v-318c0 -18 9 -27 27 -27h10c18 0 27 9 27 27v110z
M459 542v-384c0 -58 -12.5 -99.833 -37.5 -125.5s-64.5 -38.5 -118.5 -38.5h-113c-54 0 -93.5 12.833 -118.5 38.5s-37.5 67.5 -37.5 125.5v384c0 58 12.5 99.833 37.5 125.5s64.5 38.5 118.5 38.5h113c54 0 93.5 -12.833 118.5 -38.5s37.5 -67.5 37.5 -125.5zM433 158v384
c0 49.333 -10.5 85 -31.5 107s-53.833 33 -98.5 33h-113c-44.667 0 -77.5 -11 -98.5 -33s-31.5 -57.667 -31.5 -107v-384c0 -49.333 10.5 -85 31.5 -107s53.833 -33 98.5 -33h113c44.667 0 77.5 11 98.5 33s31.5 57.667 31.5 107z" />
    <glyph glyph-name="ordfeminine" unicode="&#xaa;" horiz-adv-x="227" 
d="M28 467l0.00195312 46.999c0 17.333 3.16699 30.833 9.5 40.5s17.166 16.834 32.499 21.501l69 21v36c0 14.667 -7.33301 22 -22 22h-7c-15.333 0 -23 -7.33301 -23 -22v-27h-56v33c0 44.667 23.333 67 70 67h26c47.333 0 71 -22.333 71 -67v-224h-58v23
c-20.667 -17.333 -40.334 -26 -59.001 -26h-2c-34 0 -51 18.333 -51 55zM105.002 465.999c12.667 0 24 3.99902 34 11.999v69l-38 -12c-10 -3.33301 -15 -11.666 -15 -24.999v-25c0 -12.667 6.33301 -19 19 -19z" />
    <glyph glyph-name="guillemotleft" unicode="&#xab;" horiz-adv-x="261" 
d="M4 284l62 160h75l-51 -160l51 -159h-74zM121 284l54 160h75l-43 -160l43 -159h-73z" />
    <glyph glyph-name="registered" unicode="&#xae;" horiz-adv-x="296" 
d="M192 511c17.333 -4.66699 26 -15.334 26 -32.001v-81h-47v76c0 10.667 -6.33301 16 -19 16h-21v-92h-48v246h80c36.667 0 55 -15 55 -45v-51c0 -19.333 -8.66699 -31.666 -26 -36.999zM171 590c0 8.66699 -5.66699 13 -17 13h-23v-73h21c12.667 0 19 4.66699 19 14v46z
M255 432v178c0 27.333 -6 47 -18 59s-31.667 18 -59 18h-60c-27.333 0 -47 -6 -59 -18s-18 -31.667 -18 -59v-178c0 -28 6 -48 18 -60s31.667 -18 59 -18h60c27.333 0 47 6 59 18s18 32 18 60zM275 610v-178c0 -34.667 -7.66699 -59.5 -23 -74.5s-40 -22.5 -74 -22.5h-60
c-34 0 -58.667 7.5 -74 22.5s-23 39.833 -23 74.5v178c0 34 7.66699 58.5 23 73.5s40 22.5 74 22.5h60c34 0 58.667 -7.5 74 -22.5s23 -39.5 23 -73.5z" />
    <glyph glyph-name="macron" unicode="&#xaf;" 
d="M144 672h212v-76h-212v76z" />
    <glyph glyph-name="degree" unicode="&#xb0;" horiz-adv-x="257" 
d="M139 636h-20c-17.333 0 -26 -9.66699 -26 -29v-168c0 -18.667 8.66699 -28 26 -28h20c17.333 0 26 9.33301 26 28v168c0 19.333 -8.66699 29 -26 29zM156 341h-54c-25.333 0 -45.333 7.5 -60 22.5s-22 35.833 -22 62.5v196c0 26.667 7.16699 47.334 21.5 62.001
s34.5 22 60.5 22h54c25.333 0 45.166 -7.33301 59.499 -22s21.5 -35.334 21.5 -62.001v-196c0 -26.667 -7.16699 -47.5 -21.5 -62.5s-34.166 -22.5 -59.499 -22.5z" />
    <glyph glyph-name="plusminus" unicode="&#xb1;" horiz-adv-x="314" 
d="M117 271v109h-106v77h106v109h81v-109h107v-77h-107v-109h-81zM10 227h294v-78h-294v78z" />
    <glyph glyph-name="acute" unicode="&#xb4;" 
d="M188 589l37 110h101l-67 -110h-71z" />
    <glyph glyph-name="paragraph" unicode="&#xb6;" horiz-adv-x="346" 
d="M314 0h-69v630h-56v-630h-3c-104 4 -156 61 -156 171v357c0 114.667 57.333 172 172 172h112v-700z" />
    <glyph glyph-name="periodcentered" unicode="&#xb7;" horiz-adv-x="151" 
d="M126 366v-133h-101v133h101z" />
    <glyph glyph-name="cedilla" unicode="&#xb8;" 
d="M304 0l-20 -98h-89l45 98h64z" />
    <glyph glyph-name="ordmasculine" unicode="&#xba;" horiz-adv-x="234" 
d="M125 652h-15c-14.667 0 -22 -7.66699 -22 -23v-140c0 -15.333 7.33301 -23 22 -23h15c14.667 0 22 7.66699 22 23v140c0 15.333 -7.33301 23 -22 23zM135 412h-36c-46.667 0 -70 23.667 -70 71v152c0 47.333 23.333 71 70 71h36c47.333 0 71 -23.667 71 -71v-152
c0 -47.333 -23.667 -71 -71 -71z" />
    <glyph glyph-name="guillemotright" unicode="&#xbb;" horiz-adv-x="261" 
d="M194 444l62 -160l-63 -159h-74l51 159l-51 160h75zM85 444l54 -160l-56 -159h-73l43 159l-43 160h75z" />
    <glyph glyph-name="questiondown" unicode="&#xbf;" horiz-adv-x="329" 
d="M168 301l-21 -24c-16 -18 -24 -36 -24 -54v-94c0 -27.333 13 -41 39 -41h13c26.667 0 40 13.667 40 41v120h97v-125c0 -86.667 -43.333 -130 -130 -130h-35c-86.667 0 -130 43.333 -130 130v95c0 24 3.83301 44 11.5 60s22.5 36.333 44.5 61l41 47c12 14 18 34 18 60v63
h82v-101c0 -25.333 -2.83301 -44.5 -8.5 -57.5s-18.167 -29.833 -37.5 -50.5zM123 567v133h100v-133h-100z" />
    <glyph glyph-name="Agrave" unicode="&#xc0;" horiz-adv-x="367" 
d="M254 701l101 -701h-106l-14 110h-111l-13 -110h-99l100 701h142zM180 555l-44 -350h87zM178 830l44 -89h-73l-74 89h103z" />
    <glyph glyph-name="Aacute" unicode="&#xc1;" horiz-adv-x="367" 
d="M254 701l101 -701h-106l-14 110h-111l-13 -110h-99l100 701h142zM180 555l-44 -350h87zM147 741l43 89h101l-73 -89h-71z" />
    <glyph glyph-name="Acircumflex" unicode="&#xc2;" horiz-adv-x="367" 
d="M254 701l101 -701h-106l-14 110h-111l-13 -110h-99l100 701h142zM180 555l-44 -350h87zM225 838l70 -97h-66l-45 39l-45 -39h-66l70 97h82z" />
    <glyph glyph-name="Atilde" unicode="&#xc3;" horiz-adv-x="367" 
d="M254 701l101 -701h-106l-14 110h-111l-13 -110h-99l100 701h142zM119 840h9c17.333 0 33 -4 47 -12l31 -19c8.66699 -4.66699 16 -7 22 -7c6.66699 0 10 4 10 12v26h59v-49c0 -33.333 -16 -50 -48 -50h-9c-18 0 -33.333 4 -46 12l-32 18c-8.66699 4.66699 -16 7 -22 7
c-6.66699 0 -10 -4 -10 -12v-25h-59v48c0 34 16 51 48 51zM180 555l-44 -350h87z" />
    <glyph glyph-name="Adieresis" unicode="&#xc4;" horiz-adv-x="367" 
d="M254 701l101 -701h-106l-14 110h-111l-13 -110h-99l100 701h142zM180 555l-44 -350h87zM204 741v82h85v-82h-85zM164 823v-82h-85v82h85z" />
    <glyph glyph-name="Aring" unicode="&#xc5;" horiz-adv-x="367" 
d="M284 712v-5c0 -22 -8.33301 -37.333 -25 -46l96 -661h-106l-14 110h-111l-13 -110h-99l96 661c-17.333 8.66699 -26 24 -26 46v5c0 35.333 21.667 53 65 53h72c43.333 0 65 -17.667 65 -53zM180 556l-44 -351h87zM258 706v6c0 20 -13.333 30 -40 30h-69
c-27.333 0 -41 -10 -41 -30v-6c0 -20 13.667 -30 41 -30h69c26.667 0 40 10 40 30z" />
    <glyph glyph-name="AE" unicode="&#xc6;" horiz-adv-x="477" 
d="M451 700v-97h-131v-198h126v-97h-126v-211h133v-97h-240v110h-84l-18 -110h-99l131 700h308zM145 205h68v410z" />
    <glyph glyph-name="Ccedilla" unicode="&#xc7;" horiz-adv-x="371" 
d="M238 287h105v-163c0 -82.667 -39.667 -126 -119 -130l-19 -92h-89l42 92c-85.333 0.666992 -128 44 -128 130v452c0 86.667 43.333 130 130 130h52c86 0 129 -43 129 -129v-143h-105v137c0 27.333 -13.333 41 -40 41h-18c-27.333 0 -41 -13.667 -41 -41v-442
c0 -27.333 13.667 -41 41 -41h20c26.667 0 40 13.667 40 41v158z" />
    <glyph glyph-name="Egrave" unicode="&#xc8;" horiz-adv-x="297" 
d="M146 830l44 -89h-73l-74 89h103zM32 700h238v-97h-131v-198h126v-97h-126v-211h133v-97h-240v700z" />
    <glyph glyph-name="Eacute" unicode="&#xc9;" horiz-adv-x="297" 
d="M115 741l43 89h101l-73 -89h-71zM32 700h238v-97h-131v-198h126v-97h-126v-211h133v-97h-240v700z" />
    <glyph glyph-name="Ecircumflex" unicode="&#xca;" horiz-adv-x="297" 
d="M32 700h238v-97h-131v-198h126v-97h-126v-211h133v-97h-240v700zM193 838l70 -97h-66l-45 39l-45 -39h-66l70 97h82z" />
    <glyph glyph-name="Edieresis" unicode="&#xcb;" horiz-adv-x="297" 
d="M172 741v82h85v-82h-85zM132 823v-82h-85v82h85zM32 700h238v-97h-131v-198h126v-97h-126v-211h133v-97h-240v700z" />
    <glyph glyph-name="Igrave" unicode="&#xcc;" horiz-adv-x="173" 
d="M140 700v-700h-107v700h107zM81 830l44 -89h-73l-74 89h103z" />
    <glyph glyph-name="Iacute" unicode="&#xcd;" horiz-adv-x="173" 
d="M140 700v-700h-107v700h107zM50 741l43 89h101l-73 -89h-71z" />
    <glyph glyph-name="Icircumflex" unicode="&#xce;" horiz-adv-x="173" 
d="M140 700v-700h-107v700h107zM128 838l70 -97h-66l-45 39l-45 -39h-66l70 97h82z" />
    <glyph glyph-name="Idieresis" unicode="&#xcf;" horiz-adv-x="173" 
d="M140 700v-700h-107v700h107zM107 741v82h85v-82h-85zM67 823v-82h-85v82h85z" />
    <glyph glyph-name="Eth" unicode="&#xd0;" horiz-adv-x="388" 
d="M44 0v312h-42v86h42v302h161c102 0 153 -51 153 -153v-394c0 -102 -51 -153 -153 -153h-161zM151 606v-208h60v-86h-60v-218h39c40.667 0 61 20.667 61 62v388c0 41.333 -20.333 62 -61 62h-39z" />
    <glyph glyph-name="Ntilde" unicode="&#xd1;" horiz-adv-x="384" 
d="M257 265l-1 435h96v-700h-116l-109 472l1 -472h-96v700h125zM129 840h9c17.333 0 33 -4 47 -12l31 -19c8.66699 -4.66699 16 -7 22 -7c6.66699 0 10 4 10 12v26h59v-49c0 -33.333 -16 -50 -48 -50h-9c-18 0 -33.333 4 -46 12l-32 18c-8.66699 4.66699 -16 7 -22 7
c-6.66699 0 -10 -4 -10 -12v-25h-59v48c0 34 16 51 48 51z" />
    <glyph glyph-name="Ograve" unicode="&#xd2;" horiz-adv-x="377" 
d="M183 830l44 -89h-73l-74 89h103zM347 124c0 -86.667 -43.333 -130 -130 -130h-57c-86.667 0 -130 43.333 -130 130v452c0 86.667 43.333 130 130 130h57c86.667 0 130 -43.333 130 -130v-452zM240 571c0 27.333 -13.333 41 -40 41h-22c-27.333 0 -41 -13.667 -41 -41
v-442c0 -27.333 13.667 -41 41 -41h22c26.667 0 40 13.667 40 41v442z" />
    <glyph glyph-name="Oacute" unicode="&#xd3;" horiz-adv-x="377" 
d="M152 741l43 89h101l-73 -89h-71zM347 124c0 -86.667 -43.333 -130 -130 -130h-57c-86.667 0 -130 43.333 -130 130v452c0 86.667 43.333 130 130 130h57c86.667 0 130 -43.333 130 -130v-452zM240 571c0 27.333 -13.333 41 -40 41h-22c-27.333 0 -41 -13.667 -41 -41
v-442c0 -27.333 13.667 -41 41 -41h22c26.667 0 40 13.667 40 41v442z" />
    <glyph glyph-name="Ocircumflex" unicode="&#xd4;" horiz-adv-x="377" 
d="M347 124c0 -86.667 -43.333 -130 -130 -130h-57c-86.667 0 -130 43.333 -130 130v452c0 86.667 43.333 130 130 130h57c86.667 0 130 -43.333 130 -130v-452zM240 571c0 27.333 -13.333 41 -40 41h-22c-27.333 0 -41 -13.667 -41 -41v-442c0 -27.333 13.667 -41 41 -41
h22c26.667 0 40 13.667 40 41v442zM230 838l70 -97h-66l-45 39l-45 -39h-66l70 97h82z" />
    <glyph glyph-name="Otilde" unicode="&#xd5;" horiz-adv-x="377" 
d="M347 124c0 -86.667 -43.333 -130 -130 -130h-57c-86.667 0 -130 43.333 -130 130v452c0 86.667 43.333 130 130 130h57c86.667 0 130 -43.333 130 -130v-452zM240 571c0 27.333 -13.333 41 -40 41h-22c-27.333 0 -41 -13.667 -41 -41v-442c0 -27.333 13.667 -41 41 -41
h22c26.667 0 40 13.667 40 41v442zM124 840h9c17.333 0 33 -4 47 -12l31 -19c8.66699 -4.66699 16 -7 22 -7c6.66699 0 10 4 10 12v26h59v-49c0 -33.333 -16 -50 -48 -50h-9c-18 0 -33.333 4 -46 12l-32 18c-8.66699 4.66699 -16 7 -22 7c-6.66699 0 -10 -4 -10 -12v-25h-59
v48c0 34 16 51 48 51z" />
    <glyph glyph-name="Odieresis" unicode="&#xd6;" horiz-adv-x="377" 
d="M209 741v82h85v-82h-85zM169 823v-82h-85v82h85zM347 124c0 -86.667 -43.333 -130 -130 -130h-57c-86.667 0 -130 43.333 -130 130v452c0 86.667 43.333 130 130 130h57c86.667 0 130 -43.333 130 -130v-452zM240 571c0 27.333 -13.333 41 -40 41h-22
c-27.333 0 -41 -13.667 -41 -41v-442c0 -27.333 13.667 -41 41 -41h22c26.667 0 40 13.667 40 41v442z" />
    <glyph glyph-name="multiply" unicode="&#xd7;" horiz-adv-x="314" 
d="M239 216l-83 83l-83 -83l-55 56l82 82l-82 83l57 58l83 -83l83 83l55 -56l-83 -83l83 -82z" />
    <glyph glyph-name="Oslash" unicode="&#xd8;" horiz-adv-x="377" 
d="M347 124c0 -86.667 -43.333 -130 -130 -130h-57c-86.667 0 -130 43.333 -130 130v452c0 86.667 43.333 130 130 130h57c86.667 0 130 -43.333 130 -130v-452zM241 129l1 332l-99 -359c7.33301 -9.33301 19 -14 35 -14h21c28 0 42 13.667 42 41zM137 571l-3 -334l100 360
c-6 10 -17.333 15 -34 15h-22c-27.333 0 -41 -13.667 -41 -41z" />
    <glyph glyph-name="Ugrave" unicode="&#xd9;" horiz-adv-x="374" 
d="M181 830l44 -89h-73l-74 89h103zM343 700v-576c0 -86.667 -43.333 -130 -130 -130h-52c-86.667 0 -130 43.333 -130 130v576h107v-571c0 -27.333 13.667 -41 41 -41h17c26.667 0 40 13.667 40 41v571h107z" />
    <glyph glyph-name="Uacute" unicode="&#xda;" horiz-adv-x="374" 
d="M150 741l43 89h101l-73 -89h-71zM343 700v-576c0 -86.667 -43.333 -130 -130 -130h-52c-86.667 0 -130 43.333 -130 130v576h107v-571c0 -27.333 13.667 -41 41 -41h17c26.667 0 40 13.667 40 41v571h107z" />
    <glyph glyph-name="Ucircumflex" unicode="&#xdb;" horiz-adv-x="374" 
d="M343 700v-576c0 -86.667 -43.333 -130 -130 -130h-52c-86.667 0 -130 43.333 -130 130v576h107v-571c0 -27.333 13.667 -41 41 -41h17c26.667 0 40 13.667 40 41v571h107zM228 838l70 -97h-66l-45 39l-45 -39h-66l70 97h82z" />
    <glyph glyph-name="Udieresis" unicode="&#xdc;" horiz-adv-x="374" 
d="M207 741v82h85v-82h-85zM167 823v-82h-85v82h85zM343 700v-576c0 -86.667 -43.333 -130 -130 -130h-52c-86.667 0 -130 43.333 -130 130v576h107v-571c0 -27.333 13.667 -41 41 -41h17c26.667 0 40 13.667 40 41v571h107z" />
    <glyph glyph-name="Yacute" unicode="&#xdd;" horiz-adv-x="345" 
d="M175 405l63 295h103l-115 -455v-245h-107v240l-115 460h110zM138 741l43 89h101l-73 -89h-71z" />
    <glyph glyph-name="Thorn" unicode="&#xde;" horiz-adv-x="351" 
d="M139 130v-130h-107v700h107v-125h61c86.667 0 130 -43.333 130 -130v-185c0 -86.667 -43.333 -130 -130 -130h-61zM223 441c0 26.667 -13.333 40 -40 40h-44v-257h44c26.667 0 40 13.333 40 40v177z" />
    <glyph glyph-name="germandbls" unicode="&#xdf;" horiz-adv-x="349" 
d="M323 278v-155.999c0 -81.333 -40.667 -122 -122 -122h-41v91h27c24 0 36 12.333 36 37v149c0 26 -12.667 39 -38 39h-25v92h23c25.333 0 38 12.667 38 38v133c0 26 -12.667 39 -38 39h-14c-26 0 -39 -13 -39 -39v-579h-101v583c0 84.667 42.333 127 127 127h38
c84.667 0 127 -42.333 127 -127v-111c0 -54.667 -19.333 -89.334 -58 -104.001c40 -11.333 60 -41.333 60 -90z" />
    <glyph glyph-name="agrave" unicode="&#xe0;" horiz-adv-x="336" 
d="M26 87v111.001c0 32 5.66699 56.167 17 72.5s31.333 29.166 60 38.499l105 36v85c0 24.667 -12.333 37 -37 37h-7c-24.667 0 -37 -12.333 -37 -37v-68h-95v71c0 81.333 40.667 122 122 122h32c81.333 0 122 -40.667 122 -122v-433h-99v35
c-32 -27.333 -63.667 -41 -95 -41h-1c-58 0 -87 31 -87 93zM156 85.001c17.333 0 34.667 5.33301 52 16v159l-55 -21c-11.333 -5.33301 -19 -11 -23 -17s-6 -15.333 -6 -28v-78c0 -20.667 10.667 -31 32 -31zM175.001 699.001l37 -110h-71l-67 110h101z" />
    <glyph glyph-name="aacute" unicode="&#xe1;" horiz-adv-x="336" 
d="M26 87v111.001c0 32 5.66699 56.167 17 72.5s31.333 29.166 60 38.499l105 36v85c0 24.667 -12.333 37 -37 37h-7c-24.667 0 -37 -12.333 -37 -37v-68h-95v71c0 81.333 40.667 122 122 122h32c81.333 0 122 -40.667 122 -122v-433h-99v35
c-32 -27.333 -63.667 -41 -95 -41h-1c-58 0 -87 31 -87 93zM156 85.001c17.333 0 34.667 5.33301 52 16v159l-55 -21c-11.333 -5.33301 -19 -11 -23 -17s-6 -15.333 -6 -28v-78c0 -20.667 10.667 -31 32 -31zM138.001 589.001l37 110h101l-67 -110h-71z" />
    <glyph glyph-name="acircumflex" unicode="&#xe2;" horiz-adv-x="336" 
d="M26 87v111.001c0 32 5.66699 56.167 17 72.5s31.333 29.166 60 38.499l105 36v85c0 24.667 -12.333 37 -37 37h-7c-24.667 0 -37 -12.333 -37 -37v-68h-95v71c0 81.333 40.667 122 122 122h32c81.333 0 122 -40.667 122 -122v-433h-99v35
c-32 -27.333 -63.667 -41 -95 -41h-1c-58 0 -87 31 -87 93zM216 699.001l66 -110h-66l-41 49l-41 -49h-66l66 110h82zM156 85.001c17.333 0 34.667 5.33301 52 16v159l-55 -21c-11.333 -5.33301 -19 -11 -23 -17s-6 -15.333 -6 -28v-78c0 -20.667 10.667 -31 32 -31z" />
    <glyph glyph-name="atilde" unicode="&#xe3;" horiz-adv-x="336" 
d="M26 87v111.001c0 32 5.66699 56.167 17 72.5s31.333 29.166 60 38.499l105 36v85c0 24.667 -12.333 37 -37 37h-7c-24.667 0 -37 -12.333 -37 -37v-68h-95v71c0 81.333 40.667 122 122 122h32c81.333 0 122 -40.667 122 -122v-433h-99v35
c-32 -27.333 -63.667 -41 -95 -41h-1c-58 0 -87 31 -87 93zM112 699.001h8c18 0 34 -5 48 -15l27 -19c10 -7.33301 17.333 -11 22 -11c6.66699 0 10 4 10 12v33h59v-59c0 -34 -16 -51 -48 -51h-8c-17.333 0 -33 5 -47 15l-28 20c-10.667 6.66699 -18 10 -22 10
c-6.66699 0 -10 -4 -10 -12v-33h-59v59c0 34 16 51 48 51zM156 85.001c17.333 0 34.667 5.33301 52 16v159l-55 -21c-11.333 -5.33301 -19 -11 -23 -17s-6 -15.333 -6 -28v-78c0 -20.667 10.667 -31 32 -31z" />
    <glyph glyph-name="adieresis" unicode="&#xe4;" horiz-adv-x="336" 
d="M26 87v111.001c0 32 5.66699 56.167 17 72.5s31.333 29.166 60 38.499l105 36v85c0 24.667 -12.333 37 -37 37h-7c-24.667 0 -37 -12.333 -37 -37v-68h-95v71c0 81.333 40.667 122 122 122h32c81.333 0 122 -40.667 122 -122v-433h-99v35
c-32 -27.333 -63.667 -41 -95 -41h-1c-58 0 -87 31 -87 93zM156 85.001c17.333 0 34.667 5.33301 52 16v159l-55 -21c-11.333 -5.33301 -19 -11 -23 -17s-6 -15.333 -6 -28v-78c0 -20.667 10.667 -31 32 -31zM195.001 589.001v103h83v-103h-83zM155.001 692.001v-103h-83
v103h83z" />
    <glyph glyph-name="aring" unicode="&#xe5;" horiz-adv-x="336" 
d="M26 87v111.001c0 32 5.66699 56.167 17 72.5s31.333 29.166 60 38.499l105 36v85c0 24.667 -12.333 37 -37 37h-7c-24.667 0 -37 -12.333 -37 -37v-68h-95v71c0 81.333 40.667 122 122 122h32c81.333 0 122 -40.667 122 -122v-433h-99v35
c-32 -27.333 -63.667 -41 -95 -41h-1c-58 0 -87 31 -87 93zM261 647.001v-6c0 -36.667 -21.667 -55 -65 -55h-42c-43.333 0 -65 18.333 -65 55v6c0 36.667 21.667 55 65 55h42c43.333 0 65 -18.333 65 -55zM156 85.001c17.333 0 34.667 5.33301 52 16v159l-55 -21
c-11.333 -5.33301 -19 -11 -23 -17s-6 -15.333 -6 -28v-78c0 -20.667 10.667 -31 32 -31zM236.001 641.001v6c0 22 -14 33 -42 33h-38c-28 0 -42 -11 -42 -33v-6c0 -22 14.333 -33 43 -33h37c28 0 42 11 42 33z" />
    <glyph glyph-name="ae" unicode="&#xe6;" horiz-adv-x="517" 
d="M339 555h29.999c81.333 0 122 -40.667 122 -122v-198h-183v-114c0 -24.667 12 -37 36 -37h13c24.667 0 37 12.333 37 37v62h97v-67c0 -81.333 -40.667 -122 -122 -122h-39c-50.667 0 -85.667 15.667 -105 47l-11 -8l-33 -20.5
c-7.33301 -4.33301 -17.166 -8.5 -29.499 -12.5s-24.833 -6 -37.5 -6h-1c-58 0 -87 31 -87 93v115c0 32 5.66699 56 17 72s31.333 28.667 60 38l105 36v82c0 24.667 -12.333 37 -37 37h-7c-24.667 0 -37 -12.333 -37 -37v-68h-95v71c0 81.333 40.667 122 122 122h23
c35.333 0 62.333 -11 81 -33c17.333 22 44.333 33 81 33zM155.999 85c17.333 0 34.667 5.33301 52 16v162l-55 -21c-10.667 -4.66699 -18.167 -10.167 -22.5 -16.5s-6.5 -15.833 -6.5 -28.5v-81c0 -20.667 10.667 -31 32 -31zM308 429v-108h84v108
c0 24.667 -12.333 37 -37 37h-11c-24 0 -36 -12.333 -36 -37z" />
    <glyph glyph-name="ccedilla" unicode="&#xe7;" horiz-adv-x="338" 
d="M213 334v93c0 24.667 -12.333 37 -37 37h-12c-24 0 -36 -12.333 -36 -37v-305c0 -24.667 12 -37 36 -37h13c24.667 0 37 12.333 37 37v111h99v-117c0 -76.667 -36.333 -117 -109 -121l-19 -93h-89l42 92c-74 4 -111 44.667 -111 122v317c0 81.333 40.667 122 122 122h42
c80.667 0 121 -40.333 121 -121v-100h-99z" />
    <glyph glyph-name="egrave" unicode="&#xe8;" horiz-adv-x="336" 
d="M310 235h-183v-114c0 -24.667 12 -37 36 -37h13c24.667 0 37 12.333 37 37v58h97v-63c0 -81.333 -40.667 -122 -122 -122h-39c-81.333 0 -122 40.667 -122 122v317c0 81.333 40.667 122 122 122h39c81.333 0 122 -40.667 122 -122v-198zM127 429v-108h84v108
c0 24.667 -12.333 37 -37 37h-11c-24 0 -36 -12.333 -36 -37zM169 699l37 -110h-71l-67 110h101z" />
    <glyph glyph-name="eacute" unicode="&#xe9;" horiz-adv-x="336" 
d="M310 235h-183v-114c0 -24.667 12 -37 36 -37h13c24.667 0 37 12.333 37 37v58h97v-63c0 -81.333 -40.667 -122 -122 -122h-39c-81.333 0 -122 40.667 -122 122v317c0 81.333 40.667 122 122 122h39c81.333 0 122 -40.667 122 -122v-198zM127 429v-108h84v108
c0 24.667 -12.333 37 -37 37h-11c-24 0 -36 -12.333 -36 -37zM132 589l37 110h101l-67 -110h-71z" />
    <glyph glyph-name="ecircumflex" unicode="&#xea;" horiz-adv-x="336" 
d="M310 235h-183v-114c0 -24.667 12 -37 36 -37h13c24.667 0 37 12.333 37 37v58h97v-63c0 -81.333 -40.667 -122 -122 -122h-39c-81.333 0 -122 40.667 -122 122v317c0 81.333 40.667 122 122 122h39c81.333 0 122 -40.667 122 -122v-198zM210 699l66 -110h-66l-41 49
l-41 -49h-66l66 110h82zM127 429v-108h84v108c0 24.667 -12.333 37 -37 37h-11c-24 0 -36 -12.333 -36 -37z" />
    <glyph glyph-name="edieresis" unicode="&#xeb;" horiz-adv-x="336" 
d="M310 235h-183v-114c0 -24.667 12 -37 36 -37h13c24.667 0 37 12.333 37 37v58h97v-63c0 -81.333 -40.667 -122 -122 -122h-39c-81.333 0 -122 40.667 -122 122v317c0 81.333 40.667 122 122 122h39c81.333 0 122 -40.667 122 -122v-198zM127 429v-108h84v108
c0 24.667 -12.333 37 -37 37h-11c-24 0 -36 -12.333 -36 -37zM149 692v-103h-83v103h83zM189 589v103h83v-103h-83z" />
    <glyph glyph-name="igrave" unicode="&#xec;" horiz-adv-x="164" 
d="M31 0v549h101v-549h-101zM82 699l37 -110h-71l-67 110h101z" />
    <glyph glyph-name="iacute" unicode="&#xed;" horiz-adv-x="164" 
d="M45 589l37 110h101l-67 -110h-71zM31 0v549h101v-549h-101z" />
    <glyph glyph-name="icircumflex" unicode="&#xee;" horiz-adv-x="164" 
d="M123 699l66 -110h-66l-41 49l-41 -49h-66l66 110h82zM31 0v549h101v-549h-101z" />
    <glyph glyph-name="idieresis" unicode="&#xef;" horiz-adv-x="164" 
d="M102 589v103h83v-103h-83zM62 692v-103h-83v103h83zM31 0v549h101v-549h-101z" />
    <glyph glyph-name="eth" unicode="&#xf0;" horiz-adv-x="346" 
d="M314 710l-42 -67c30.667 -20 46 -51 46 -93v-434c0 -81.333 -40.667 -122 -122 -122h-47c-81.333 0 -122 40.667 -122 122v334c0 32 8.16699 57 24.5 75s39.5 27 69.5 27h1c37.333 0 70.666 -13 99.999 -39v24c0 14 -2.66699 24.333 -8 31s-15.666 13 -30.999 19l-94 41
l41 80l82 -36l22 38h80zM180 464h-16c-24 0 -36 -12.333 -36 -37v-305c0 -24.667 12 -37 36 -37h16c24.667 0 37 12.333 37 37v305c0 24.667 -12.333 37 -37 37z" />
    <glyph glyph-name="ntilde" unicode="&#xf1;" horiz-adv-x="346" 
d="M29 0v549h100v-36c31.333 28 63.333 42 96 42h5c58.667 0 88 -31.333 88 -94v-461h-101v431c0 21.333 -11 32 -33 32c-16.667 0 -34.667 -5.66699 -54 -17v-446h-101zM111 699h8c18 0 34 -5 48 -15l27 -19c10 -7.33301 17.333 -11 22 -11c6.66699 0 10 4 10 12v33h59v-59
c0 -34 -16 -51 -48 -51h-8c-17.333 0 -33 5 -47 15l-28 20c-10.667 6.66699 -18 10 -22 10c-6.66699 0 -10 -4 -10 -12v-33h-59v59c0 34 16 51 48 51z" />
    <glyph glyph-name="ograve" unicode="&#xf2;" horiz-adv-x="344" 
d="M180 464h-16c-24 0 -36 -12.333 -36 -37v-305c0 -24.667 12 -37 36 -37h16c24.667 0 37 12.333 37 37v305c0 24.667 -12.333 37 -37 37zM196 -6h-47c-81.333 0 -122 40.667 -122 122v317c0 81.333 40.667 122 122 122h47c81.333 0 122 -40.667 122 -122v-317
c0 -81.333 -40.667 -122 -122 -122zM173 699l37 -110h-71l-67 110h101z" />
    <glyph glyph-name="oacute" unicode="&#xf3;" horiz-adv-x="344" 
d="M136 589l37 110h101l-67 -110h-71zM180 464h-16c-24 0 -36 -12.333 -36 -37v-305c0 -24.667 12 -37 36 -37h16c24.667 0 37 12.333 37 37v305c0 24.667 -12.333 37 -37 37zM196 -6h-47c-81.333 0 -122 40.667 -122 122v317c0 81.333 40.667 122 122 122h47
c81.333 0 122 -40.667 122 -122v-317c0 -81.333 -40.667 -122 -122 -122z" />
    <glyph glyph-name="ocircumflex" unicode="&#xf4;" horiz-adv-x="344" 
d="M214 699l66 -110h-66l-41 49l-41 -49h-66l66 110h82zM180 464h-16c-24 0 -36 -12.333 -36 -37v-305c0 -24.667 12 -37 36 -37h16c24.667 0 37 12.333 37 37v305c0 24.667 -12.333 37 -37 37zM196 -6h-47c-81.333 0 -122 40.667 -122 122v317c0 81.333 40.667 122 122 122
h47c81.333 0 122 -40.667 122 -122v-317c0 -81.333 -40.667 -122 -122 -122z" />
    <glyph glyph-name="otilde" unicode="&#xf5;" horiz-adv-x="344" 
d="M196 -6h-47c-81.333 0 -122 40.667 -122 122v317c0 81.333 40.667 122 122 122h47c81.333 0 122 -40.667 122 -122v-317c0 -81.333 -40.667 -122 -122 -122zM180 464h-16c-24 0 -36 -12.333 -36 -37v-305c0 -24.667 12 -37 36 -37h16c24.667 0 37 12.333 37 37v305
c0 24.667 -12.333 37 -37 37zM110 699h8c18 0 34 -5 48 -15l27 -19c10 -7.33301 17.333 -11 22 -11c6.66699 0 10 4 10 12v33h59v-59c0 -34 -16 -51 -48 -51h-8c-17.333 0 -33 5 -47 15l-28 20c-10.667 6.66699 -18 10 -22 10c-6.66699 0 -10 -4 -10 -12v-33h-59v59
c0 34 16 51 48 51z" />
    <glyph glyph-name="odieresis" unicode="&#xf6;" horiz-adv-x="344" 
d="M193 589v103h83v-103h-83zM153 692v-103h-83v103h83zM180 464h-16c-24 0 -36 -12.333 -36 -37v-305c0 -24.667 12 -37 36 -37h16c24.667 0 37 12.333 37 37v305c0 24.667 -12.333 37 -37 37zM196 -6h-47c-81.333 0 -122 40.667 -122 122v317c0 81.333 40.667 122 122 122
h47c81.333 0 122 -40.667 122 -122v-317c0 -81.333 -40.667 -122 -122 -122z" />
    <glyph glyph-name="divide" unicode="&#xf7;" horiz-adv-x="314" 
d="M10 394h294v-77h-294v77zM115 434v85h84v-85h-84zM115 192v85h84v-85h-84z" />
    <glyph glyph-name="oslash" unicode="&#xf8;" horiz-adv-x="344" 
d="M196 -6h-47c-81.333 0 -122 40.667 -122 122v317c0 81.333 40.667 122 122 122h47c81.333 0 122 -40.667 122 -122v-317c0 -81.333 -40.667 -122 -122 -122zM180 85c24.667 0 37 12.333 37 37l2 243l-84 -271c6 -6 15.667 -9 29 -9h16zM180 464h-16
c-24.667 0 -37 -12.333 -37 -37l-1 -239l82 266c-6 6.66699 -15.333 10 -28 10z" />
    <glyph glyph-name="ugrave" unicode="&#xf9;" horiz-adv-x="346" 
d="M317 549v-549h-100v36c-30.667 -28 -62.667 -42 -96 -42h-4c-59.333 0 -89 31.333 -89 94v461h101v-431c0 -21.333 11 -32 33 -32c17.333 0 35.333 5.66699 54 17v446h101zM173 699l37 -110h-71l-67 110h101z" />
    <glyph glyph-name="uacute" unicode="&#xfa;" horiz-adv-x="346" 
d="M136 589l37 110h101l-67 -110h-71zM317 549v-549h-100v36c-30.667 -28 -62.667 -42 -96 -42h-4c-59.333 0 -89 31.333 -89 94v461h101v-431c0 -21.333 11 -32 33 -32c17.333 0 35.333 5.66699 54 17v446h101z" />
    <glyph glyph-name="ucircumflex" unicode="&#xfb;" horiz-adv-x="346" 
d="M214 699l66 -110h-66l-41 49l-41 -49h-66l66 110h82zM317 549v-549h-100v36c-30.667 -28 -62.667 -42 -96 -42h-4c-59.333 0 -89 31.333 -89 94v461h101v-431c0 -21.333 11 -32 33 -32c17.333 0 35.333 5.66699 54 17v446h101z" />
    <glyph glyph-name="udieresis" unicode="&#xfc;" horiz-adv-x="346" 
d="M193 589v103h83v-103h-83zM153 692v-103h-83v103h83zM317 549v-549h-100v36c-30.667 -28 -62.667 -42 -96 -42h-4c-59.333 0 -89 31.333 -89 94v461h101v-431c0 -21.333 11 -32 33 -32c17.333 0 35.333 5.66699 54 17v446h101z" />
    <glyph glyph-name="yacute" unicode="&#xfd;" horiz-adv-x="327" 
d="M181 -110h-97l29 131l-104 528h101l53 -334l59 334h97zM128 589l37 110h101l-67 -110h-71z" />
    <glyph glyph-name="thorn" unicode="&#xfe;" horiz-adv-x="347" 
d="M29 710h101v-198c30 28.667 61.667 43 95 43h1c30 0 53.167 -9 69.5 -27s24.5 -43.333 24.5 -76v-355c0 -32.667 -8.16699 -58 -24.5 -76s-39.5 -27 -69.5 -27h-1c-34 0 -65.667 13.333 -95 40v-144h-101v820zM130 445v-341c16.667 -12 34.334 -18 53.001 -18
c24 0 36 11.333 36 34v309c0 22.667 -12 34 -36 34c-18.667 0 -36.334 -6 -53.001 -18z" />
    <glyph glyph-name="ydieresis" unicode="&#xff;" horiz-adv-x="327" 
d="M181 -110h-97l29 131l-104 528h101l53 -334l59 334h97zM185 589v103h83v-103h-83zM145 692v-103h-83v103h83z" />
    <glyph glyph-name="Amacron" unicode="&#x100;" horiz-adv-x="367" 
d="M254 701l101 -701h-106l-14 110h-111l-13 -110h-99l100 701h142zM180 555l-44 -350h87zM78 813h212v-65h-212v65z" />
    <glyph glyph-name="amacron" unicode="&#x101;" horiz-adv-x="336" 
d="M26 87v111.001c0 32 5.66699 56.167 17 72.5s31.333 29.166 60 38.499l105 36v85c0 24.667 -12.333 37 -37 37h-7c-24.667 0 -37 -12.333 -37 -37v-68h-95v71c0 81.333 40.667 122 122 122h32c81.333 0 122 -40.667 122 -122v-433h-99v35
c-32 -27.333 -63.667 -41 -95 -41h-1c-58 0 -87 31 -87 93zM69 672.001h212v-76h-212v76zM156 85.001c17.333 0 34.667 5.33301 52 16v159l-55 -21c-11.333 -5.33301 -19 -11 -23 -17s-6 -15.333 -6 -28v-78c0 -20.667 10.667 -31 32 -31z" />
    <glyph glyph-name="Abreve" unicode="&#x102;" horiz-adv-x="367" 
d="M254 701l101 -701h-106l-14 110h-111l-13 -110h-99l100 701h142zM180 555l-44 -350h87zM84 816v18h66v-12c0 -16 9.33301 -24 28 -24h12c18.667 0 28 8 28 24v12h66v-18c0 -52 -27.667 -78 -83 -78h-34c-55.333 0 -83 26 -83 78z" />
    <glyph glyph-name="abreve" unicode="&#x103;" horiz-adv-x="336" 
d="M26 87v111.001c0 32 5.66699 56.167 17 72.5s31.333 29.166 60 38.499l105 36v85c0 24.667 -12.333 37 -37 37h-7c-24.667 0 -37 -12.333 -37 -37v-68h-95v71c0 81.333 40.667 122 122 122h32c81.333 0 122 -40.667 122 -122v-433h-99v35
c-32 -27.333 -63.667 -41 -95 -41h-1c-58 0 -87 31 -87 93zM77 672.001v27h66v-25c0 -18 9.33301 -27 28 -27h8c18.667 0 28 9 28 27v25h66v-27c0 -57.333 -27.667 -86 -83 -86h-30c-55.333 0 -83 28.667 -83 86zM156 85.001c17.333 0 34.667 5.33301 52 16v159l-55 -21
c-11.333 -5.33301 -19 -11 -23 -17s-6 -15.333 -6 -28v-78c0 -20.667 10.667 -31 32 -31z" />
    <glyph glyph-name="Aogonek" unicode="&#x104;" horiz-adv-x="367" 
d="M254 701l101 -701h-16l-8 -14c-6.66699 -11.333 -10 -20.333 -10 -27c0 -6 3.33301 -9 10 -9h27v-56h-53c-35.333 0 -53 15.333 -53 46v6c0 14 6.66699 31.333 20 52l1 2h-24l-14 110h-111l-13 -110h-99l100 701h142zM180 555l-44 -350h87z" />
    <glyph glyph-name="aogonek" unicode="&#x105;" horiz-adv-x="336" 
d="M26 87v111.001c0 32 5.66699 56.167 17 72.5s31.333 29.166 60 38.499l105 36v85c0 24.667 -12.333 37 -37 37h-7c-24.667 0 -37 -12.333 -37 -37v-68h-95v71c0 81.333 40.667 122 122 122h32c81.333 0 122 -40.667 122 -122v-433h-13l-8 -14
c-6.66699 -11.333 -10 -20.333 -10 -27c0 -6 3.33301 -9 10 -9h27v-56h-53c-35.333 0 -53 15.333 -53 46v6c0 14 6.66699 31.333 20 52l1 2h-20v35c-32 -27.333 -63.667 -41 -95 -41h-1c-58 0 -87 31 -87 93zM156 85.001c17.333 0 34.667 5.33301 52 16v159l-55 -21
c-11.333 -5.33301 -19 -11 -23 -17s-6 -15.333 -6 -28v-78c0 -20.667 10.667 -31 32 -31z" />
    <glyph glyph-name="Cacute" unicode="&#x106;" horiz-adv-x="371" 
d="M238 287h105v-163c0 -86.667 -43.333 -130 -130 -130h-53c-86.667 0 -130 43.333 -130 130v452c0 86.667 43.333 130 130 130h52c86 0 129 -43 129 -129v-143h-105v137c0 27.333 -13.333 41 -40 41h-18c-27.333 0 -41 -13.667 -41 -41v-442c0 -27.333 13.667 -41 41 -41
h20c26.667 0 40 13.667 40 41v158zM150 741l43 89h101l-73 -89h-71z" />
    <glyph glyph-name="cacute" unicode="&#x107;" horiz-adv-x="338" 
d="M133 589l37 110h101l-67 -110h-71zM213 334v93c0 24.667 -12.333 37 -37 37h-12c-24 0 -36 -12.333 -36 -37v-305c0 -24.667 12 -37 36 -37h13c24.667 0 37 12.333 37 37v111h99v-117c0 -81.333 -40.667 -122 -122 -122h-42c-81.333 0 -122 40.667 -122 122v317
c0 81.333 40.667 122 122 122h42c80.667 0 121 -40.333 121 -121v-100h-99z" />
    <glyph glyph-name="Cdotaccent" unicode="&#x10a;" horiz-adv-x="371" 
d="M232 819v-78h-90v78h90zM238 287h105v-163c0 -86.667 -43.333 -130 -130 -130h-53c-86.667 0 -130 43.333 -130 130v452c0 86.667 43.333 130 130 130h52c86 0 129 -43 129 -129v-143h-105v137c0 27.333 -13.333 41 -40 41h-18c-27.333 0 -41 -13.667 -41 -41v-442
c0 -27.333 13.667 -41 41 -41h20c26.667 0 40 13.667 40 41v158z" />
    <glyph glyph-name="cdotaccent" unicode="&#x10b;" horiz-adv-x="338" 
d="M213 334v93c0 24.667 -12.333 37 -37 37h-12c-24 0 -36 -12.333 -36 -37v-305c0 -24.667 12 -37 36 -37h13c24.667 0 37 12.333 37 37v111h99v-117c0 -81.333 -40.667 -122 -122 -122h-42c-81.333 0 -122 40.667 -122 122v317c0 81.333 40.667 122 122 122h42
c80.667 0 121 -40.333 121 -121v-100h-99zM214 688v-99h-88v99h88z" />
    <glyph glyph-name="Ccaron" unicode="&#x10c;" horiz-adv-x="371" 
d="M238 287h105v-163c0 -86.667 -43.333 -130 -130 -130h-53c-86.667 0 -130 43.333 -130 130v452c0 86.667 43.333 130 130 130h52c86 0 129 -43 129 -129v-143h-105v137c0 27.333 -13.333 41 -40 41h-18c-27.333 0 -41 -13.667 -41 -41v-442c0 -27.333 13.667 -41 41 -41
h20c26.667 0 40 13.667 40 41v158zM298 838l-70 -97h-82l-70 97h66l45 -40l45 40h66z" />
    <glyph glyph-name="ccaron" unicode="&#x10d;" horiz-adv-x="338" 
d="M277 699l-66 -110h-82l-66 110h66l41 -49l41 49h66zM213 334v93c0 24.667 -12.333 37 -37 37h-12c-24 0 -36 -12.333 -36 -37v-305c0 -24.667 12 -37 36 -37h13c24.667 0 37 12.333 37 37v111h99v-117c0 -81.333 -40.667 -122 -122 -122h-42
c-81.333 0 -122 40.667 -122 122v317c0 81.333 40.667 122 122 122h42c80.667 0 121 -40.333 121 -121v-100h-99z" />
    <glyph glyph-name="Dcaron" unicode="&#x10e;" horiz-adv-x="376" 
d="M293 838l-70 -97h-82l-70 97h66l45 -40l45 40h66zM32 0v700h161c102 0 153 -51 153 -153v-394c0 -102 -51 -153 -153 -153h-161zM139 606v-512h39c40.667 0 61 20.667 61 62v388c0 41.333 -20.333 62 -61 62h-39z" />
    <glyph glyph-name="dcaron" unicode="&#x10f;" horiz-adv-x="347" 
d="M344 588v122h72l-30 -122h-42zM318 710v-710h-100v37c-30 -28.667 -61.667 -43 -95 -43h-1c-30.667 0 -54.167 9 -70.5 27s-24.5 43.333 -24.5 76v355c0 32.667 8.16699 58 24.5 76s39.833 27 70.5 27h1c32.667 0 64 -13 94 -39v194h101zM217 104v341
c-16.667 12 -34.334 18 -53.001 18c-24 0 -36 -11.333 -36 -34v-309c0 -22.667 12 -34 36 -34c18.667 0 36.334 6 53.001 18z" />
    <glyph glyph-name="Dcroat" unicode="&#x110;" horiz-adv-x="388" 
d="M44 0v312h-42v86h42v302h161c102 0 153 -51 153 -153v-394c0 -102 -51 -153 -153 -153h-161zM151 606v-208h60v-86h-60v-218h39c40.667 0 61 20.667 61 62v388c0 41.333 -20.333 62 -61 62h-39z" />
    <glyph glyph-name="dcroat" unicode="&#x111;" horiz-adv-x="360" 
d="M318 710v-59h35v-66h-35v-585h-100v37c-30 -28.667 -61.667 -43 -95 -43h-1c-30.667 0 -54.167 9 -70.5 27s-24.5 43.333 -24.5 76v355c0 32.667 8.16699 58 24.5 76s39.833 27 70.5 27h1c32.667 0 64 -13 94 -39v69h-86v66h86v59h101zM217 104v341
c-16.667 12 -34.334 18 -53.001 18c-24 0 -36 -11.333 -36 -34v-309c0 -22.667 12 -34 36 -34c18.667 0 36.334 6 53.001 18z" />
    <glyph glyph-name="Emacron" unicode="&#x112;" horiz-adv-x="297" 
d="M46 813h212v-65h-212v65zM32 700h238v-97h-131v-198h126v-97h-126v-211h133v-97h-240v700z" />
    <glyph glyph-name="emacron" unicode="&#x113;" horiz-adv-x="336" 
d="M310 235h-183v-114c0 -24.667 12 -37 36 -37h13c24.667 0 37 12.333 37 37v58h97v-63c0 -81.333 -40.667 -122 -122 -122h-39c-81.333 0 -122 40.667 -122 122v317c0 81.333 40.667 122 122 122h39c81.333 0 122 -40.667 122 -122v-198zM63 672h212v-76h-212v76zM127 429
v-108h84v108c0 24.667 -12.333 37 -37 37h-11c-24 0 -36 -12.333 -36 -37z" />
    <glyph glyph-name="Ebreve" unicode="&#x114;" horiz-adv-x="297" 
d="M52 816v18h66v-12c0 -16 9.33301 -24 28 -24h12c18.667 0 28 8 28 24v12h66v-18c0 -52 -27.667 -78 -83 -78h-34c-55.333 0 -83 26 -83 78zM32 700h238v-97h-131v-198h126v-97h-126v-211h133v-97h-240v700z" />
    <glyph glyph-name="ebreve" unicode="&#x115;" horiz-adv-x="336" 
d="M310 235h-183v-114c0 -24.667 12 -37 36 -37h13c24.667 0 37 12.333 37 37v58h97v-63c0 -81.333 -40.667 -122 -122 -122h-39c-81.333 0 -122 40.667 -122 122v317c0 81.333 40.667 122 122 122h39c81.333 0 122 -40.667 122 -122v-198zM71 672v27h66v-25
c0 -18 9.33301 -27 28 -27h8c18.667 0 28 9 28 27v25h66v-27c0 -57.333 -27.667 -86 -83 -86h-30c-55.333 0 -83 28.667 -83 86zM127 429v-108h84v108c0 24.667 -12.333 37 -37 37h-11c-24 0 -36 -12.333 -36 -37z" />
    <glyph glyph-name="Edotaccent" unicode="&#x116;" horiz-adv-x="297" 
d="M197 819v-78h-90v78h90zM32 700h238v-97h-131v-198h126v-97h-126v-211h133v-97h-240v700z" />
    <glyph glyph-name="edotaccent" unicode="&#x117;" horiz-adv-x="336" 
d="M310 235h-183v-114c0 -24.667 12 -37 36 -37h13c24.667 0 37 12.333 37 37v58h97v-63c0 -81.333 -40.667 -122 -122 -122h-39c-81.333 0 -122 40.667 -122 122v317c0 81.333 40.667 122 122 122h39c81.333 0 122 -40.667 122 -122v-198zM127 429v-108h84v108
c0 24.667 -12.333 37 -37 37h-11c-24 0 -36 -12.333 -36 -37zM213 688v-99h-88v99h88z" />
    <glyph glyph-name="Eogonek" unicode="&#x118;" horiz-adv-x="297" 
d="M32 700h238v-97h-131v-198h126v-97h-126v-211h133v-97h-18l-8 -14c-6.66699 -11.333 -10 -20.333 -10 -27c0 -6 3.33301 -9 10 -9h27v-56h-53c-35.333 0 -53 15.333 -53 46v6c0 14 6.66699 31.333 20 52l1 2h-156v700z" />
    <glyph glyph-name="eogonek" unicode="&#x119;" horiz-adv-x="336" 
d="M310 235l-183 -0.000976562v-114c0 -24.667 12 -37 36 -37h13c24.667 0 37 12.333 37 37v62h97v-67c0 -28 -4.66699 -50.667 -14 -68l-31 -62c-6 -11.333 -9 -20.333 -9 -27c0 -6 3.33301 -9 10 -9h26v-56h-52c-35.333 0 -53 15.333 -53 46v6
c0 12.667 5.66699 29.334 17 50.001c-24 -1.33301 -39.667 -2 -47 -2h-8c-81.333 0 -122 40.667 -122 122v317c0 81.333 40.667 122 122 122h39c81.333 0 122 -40.667 122 -122v-198zM127 428.999v-108h84v108c0 24.667 -12.333 37 -37 37h-11c-24 0 -36 -12.333 -36 -37z
" />
    <glyph glyph-name="Ecaron" unicode="&#x11a;" horiz-adv-x="297" 
d="M263 838l-70 -97h-82l-70 97h66l45 -40l45 40h66zM32 700h238v-97h-131v-198h126v-97h-126v-211h133v-97h-240v700z" />
    <glyph glyph-name="ecaron" unicode="&#x11b;" horiz-adv-x="336" 
d="M310 235h-183v-114c0 -24.667 12 -37 36 -37h13c24.667 0 37 12.333 37 37v58h97v-63c0 -81.333 -40.667 -122 -122 -122h-39c-81.333 0 -122 40.667 -122 122v317c0 81.333 40.667 122 122 122h39c81.333 0 122 -40.667 122 -122v-198zM276 699l-66 -110h-82l-66 110h66
l41 -49l41 49h66zM127 429v-108h84v108c0 24.667 -12.333 37 -37 37h-11c-24 0 -36 -12.333 -36 -37z" />
    <glyph glyph-name="Gbreve" unicode="&#x11e;" horiz-adv-x="376" 
d="M89 816v18h66v-12c0 -16 9.33301 -24 28 -24h12c18.667 0 28 8 28 24v12h66v-18c0 -52 -27.667 -78 -83 -78h-34c-55.333 0 -83 26 -83 78zM243 290h-56v92h160v-258c0 -86.667 -43.333 -130 -130 -130h-57c-86.667 0 -130 43.333 -130 130v452
c0 86.667 43.333 130 130 130h56c86 0 129 -43 129 -129v-113h-105v107c0 27.333 -13.333 41 -40 41h-22c-27.333 0 -41 -13.667 -41 -41v-442c0 -27.333 13.667 -41 41 -41h24c27.333 0 41 13.667 41 41v161z" />
    <glyph glyph-name="gbreve" unicode="&#x11f;" horiz-adv-x="347" 
d="M318 549v-546c0 -78 -39.333 -117 -118 -117h-65c-70.667 0 -106 35 -106 105v32h92v-24c0 -22 10.333 -33 31 -33h35c20.667 0 31 11 31 33v92c-30 -25.333 -61.667 -38 -95 -38h-1c-30.667 0 -54.167 9 -70.5 27s-24.5 43.333 -24.5 76v296
c0 32.667 8.16699 58 24.5 76s39.833 27 70.5 27h1c33.333 0 65 -13 95 -39v33h100zM217 160v285c-16.667 12 -34.334 18 -53.001 18c-24 0 -36 -11.333 -36 -34v-252c0 -22.667 12 -34 36 -34c18.667 0 36.334 5.66699 53.001 17zM82 672v27h66v-25
c0 -18 9.33301 -27 28 -27h8c18.667 0 28 9 28 27v25h66v-27c0 -57.333 -27.667 -86 -83 -86h-30c-55.333 0 -83 28.667 -83 86z" />
    <glyph glyph-name="Gdotaccent" unicode="&#x120;" horiz-adv-x="376" 
d="M234 819v-78h-90v78h90zM243 290h-56v92h160v-258c0 -86.667 -43.333 -130 -130 -130h-57c-86.667 0 -130 43.333 -130 130v452c0 86.667 43.333 130 130 130h56c86 0 129 -43 129 -129v-113h-105v107c0 27.333 -13.333 41 -40 41h-22c-27.333 0 -41 -13.667 -41 -41
v-442c0 -27.333 13.667 -41 41 -41h24c27.333 0 41 13.667 41 41v161z" />
    <glyph glyph-name="gdotaccent" unicode="&#x121;" horiz-adv-x="347" 
d="M318 549v-546c0 -78 -39.333 -117 -118 -117h-65c-70.667 0 -106 35 -106 105v32h92v-24c0 -22 10.333 -33 31 -33h35c20.667 0 31 11 31 33v92c-30 -25.333 -61.667 -38 -95 -38h-1c-30.667 0 -54.167 9 -70.5 27s-24.5 43.333 -24.5 76v296
c0 32.667 8.16699 58 24.5 76s39.833 27 70.5 27h1c33.333 0 65 -13 95 -39v33h100zM217 160v285c-16.667 12 -34.334 18 -53.001 18c-24 0 -36 -11.333 -36 -34v-252c0 -22.667 12 -34 36 -34c18.667 0 36.334 5.66699 53.001 17zM224 688v-99h-88v99h88z" />
    <glyph glyph-name="Gcommaaccent" unicode="&#x122;" horiz-adv-x="376" 
d="M243 290h-56v92h160v-258c0 -86.667 -43.333 -130 -130 -130h-57c-86.667 0 -130 43.333 -130 130v452c0 86.667 43.333 130 130 130h56c86 0 129 -43 129 -129v-113h-105v107c0 27.333 -13.333 41 -40 41h-22c-27.333 0 -41 -13.667 -41 -41v-442
c0 -27.333 13.667 -41 41 -41h24c27.333 0 41 13.667 41 41v161zM230 -41v-60c0 -22.667 -2.16699 -40 -6.5 -52s-13.5 -26.667 -27.5 -44l-20 -24l-28 18l14 22c10 16 15.667 30.333 17 43h-30v97h81z" />
    <glyph glyph-name="gcommaaccent" unicode="&#x123;" horiz-adv-x="347" 
d="M318 549v-546c0 -78 -39.333 -117 -118 -117h-65c-70.667 0 -106 35 -106 105v32h92v-24c0 -22 10.333 -33 31 -33h35c20.667 0 31 11 31 33v92c-30 -25.333 -61.667 -38 -95 -38h-1c-30.667 0 -54.167 9 -70.5 27s-24.5 43.333 -24.5 76v296
c0 32.667 8.16699 58 24.5 76s39.833 27 70.5 27h1c33.333 0 65 -13 95 -39v33h100zM217 160v285c-16.667 12 -34.334 18 -53.001 18c-24 0 -36 -11.333 -36 -34v-252c0 -22.667 12 -34 36 -34c18.667 0 36.334 5.66699 53.001 17zM139 590v59.999
c0 22.667 2.16699 40 6.5 52s13.5 26.667 27.5 44l20 24l28 -18l-14 -22c-10.667 -17.333 -16.667 -31.666 -18 -42.999h31v-97h-81z" />
    <glyph glyph-name="Hbar" unicode="&#x126;" horiz-adv-x="408" 
d="M2 516v86h42v98h107v-106h103v106h107v-98h45v-86h-45v-516h-107v308h-103v-308h-107v516h-42zM151 405h103v119h-103v-119z" />
    <glyph glyph-name="hbar" unicode="&#x127;" horiz-adv-x="359" 
d="M41 0l-0.000976562 585h-35v66h35v59h101v-59h87v-66h-87v-72c30.667 28 62.334 42 95.001 42h5c58.667 0 88 -31.333 88 -94v-461h-101v431c0 21.333 -11 32 -33 32c-16.667 0 -34.667 -5.66699 -54 -17v-446h-101z" />
    <glyph glyph-name="Imacron" unicode="&#x12a;" horiz-adv-x="173" 
d="M140 700v-700h-107v700h107zM-19 813h212v-65h-212v65z" />
    <glyph glyph-name="imacron" unicode="&#x12b;" horiz-adv-x="164" 
d="M31 0v549h101v-549h-101zM-24 672h212v-76h-212v76z" />
    <glyph glyph-name="Ibreve" unicode="&#x12c;" horiz-adv-x="173" 
d="M140 700v-700h-107v700h107zM-13 816v18h66v-12c0 -16 9.33301 -24 28 -24h12c18.667 0 28 8 28 24v12h66v-18c0 -52 -27.667 -78 -83 -78h-34c-55.333 0 -83 26 -83 78z" />
    <glyph glyph-name="ibreve" unicode="&#x12d;" horiz-adv-x="164" 
d="M31 0v549h101v-549h-101zM-16 672v27h66v-25c0 -18 9.33301 -27 28 -27h8c18.667 0 28 9 28 27v25h66v-27c0 -57.333 -27.667 -86 -83 -86h-30c-55.333 0 -83 28.667 -83 86z" />
    <glyph glyph-name="Iogonek" unicode="&#x12e;" horiz-adv-x="173" 
d="M140 700v-700h-17l-8 -14c-6.66699 -11.333 -10 -20.333 -10 -27c0 -6 3.33301 -9 10 -9h27v-56h-53c-35.333 0 -53 15.333 -53 46v6c0 14 6.66699 31.333 20 52l1 2h-24v700h107z" />
    <glyph glyph-name="iogonek" unicode="&#x12f;" horiz-adv-x="164" 
d="M31 0v549h101v-549h-14l-8 -14c-6.66699 -11.333 -10 -20.333 -10 -27c0 -6 3.33301 -9 10 -9h27v-56h-53c-35.333 0 -53 15.333 -53 46v6c0 14 6.66699 31.333 20 52l1 2h-21zM29 595v98h105v-98h-105z" />
    <glyph glyph-name="Idotaccent" unicode="&#x130;" horiz-adv-x="173" 
d="M140 700v-700h-107v700h107zM132 819v-78h-90v78h90z" />
    <glyph glyph-name="dotlessi" unicode="&#x131;" horiz-adv-x="164" 
d="M31 0v549h101v-549h-101z" />
    <glyph glyph-name="Kcommaaccent" unicode="&#x136;" horiz-adv-x="364" 
d="M358 0h-115l-104 343v-343h-107v700h107v-338l111 338h112l-120 -344zM220 -41v-60c0 -22.667 -2.16699 -40 -6.5 -52s-13.5 -26.667 -27.5 -44l-20 -24l-28 18l14 22c10 16 15.667 30.333 17 43h-30v97h81z" />
    <glyph glyph-name="kcommaaccent" unicode="&#x137;" horiz-adv-x="331" 
d="M223 549h106l-102 -269l98 -280h-108l-87 273v-273h-101v710h101v-428zM208 -41v-60c0 -22.667 -2.16699 -40 -6.5 -52s-13.5 -26.667 -27.5 -44l-20 -24l-28 18l14 22c10 16 15.667 30.333 17 43h-30v97h81z" />
    <glyph glyph-name="Lacute" unicode="&#x139;" horiz-adv-x="274" 
d="M50 741l43 89h101l-73 -89h-71zM42 700h107v-603h118v-97h-225v700z" />
    <glyph glyph-name="lacute" unicode="&#x13a;" horiz-adv-x="164" 
d="M46 739l37 110h101l-67 -110h-71zM31 0v710h101v-710h-101z" />
    <glyph glyph-name="Lcommaaccent" unicode="&#x13b;" horiz-adv-x="274" 
d="M42 700h107v-603h118v-97h-225v700zM186 -41v-60c0 -22.667 -2.16699 -40 -6.5 -52s-13.5 -26.667 -27.5 -44l-20 -24l-28 18l14 22c10 16 15.667 30.333 17 43h-30v97h81z" />
    <glyph glyph-name="lcommaaccent" unicode="&#x13c;" horiz-adv-x="164" 
d="M31 0v710h101v-710h-101zM123 -41v-60c0 -22.667 -2.16699 -40 -6.5 -52s-13.5 -26.667 -27.5 -44l-20 -24l-28 18l14 22c10 16 15.667 30.333 17 43h-30v97h81z" />
    <glyph glyph-name="Lcaron" unicode="&#x13d;" horiz-adv-x="274" 
d="M168 578v122h72l-30 -122h-42zM42 700h107v-603h118v-97h-225v700z" />
    <glyph glyph-name="lcaron" unicode="&#x13e;" horiz-adv-x="164" 
d="M159 588v122h72l-30 -122h-42zM31 0v710h101v-710h-101z" />
    <glyph glyph-name="Ldot" unicode="&#x13f;" horiz-adv-x="271" 
d="M254 401v-99h-72v99h72zM42 700h107v-603h118v-97h-225v700z" />
    <glyph glyph-name="ldot" unicode="&#x140;" horiz-adv-x="218" 
d="M224 405v-99h-66v99h66zM31 0v710h101v-710h-101z" />
    <glyph glyph-name="Lslash" unicode="&#x141;" horiz-adv-x="279" 
d="M46 700h107v-270l57 30v-86l-57 -30v-247h118v-97h-225v287l-52 -27v86l52 27v327z" />
    <glyph glyph-name="lslash" unicode="&#x142;" horiz-adv-x="180" 
d="M39 0v282l-36 -26v83l36 24v347h101v-280l37 27v-83l-37 -25v-349h-101z" />
    <glyph glyph-name="Nacute" unicode="&#x143;" horiz-adv-x="384" 
d="M157 741l43 89h101l-73 -89h-71zM257 265l-1 435h96v-700h-116l-109 472l1 -472h-96v700h125z" />
    <glyph glyph-name="nacute" unicode="&#x144;" horiz-adv-x="346" 
d="M137 589l37 110h101l-67 -110h-71zM29 0v549h100v-36c31.333 28 63.333 42 96 42h5c58.667 0 88 -31.333 88 -94v-461h-101v431c0 21.333 -11 32 -33 32c-16.667 0 -34.667 -5.66699 -54 -17v-446h-101z" />
    <glyph glyph-name="Ncommaaccent" unicode="&#x145;" horiz-adv-x="384" 
d="M257 265l-1 435h96v-700h-116l-109 472l1 -472h-96v700h125zM231 -41v-60c0 -22.667 -2.16699 -40 -6.5 -52s-13.5 -26.667 -27.5 -44l-20 -24l-28 18l14 22c10 16 15.667 30.333 17 43h-30v97h81z" />
    <glyph glyph-name="ncommaaccent" unicode="&#x146;" horiz-adv-x="346" 
d="M29 0v549h100v-36c31.333 28 63.333 42 96 42h5c58.667 0 88 -31.333 88 -94v-461h-101v431c0 21.333 -11 32 -33 32c-16.667 0 -34.667 -5.66699 -54 -17v-446h-101zM215 -41v-60c0 -22.667 -2.16699 -40 -6.5 -52s-13.5 -26.667 -27.5 -44l-20 -24l-28 18l14 22
c10 16 15.667 30.333 17 43h-30v97h81z" />
    <glyph glyph-name="Ncaron" unicode="&#x147;" horiz-adv-x="384" 
d="M305 838l-70 -97h-82l-70 97h66l45 -40l45 40h66zM257 265l-1 435h96v-700h-116l-109 472l1 -472h-96v700h125z" />
    <glyph glyph-name="ncaron" unicode="&#x148;" horiz-adv-x="346" 
d="M281 699l-66 -110h-82l-66 110h66l41 -49l41 49h66zM29 0v549h100v-36c31.333 28 63.333 42 96 42h5c58.667 0 88 -31.333 88 -94v-461h-101v431c0 21.333 -11 32 -33 32c-16.667 0 -34.667 -5.66699 -54 -17v-446h-101z" />
    <glyph glyph-name="Omacron" unicode="&#x14c;" horiz-adv-x="377" 
d="M83 813h212v-65h-212v65zM347 124c0 -86.667 -43.333 -130 -130 -130h-57c-86.667 0 -130 43.333 -130 130v452c0 86.667 43.333 130 130 130h57c86.667 0 130 -43.333 130 -130v-452zM240 571c0 27.333 -13.333 41 -40 41h-22c-27.333 0 -41 -13.667 -41 -41v-442
c0 -27.333 13.667 -41 41 -41h22c26.667 0 40 13.667 40 41v442z" />
    <glyph glyph-name="omacron" unicode="&#x14d;" horiz-adv-x="344" 
d="M67 672h212v-76h-212v76zM180 464h-16c-24 0 -36 -12.333 -36 -37v-305c0 -24.667 12 -37 36 -37h16c24.667 0 37 12.333 37 37v305c0 24.667 -12.333 37 -37 37zM196 -6h-47c-81.333 0 -122 40.667 -122 122v317c0 81.333 40.667 122 122 122h47
c81.333 0 122 -40.667 122 -122v-317c0 -81.333 -40.667 -122 -122 -122z" />
    <glyph glyph-name="Obreve" unicode="&#x14e;" horiz-adv-x="377" 
d="M89 816v18h66v-12c0 -16 9.33301 -24 28 -24h12c18.667 0 28 8 28 24v12h66v-18c0 -52 -27.667 -78 -83 -78h-34c-55.333 0 -83 26 -83 78zM347 124c0 -86.667 -43.333 -130 -130 -130h-57c-86.667 0 -130 43.333 -130 130v452c0 86.667 43.333 130 130 130h57
c86.667 0 130 -43.333 130 -130v-452zM240 571c0 27.333 -13.333 41 -40 41h-22c-27.333 0 -41 -13.667 -41 -41v-442c0 -27.333 13.667 -41 41 -41h22c26.667 0 40 13.667 40 41v442z" />
    <glyph glyph-name="obreve" unicode="&#x14f;" horiz-adv-x="344" 
d="M180 464h-16c-24 0 -36 -12.333 -36 -37v-305c0 -24.667 12 -37 36 -37h16c24.667 0 37 12.333 37 37v305c0 24.667 -12.333 37 -37 37zM196 -6h-47c-81.333 0 -122 40.667 -122 122v317c0 81.333 40.667 122 122 122h47c81.333 0 122 -40.667 122 -122v-317
c0 -81.333 -40.667 -122 -122 -122zM75 672v27h66v-25c0 -18 9.33301 -27 28 -27h8c18.667 0 28 9 28 27v25h66v-27c0 -57.333 -27.667 -86 -83 -86h-30c-55.333 0 -83 28.667 -83 86z" />
    <glyph glyph-name="Ohungarumlaut" unicode="&#x150;" horiz-adv-x="377" 
d="M347 124c0 -86.667 -43.333 -130 -130 -130h-57c-86.667 0 -130 43.333 -130 130v452c0 86.667 43.333 130 130 130h57c86.667 0 130 -43.333 130 -130v-452zM240 571c0 27.333 -13.333 41 -40 41h-22c-27.333 0 -41 -13.667 -41 -41v-442c0 -27.333 13.667 -41 41 -41
h22c26.667 0 40 13.667 40 41v442zM118 741l37 89h88l-72 -89h-53zM209 741l37 89h89l-72 -89h-54z" />
    <glyph glyph-name="ohungarumlaut" unicode="&#x151;" horiz-adv-x="344" 
d="M103 589l32 110h86l-66 -110h-52zM193 589l31 110h87l-66 -110h-52zM180 464h-16c-24 0 -36 -12.333 -36 -37v-305c0 -24.667 12 -37 36 -37h16c24.667 0 37 12.333 37 37v305c0 24.667 -12.333 37 -37 37zM196 -6h-47c-81.333 0 -122 40.667 -122 122v317
c0 81.333 40.667 122 122 122h47c81.333 0 122 -40.667 122 -122v-317c0 -81.333 -40.667 -122 -122 -122z" />
    <glyph glyph-name="OE" unicode="&#x152;" horiz-adv-x="502" 
d="M183 700h292v-97h-131v-198h126v-97h-126v-211h133v-97h-294c-102 0 -153 51 -153 153v394c0 102 51 153 153 153zM237 94v512h-39c-40.667 0 -61 -20.667 -61 -62v-388c0 -41.333 20.333 -62 61 -62h39z" />
    <glyph glyph-name="oe" unicode="&#x153;" horiz-adv-x="526" 
d="M348 555h30c81.333 0 122 -40.667 122 -122v-198h-183v-114c0 -24.667 12 -37 36 -37h13c24.667 0 37 12.333 37 37v58h97v-63c0 -81.333 -40.667 -122 -122 -122h-30c-36 0 -63 10.667 -81 32c-16.667 -21.333 -43.334 -32 -80.001 -32h-38
c-81.333 0 -122 40.667 -122 122v317c0 81.333 40.667 122 122 122h38c36.667 0 63.334 -11 80.001 -33c17.333 22 44.333 33 81 33zM181 463h-18c-23.333 0 -35 -11.667 -35 -35v-307c0 -23.333 11.667 -35 35 -35h18c23.333 0 35.333 11 36 33v309c0 23.333 -12 35 -36 35
zM317 429v-108h84v108c0 24.667 -12.333 37 -37 37h-11c-24 0 -36 -12.333 -36 -37z" />
    <glyph glyph-name="Racute" unicode="&#x154;" horiz-adv-x="369" 
d="M277 330c22 -6 37.833 -16.167 47.5 -30.5s14.5 -34.833 14.5 -61.5v-238h-107v236c0 30 -15 45 -45 45h-48v-281h-107v700h176c86.667 0 130 -43.333 130 -130v-132c0 -55.333 -20.333 -91.333 -61 -108zM231 565c0 26.667 -13.333 40 -40 40h-52v-231h48
c29.333 0 44 14.333 44 43v148zM145 741l43 89h101l-73 -89h-71z" />
    <glyph glyph-name="racute" unicode="&#x155;" horiz-adv-x="225" 
d="M81 589l37 110h101l-67 -110h-71zM29 0v549.001h100v-59c12 22.667 24.333 39 37 49s28.667 15 48 15v-112c-35.333 -2.66699 -63.333 -13.334 -84 -32.001v-410h-101z" />
    <glyph glyph-name="Rcommaaccent" unicode="&#x156;" horiz-adv-x="369" 
d="M277 330c22 -6 37.833 -16.167 47.5 -30.5s14.5 -34.833 14.5 -61.5v-238h-107v236c0 30 -15 45 -45 45h-48v-281h-107v700h176c86.667 0 130 -43.333 130 -130v-132c0 -55.333 -20.333 -91.333 -61 -108zM231 565c0 26.667 -13.333 40 -40 40h-52v-231h48
c29.333 0 44 14.333 44 43v148zM223 -41v-60c0 -22.667 -2.16699 -40 -6.5 -52s-13.5 -26.667 -27.5 -44l-20 -24l-28 18l14 22c10 16 15.667 30.333 17 43h-30v97h81z" />
    <glyph glyph-name="rcommaaccent" unicode="&#x157;" horiz-adv-x="225" 
d="M29 0v549.001h100v-59c12 22.667 24.333 39 37 49s28.667 15 48 15v-112c-35.333 -2.66699 -63.333 -13.334 -84 -32.001v-410h-101zM121 -40.999v-60c0 -22.667 -2.16699 -40 -6.5 -52s-13.5 -26.667 -27.5 -44l-20 -24l-28 18l14 22c10 16 15.667 30.333 17 43h-30v97
h81z" />
    <glyph glyph-name="Rcaron" unicode="&#x158;" horiz-adv-x="369" 
d="M293 838l-70 -97h-82l-70 97h66l45 -40l45 40h66zM277 330c22 -6 37.833 -16.167 47.5 -30.5s14.5 -34.833 14.5 -61.5v-238h-107v236c0 30 -15 45 -45 45h-48v-281h-107v700h176c86.667 0 130 -43.333 130 -130v-132c0 -55.333 -20.333 -91.333 -61 -108zM231 565
c0 26.667 -13.333 40 -40 40h-52v-231h48c29.333 0 44 14.333 44 43v148z" />
    <glyph glyph-name="rcaron" unicode="&#x159;" horiz-adv-x="225" 
d="M225 699l-66 -110h-82l-66 110h66l41 -49l41 49h66zM29 0v549.001h100v-59c12 22.667 24.333 39 37 49s28.667 15 48 15v-112c-35.333 -2.66699 -63.333 -13.334 -84 -32.001v-410h-101z" />
    <glyph glyph-name="Sacute" unicode="&#x15a;" horiz-adv-x="362" 
d="M273 359c23.333 -16.667 39.5 -33.832 48.5 -51.499s13.5 -40.834 13.5 -69.501v-114c0 -86.667 -43.333 -130 -130 -130h-47c-86 0 -129 43 -129 129v148h104v-144c0 -26.667 13.667 -40 41 -40h14c27.333 0 41 13.333 41 40v96c0 23.333 -10 42.333 -30 57l-108 79
c-23.333 16.667 -39.5 34 -48.5 52s-13.5 41 -13.5 69v96c0 86.667 43.333 130 130 130h45c86 0 129 -43 129 -129v-127h-105v123c0 26.667 -13.333 40 -40 40h-13c-26.667 0 -40 -13.333 -40 -40v-78c0 -24 10 -43 30 -57zM145 741.002l43 89h101l-73 -89h-71z" />
    <glyph glyph-name="sacute" unicode="&#x15b;" horiz-adv-x="330" 
d="M128 589l37 110h101l-67 -110h-71zM206 354v77c0 24 -12 36 -36 36h-11c-23.333 0 -35 -12 -35 -36v-43c0 -18 8 -32 24 -42l95 -60c22.667 -14 38.667 -28.5 48 -43.5s14 -35.167 14 -60.5v-66c0 -81.333 -40.667 -122 -122 -122h-36c-80.667 0 -121 40.333 -121 121v83
h98v-80c0 -24 11.667 -36 35 -36h13c24 0 36 12 36 36v46c0 18 -8 32.333 -24 43l-96 59c-22 14 -37.667 28.5 -47 43.5s-14 35.167 -14 60.5v63c0 81.333 40.667 122 122 122h34c80.667 0 121 -40.333 121 -121v-80h-98z" />
    <glyph glyph-name="Scedilla" unicode="&#x15e;" horiz-adv-x="362" 
d="M273 359c23.333 -16.667 39.5 -33.832 48.5 -51.499s13.5 -40.834 13.5 -69.501v-114c0 -82 -38.667 -125 -116 -129l-19 -93h-89l42 92c-82.667 2 -124 45 -124 129v148h104v-144c0 -26.667 13.667 -40 41 -40h14c27.333 0 41 13.333 41 40v96
c0 23.333 -10 42.333 -30 57l-108 79c-23.333 16.667 -39.5 34 -48.5 52s-13.5 41 -13.5 69v96c0 86.667 43.333 130 130 130h45c86 0 129 -43 129 -129v-127h-105v123c0 26.667 -13.333 40 -40 40h-13c-26.667 0 -40 -13.333 -40 -40v-78c0 -24 10 -43 30 -57z" />
    <glyph glyph-name="scedilla" unicode="&#x15f;" horiz-adv-x="330" 
d="M206 354v76.999c0 24 -12 36 -36 36h-11c-23.333 0 -35 -12 -35 -36v-43c0 -18 8 -32 24 -42l95 -60c22.667 -14 38.667 -28.5 48 -43.5s14 -35.167 14 -60.5v-66c0 -75.333 -35 -115.666 -105 -120.999l-19 -93h-89l42 93c-72 4 -108 44 -108 120v83h98v-80
c0 -24 11.667 -36 35 -36h13c24 0 36 12 36 36v46c0 18 -8 32.333 -24 43l-96 59c-22 14 -37.667 28.5 -47 43.5s-14 35.167 -14 60.5v63c0 81.333 40.667 122 122 122h34c80.667 0 121 -40.333 121 -121v-80h-98z" />
    <glyph glyph-name="Scaron" unicode="&#x160;" horiz-adv-x="362" 
d="M273 359c23.333 -16.667 39.5 -33.832 48.5 -51.499s13.5 -40.834 13.5 -69.501v-114c0 -86.667 -43.333 -130 -130 -130h-47c-86 0 -129 43 -129 129v148h104v-144c0 -26.667 13.667 -40 41 -40h14c27.333 0 41 13.333 41 40v96c0 23.333 -10 42.333 -30 57l-108 79
c-23.333 16.667 -39.5 34 -48.5 52s-13.5 41 -13.5 69v96c0 86.667 43.333 130 130 130h45c86 0 129 -43 129 -129v-127h-105v123c0 26.667 -13.333 40 -40 40h-13c-26.667 0 -40 -13.333 -40 -40v-78c0 -24 10 -43 30 -57zM293 838.002l-70 -97h-82l-70 97h66l45 -40l45 40
h66z" />
    <glyph glyph-name="scaron" unicode="&#x161;" horiz-adv-x="330" 
d="M272 699l-66 -110h-82l-66 110h66l41 -49l41 49h66zM206 354v77c0 24 -12 36 -36 36h-11c-23.333 0 -35 -12 -35 -36v-43c0 -18 8 -32 24 -42l95 -60c22.667 -14 38.667 -28.5 48 -43.5s14 -35.167 14 -60.5v-66c0 -81.333 -40.667 -122 -122 -122h-36
c-80.667 0 -121 40.333 -121 121v83h98v-80c0 -24 11.667 -36 35 -36h13c24 0 36 12 36 36v46c0 18 -8 32.333 -24 43l-96 59c-22 14 -37.667 28.5 -47 43.5s-14 35.167 -14 60.5v63c0 81.333 40.667 122 122 122h34c80.667 0 121 -40.333 121 -121v-80h-98z" />
    <glyph glyph-name="Tcommaaccent" unicode="&#x162;" horiz-adv-x="319" 
d="M213 0h-107v603h-96v97h299v-97h-96v-603zM201 -41v-60c0 -22.667 -2.16699 -40 -6.5 -52s-13.5 -26.667 -27.5 -44l-20 -24l-28 18l14 22c10 16 15.667 30.333 17 43h-30v97h81z" />
    <glyph glyph-name="tcommaaccent" unicode="&#x163;" horiz-adv-x="213" 
d="M151 461v-461h-101v461h-36v88h36v90h101v-90h53v-88h-53zM146 -41v-60c0 -22.667 -2.16699 -40 -6.5 -52s-13.5 -26.667 -27.5 -44l-20 -24l-28 18l14 22c10 16 15.667 30.333 17 43h-30v97h81z" />
    <glyph glyph-name="Tcaron" unicode="&#x164;" horiz-adv-x="319" 
d="M271 838l-70 -97h-82l-70 97h66l45 -40l45 40h66zM213 0h-107v603h-96v97h299v-97h-96v-603z" />
    <glyph glyph-name="tcaron" unicode="&#x165;" horiz-adv-x="213" 
d="M177 588v122h72l-30 -122h-42zM151 461v-461h-101v461h-36v88h36v90h101v-90h53v-88h-53z" />
    <glyph glyph-name="Umacron" unicode="&#x16a;" horiz-adv-x="374" 
d="M81 813h212v-65h-212v65zM343 700v-576c0 -86.667 -43.333 -130 -130 -130h-52c-86.667 0 -130 43.333 -130 130v576h107v-571c0 -27.333 13.667 -41 41 -41h17c26.667 0 40 13.667 40 41v571h107z" />
    <glyph glyph-name="umacron" unicode="&#x16b;" horiz-adv-x="346" 
d="M317 549v-549h-100v36c-30.667 -28 -62.667 -42 -96 -42h-4c-59.333 0 -89 31.333 -89 94v461h101v-431c0 -21.333 11 -32 33 -32c17.333 0 35.333 5.66699 54 17v446h101zM67 672h212v-76h-212v76z" />
    <glyph glyph-name="Ubreve" unicode="&#x16c;" horiz-adv-x="374" 
d="M87 814v18h66v-12c0 -16 9.33301 -24 28 -24h12c18.667 0 28 8 28 24v12h66v-18c0 -52 -27.667 -78 -83 -78h-34c-55.333 0 -83 26 -83 78zM343 700v-576c0 -86.667 -43.333 -130 -130 -130h-52c-86.667 0 -130 43.333 -130 130v576h107v-571
c0 -27.333 13.667 -41 41 -41h17c26.667 0 40 13.667 40 41v571h107z" />
    <glyph glyph-name="ubreve" unicode="&#x16d;" horiz-adv-x="346" 
d="M317 549v-549h-100v36c-30.667 -28 -62.667 -42 -96 -42h-4c-59.333 0 -89 31.333 -89 94v461h101v-431c0 -21.333 11 -32 33 -32c17.333 0 35.333 5.66699 54 17v446h101zM75 672v27h66v-25c0 -18 9.33301 -27 28 -27h8c18.667 0 28 9 28 27v25h66v-27
c0 -57.333 -27.667 -86 -83 -86h-30c-55.333 0 -83 28.667 -83 86z" />
    <glyph glyph-name="Uring" unicode="&#x16e;" horiz-adv-x="374" 
d="M343 700v-576c0 -86.667 -43.333 -130 -130 -130h-52c-86.667 0 -130 43.333 -130 130v576h107v-571c0 -27.333 13.667 -41 41 -41h17c26.667 0 40 13.667 40 41v571h107zM288 796v-5c0 -35.333 -21.667 -53 -65 -53h-72c-43.333 0 -65 17.667 -65 53v5
c0 35.333 21.667 53 65 53h72c43.333 0 65 -17.667 65 -53zM262 791v4c0 20.667 -13.667 31 -41 31h-68c-27.333 0 -41 -10.333 -41 -31v-4c0 -20.667 13.667 -31 41 -31h68c27.333 0 41 10.333 41 31z" />
    <glyph glyph-name="uring" unicode="&#x16f;" horiz-adv-x="346" 
d="M259 647v-6c0 -36.667 -21.667 -55 -65 -55h-42c-43.333 0 -65 18.333 -65 55v6c0 36.667 21.667 55 65 55h42c43.333 0 65 -18.333 65 -55zM234 641v6c0 22 -14 33 -42 33h-38c-28 0 -42 -11 -42 -33v-6c0 -22 14.333 -33 43 -33h37c28 0 42 11 42 33zM317 549v-549
h-100v36c-30.667 -28 -62.667 -42 -96 -42h-4c-59.333 0 -89 31.333 -89 94v461h101v-431c0 -21.333 11 -32 33 -32c17.333 0 35.333 5.66699 54 17v446h101z" />
    <glyph glyph-name="Uhungarumlaut" unicode="&#x170;" horiz-adv-x="374" 
d="M343 700v-576c0 -86.667 -43.333 -130 -130 -130h-52c-86.667 0 -130 43.333 -130 130v576h107v-571c0 -27.333 13.667 -41 41 -41h17c26.667 0 40 13.667 40 41v571h107zM116 741l37 89h88l-72 -89h-53zM207 741l37 89h89l-72 -89h-54z" />
    <glyph glyph-name="uhungarumlaut" unicode="&#x171;" horiz-adv-x="346" 
d="M317 549v-549h-100v36c-30.667 -28 -62.667 -42 -96 -42h-4c-59.333 0 -89 31.333 -89 94v461h101v-431c0 -21.333 11 -32 33 -32c17.333 0 35.333 5.66699 54 17v446h101zM103 589l32 110h86l-66 -110h-52zM193 589l31 110h87l-66 -110h-52z" />
    <glyph glyph-name="Uogonek" unicode="&#x172;" horiz-adv-x="374" 
d="M343 700v-576c0 -84.667 -41.333 -128 -124 -130l-5 -8c-6.66699 -11.333 -10 -20.333 -10 -27c0 -6 3.33301 -9 10 -9h27v-56h-53c-35.333 0 -53 15.333 -53 46v6c0 13.333 5.66699 29.333 17 48c-80.667 2.66699 -121 46 -121 130v576h107v-571
c0 -27.333 13.667 -41 41 -41h17c26.667 0 40 13.667 40 41v571h107z" />
    <glyph glyph-name="uogonek" unicode="&#x173;" horiz-adv-x="346" 
d="M317 549v-549h-13l-8 -14c-6.66699 -11.333 -10 -20.333 -10 -27c0 -6 3.33301 -9 10 -9h27v-56h-53c-35.333 0 -53 15.333 -53 46v6c0 14 6.66699 31.333 20 52l1 2h-21v36c-30.667 -28 -62.667 -42 -96 -42h-4c-59.333 0 -89 31.333 -89 94v461h101v-431
c0 -21.333 11 -32 33 -32c17.333 0 35.333 5.66699 54 17v446h101z" />
    <glyph glyph-name="Wcircumflex" unicode="&#x174;" horiz-adv-x="552" 
d="M102 0l-85 700h108l50 -494l54 494h103l54 -493l50 493h98l-85 -700h-126l-47 419l-47 -419h-127zM321 838l70 -97h-66l-45 39l-45 -39h-66l70 97h82z" />
    <glyph glyph-name="wcircumflex" unicode="&#x175;" horiz-adv-x="483" 
d="M288 699l66 -110h-66l-41 49l-41 -49h-66l66 110h82zM94 0l-82 549h100l39 -355l48 355h91l48 -354l39 354h94l-82 -549h-103l-43 319l-46 -319h-103z" />
    <glyph glyph-name="Ycircumflex" unicode="&#x176;" horiz-adv-x="345" 
d="M175 405l63 295h103l-115 -455v-245h-107v240l-115 460h110zM216 838l70 -97h-66l-45 39l-45 -39h-66l70 97h82z" />
    <glyph glyph-name="ycircumflex" unicode="&#x177;" horiz-adv-x="327" 
d="M181 -110h-97l29 131l-104 528h101l53 -334l59 334h97zM206 699l66 -110h-66l-41 49l-41 -49h-66l66 110h82z" />
    <glyph glyph-name="Ydieresis" unicode="&#x178;" horiz-adv-x="345" 
d="M175 405l63 295h103l-115 -455v-245h-107v240l-115 460h110zM195 741v82h85v-82h-85zM155 823v-82h-85v82h85z" />
    <glyph glyph-name="Zacute" unicode="&#x179;" horiz-adv-x="298" 
d="M175 604h-151v96h255v-105l-155 -499h155v-96h-260v105zM114 741l43 89h101l-73 -89h-71z" />
    <glyph glyph-name="zacute" unicode="&#x17a;" horiz-adv-x="277" 
d="M107 589l37 110h101l-67 -110h-71zM157 461h-136v88h240v-88l-142 -373h142v-88h-245v88z" />
    <glyph glyph-name="Zdotaccent" unicode="&#x17b;" horiz-adv-x="298" 
d="M196 819v-78h-90v78h90zM175 604h-151v96h255v-105l-155 -499h155v-96h-260v105z" />
    <glyph glyph-name="zdotaccent" unicode="&#x17c;" horiz-adv-x="277" 
d="M157 461h-136v88h240v-88l-142 -373h142v-88h-245v88zM188 688v-99h-88v99h88z" />
    <glyph glyph-name="Zcaron" unicode="&#x17d;" horiz-adv-x="298" 
d="M262 838l-70 -97h-82l-70 97h66l45 -40l45 40h66zM175 604h-151v96h255v-105l-155 -499h155v-96h-260v105z" />
    <glyph glyph-name="zcaron" unicode="&#x17e;" horiz-adv-x="277" 
d="M251 699l-66 -110h-82l-66 110h66l41 -49l41 49h66zM157 461h-136v88h240v-88l-142 -373h142v-88h-245v88z" />
    <glyph glyph-name="Aringacute" unicode="&#x1fa;" horiz-adv-x="367" 
d="M284 712v-5c0 -22 -8.33301 -37.333 -25 -46l96 -661h-106l-14 110h-111l-13 -110h-99l96 661c-17.333 8.66699 -26 24 -26 46v5c0 35.333 21.667 53 65 53h72c43.333 0 65 -17.667 65 -53zM180 556l-44 -351h87zM258 706v6c0 20 -13.333 30 -40 30h-69
c-27.333 0 -41 -10 -41 -30v-6c0 -20 13.667 -30 41 -30h69c26.667 0 40 10 40 30zM147 785l43 89h101l-73 -89h-71z" />
    <glyph glyph-name="aringacute" unicode="&#x1fb;" horiz-adv-x="336" 
d="M26 87v111.001c0 32 5.66699 56.167 17 72.5s31.333 29.166 60 38.499l105 36v85c0 24.667 -12.333 37 -37 37h-7c-24.667 0 -37 -12.333 -37 -37v-68h-95v71c0 81.333 40.667 122 122 122h32c81.333 0 122 -40.667 122 -122v-433h-99v35
c-32 -27.333 -63.667 -41 -95 -41h-1c-58 0 -87 31 -87 93zM256 647.001v-6c0 -36.667 -21.667 -55 -65 -55h-42c-43.333 0 -65 18.333 -65 55v6c0 36.667 21.667 55 65 55h42c43.333 0 65 -18.333 65 -55zM156 85.001c17.333 0 34.667 5.33301 52 16v159l-55 -21
c-11.333 -5.33301 -19 -11 -23 -17s-6 -15.333 -6 -28v-78c0 -20.667 10.667 -31 32 -31zM136.001 730.001l37 110h101l-67 -110h-71zM231.001 641.001v6c0 22 -14 33 -42 33h-38c-28 0 -42 -11 -42 -33v-6c0 -22 14.333 -33 43 -33h37c28 0 42 11 42 33z" />
    <glyph glyph-name="AEacute" unicode="&#x1fc;" horiz-adv-x="469" 
d="M136 700h308v-97h-131v-198h126v-97h-126v-211h133v-97h-240v110h-84l-18 -110h-99zM206 205v410l-68 -410h68zM226 741l43 89h101l-73 -89h-71z" />
    <glyph glyph-name="aeacute" unicode="&#x1fd;" horiz-adv-x="517" 
d="M339 555h29.999c81.333 0 122 -40.667 122 -122v-198h-183v-114c0 -24.667 12 -37 36 -37h13c24.667 0 37 12.333 37 37v62h97v-67c0 -81.333 -40.667 -122 -122 -122h-39c-50.667 0 -85.667 15.667 -105 47l-11 -8l-33 -20.5
c-7.33301 -4.33301 -17.166 -8.5 -29.499 -12.5s-24.833 -6 -37.5 -6h-1c-58 0 -87 31 -87 93v115c0 32 5.66699 56 17 72s31.333 28.667 60 38l105 36v82c0 24.667 -12.333 37 -37 37h-7c-24.667 0 -37 -12.333 -37 -37v-68h-95v71c0 81.333 40.667 122 122 122h23
c35.333 0 62.333 -11 81 -33c17.333 22 44.333 33 81 33zM155.999 85c17.333 0 34.667 5.33301 52 16v162l-55 -21c-10.667 -4.66699 -18.167 -10.167 -22.5 -16.5s-6.5 -15.833 -6.5 -28.5v-81c0 -20.667 10.667 -31 32 -31zM308 429v-108h84v108
c0 24.667 -12.333 37 -37 37h-11c-24 0 -36 -12.333 -36 -37zM221 589l37 110h101l-67 -110h-71z" />
    <glyph glyph-name="Oslashacute" unicode="&#x1fe;" horiz-adv-x="377" 
d="M347 124c0 -86.667 -43.333 -130 -130 -130h-57c-86.667 0 -130 43.333 -130 130v452c0 86.667 43.333 130 130 130h57c86.667 0 130 -43.333 130 -130v-452zM241 129l1 332l-99 -359c7.33301 -9.33301 19 -14 35 -14h21c28 0 42 13.667 42 41zM137 571l-3 -334l100 360
c-6 10 -17.333 15 -34 15h-22c-27.333 0 -41 -13.667 -41 -41zM152 741l43 89h101l-73 -89h-71z" />
    <glyph glyph-name="oslashacute" unicode="&#x1ff;" horiz-adv-x="344" 
d="M196 -6h-47c-81.333 0 -122 40.667 -122 122v317c0 81.333 40.667 122 122 122h47c81.333 0 122 -40.667 122 -122v-317c0 -81.333 -40.667 -122 -122 -122zM180 85c24.667 0 37 12.333 37 37l2 243l-84 -271c6 -6 15.667 -9 29 -9h16zM180 464h-16
c-24.667 0 -37 -12.333 -37 -37l-1 -239l82 266c-6 6.66699 -15.333 10 -28 10zM136 589l37 110h101l-67 -110h-71z" />
    <glyph glyph-name="Scommaaccent" unicode="&#x218;" horiz-adv-x="362" 
d="M273 359c23.333 -16.667 39.5 -33.832 48.5 -51.499s13.5 -40.834 13.5 -69.501v-114c0 -86.667 -43.333 -130 -130 -130h-47c-86 0 -129 43 -129 129v148h104v-144c0 -26.667 13.667 -40 41 -40h14c27.333 0 41 13.333 41 40v96c0 23.333 -10 42.333 -30 57l-108 79
c-23.333 16.667 -39.5 34 -48.5 52s-13.5 41 -13.5 69v96c0 86.667 43.333 130 130 130h45c86 0 129 -43 129 -129v-127h-105v123c0 26.667 -13.333 40 -40 40h-13c-26.667 0 -40 -13.333 -40 -40v-78c0 -24 10 -43 30 -57zM223 -40.998v-60
c0 -22.667 -2.16699 -40 -6.5 -52s-13.5 -26.667 -27.5 -44l-20 -24l-28 18l14 22c10 16 15.667 30.333 17 43h-30v97h81z" />
    <glyph glyph-name="scommaaccent" unicode="&#x219;" horiz-adv-x="330" 
d="M206 354v77c0 24 -12 36 -36 36h-11c-23.333 0 -35 -12 -35 -36v-43c0 -18 8 -32 24 -42l95 -60c22.667 -14 38.667 -28.5 48 -43.5s14 -35.167 14 -60.5v-66c0 -81.333 -40.667 -122 -122 -122h-36c-80.667 0 -121 40.333 -121 121v83h98v-80c0 -24 11.667 -36 35 -36
h13c24 0 36 12 36 36v46c0 18 -8 32.333 -24 43l-96 59c-22 14 -37.667 28.5 -47 43.5s-14 35.167 -14 60.5v63c0 81.333 40.667 122 122 122h34c80.667 0 121 -40.333 121 -121v-80h-98zM206 -41v-60c0 -22.667 -2.16699 -40 -6.5 -52s-13.5 -26.667 -27.5 -44l-20 -24
l-28 18l14 22c10 16 15.667 30.333 17 43h-30v97h81z" />
    <glyph glyph-name="schwa" unicode="&#x259;" horiz-adv-x="336" 
d="M26 116v198h183v114c0 24.667 -12 37 -36 37h-13c-24.667 0 -37 -12.333 -37 -37v-58h-97v63c0 81.333 40.667 122 122 122h39c81.333 0 122 -40.667 122 -122v-317c0 -81.333 -40.667 -122 -122 -122h-39c-81.333 0 -122 40.667 -122 122zM173 83c24 0 36 12.333 36 37
v108h-84v-108c0 -24.667 12.333 -37 37 -37h11z" />
    <glyph glyph-name="circumflex" unicode="&#x2c6;" 
d="M291 699l66 -110h-66l-41 49l-41 -49h-66l66 110h82z" />
    <glyph glyph-name="caron" unicode="&#x2c7;" 
d="M357 699l-66 -110h-82l-66 110h66l41 -49l41 49h66z" />
    <glyph glyph-name="breve" unicode="&#x2d8;" 
d="M152 672v27h66v-25c0 -18 9.33301 -27 28 -27h8c18.667 0 28 9 28 27v25h66v-27c0 -57.333 -27.667 -86 -83 -86h-30c-55.333 0 -83 28.667 -83 86z" />
    <glyph glyph-name="dotaccent" unicode="&#x2d9;" 
d="M294 688v-99h-88v99h88z" />
    <glyph glyph-name="ring" unicode="&#x2da;" 
d="M336 647v-6c0 -36.667 -21.667 -55 -65 -55h-42c-43.333 0 -65 18.333 -65 55v6c0 36.667 21.667 55 65 55h42c43.333 0 65 -18.333 65 -55zM311 641v6c0 22 -14 33 -42 33h-38c-28 0 -42 -11 -42 -33v-6c0 -22 14.333 -33 43 -33h37c28 0 42 11 42 33z" />
    <glyph glyph-name="ogonek" unicode="&#x2db;" 
d="M253 17h65l-19 -31c-6.66699 -11.333 -10 -20.333 -10 -27c0 -6 3.33301 -9 10 -9h27v-56h-53c-35.333 0 -53 15.333 -53 46v6c0 14 6.66699 31.333 20 52z" />
    <glyph glyph-name="tilde" unicode="&#x2dc;" 
d="M187 699h8c18 0 34 -5 48 -15l27 -19c10 -7.33301 17.333 -11 22 -11c6.66699 0 10 4 10 12v33h59v-59c0 -34 -16 -51 -48 -51h-8c-17.333 0 -33 5 -47 15l-28 20c-10.667 6.66699 -18 10 -22 10c-6.66699 0 -10 -4 -10 -12v-33h-59v59c0 34 16 51 48 51z" />
    <glyph glyph-name="hungarumlaut" unicode="&#x2dd;" 
d="M155 589l32 110h86l-66 -110h-52zM245 589l31 110h87l-66 -110h-52z" />
    <glyph glyph-name="commaaccent" unicode="&#x326;" 
d="M292 -41v-60c0 -22.667 -2.16699 -40 -6.5 -52s-13.5 -26.667 -27.5 -44l-20 -24l-28 18l14 22c10 16 15.667 30.333 17 43h-30v97h81z" />
    <glyph glyph-name="Wgrave" unicode="&#x1e80;" horiz-adv-x="552" 
d="M275 830l44 -89h-73l-74 89h103zM102 0l-85 700h108l50 -494l54 494h103l54 -493l50 493h98l-85 -700h-126l-47 419l-47 -419h-127z" />
    <glyph glyph-name="wgrave" unicode="&#x1e81;" horiz-adv-x="483" 
d="M94 0l-82 549h100l39 -355l48 355h91l48 -354l39 354h94l-82 -549h-103l-43 319l-46 -319h-103zM247 699l37 -110h-71l-67 110h101z" />
    <glyph glyph-name="Wacute" unicode="&#x1e82;" horiz-adv-x="552" 
d="M243 741l43 89h101l-73 -89h-71zM102 0l-85 700h108l50 -494l54 494h103l54 -493l50 493h98l-85 -700h-126l-47 419l-47 -419h-127z" />
    <glyph glyph-name="wacute" unicode="&#x1e83;" horiz-adv-x="483" 
d="M209 589l37 110h101l-67 -110h-71zM94 0l-82 549h100l39 -355l48 355h91l48 -354l39 354h94l-82 -549h-103l-43 319l-46 -319h-103z" />
    <glyph glyph-name="Wdieresis" unicode="&#x1e84;" horiz-adv-x="552" 
d="M300 741v82h85v-82h-85zM260 823v-82h-85v82h85zM102 0l-85 700h108l50 -494l54 494h103l54 -493l50 493h98l-85 -700h-126l-47 419l-47 -419h-127z" />
    <glyph glyph-name="wdieresis" unicode="&#x1e85;" horiz-adv-x="483" 
d="M267 589v103h83v-103h-83zM227 692v-103h-83v103h83zM94 0l-82 549h100l39 -355l48 355h91l48 -354l39 354h94l-82 -549h-103l-43 319l-46 -319h-103z" />
    <glyph glyph-name="Ygrave" unicode="&#x1ef2;" horiz-adv-x="345" 
d="M175 405l63 295h103l-115 -455v-245h-107v240l-115 460h110zM169 830l44 -89h-73l-74 89h103z" />
    <glyph glyph-name="ygrave" unicode="&#x1ef3;" horiz-adv-x="327" 
d="M181 -110h-97l29 131l-104 528h101l53 -334l59 334h97zM165 699l37 -110h-71l-67 110h101z" />
    <glyph glyph-name="enspace" unicode="&#x2002;" 
 />
    <glyph glyph-name="emspace" unicode="&#x2003;" horiz-adv-x="1000" 
 />
    <glyph glyph-name="threeperemspace" unicode="&#x2004;" horiz-adv-x="333" 
 />
    <glyph glyph-name="fourperemspace" unicode="&#x2005;" horiz-adv-x="250" 
 />
    <glyph glyph-name="thinspace" unicode="&#x2009;" horiz-adv-x="133" 
 />
    <glyph glyph-name="hairspace" unicode="&#x200a;" horiz-adv-x="75" 
 />
    <glyph glyph-name="endash" unicode="&#x2013;" horiz-adv-x="373" 
d="M13 323h347v-77h-347v77z" />
    <glyph glyph-name="emdash" unicode="&#x2014;" horiz-adv-x="572" 
d="M13 323h537v-77h-537v77z" />
    <glyph glyph-name="quoteleft" unicode="&#x2018;" horiz-adv-x="150" 
d="M24 456v91c0 28.667 2.16699 50 6.5 64s14.5 33.667 30.5 59l24 36l41 -12l-13 -29c-14.667 -32.667 -23 -58 -25 -76h37v-133h-101z" />
    <glyph glyph-name="quoteright" unicode="&#x2019;" horiz-adv-x="150" 
d="M126 700v-90.999c0 -28.667 -2.16699 -50.167 -6.5 -64.5s-14.833 -33.833 -31.5 -58.5l-23 -36l-41 11l13 30c14 31.333 22.333 56.666 25 75.999h-37v133h101z" />
    <glyph glyph-name="quotesinglbase" unicode="&#x201a;" horiz-adv-x="150" 
d="M126 134v-91c0 -28.667 -2.16699 -50.167 -6.5 -64.5s-14.833 -33.833 -31.5 -58.5l-23 -36l-41 11l13 30c14 32.667 22.333 58 25 76h-37v133h101z" />
    <glyph glyph-name="quotedblleft" unicode="&#x201c;" horiz-adv-x="286" 
d="M162 456v91c0 28.667 2 50.167 6 64.5s14 33.833 30 58.5l24 36l40 -12l-13 -29c-14 -32.667 -22.333 -58 -25 -76h37v-133h-99zM24 456v91c0 28.667 2 50.167 6 64.5s14 33.833 30 58.5l24 36l40 -12l-13 -29c-14 -32.667 -22.333 -58 -25 -76h37v-133h-99z" />
    <glyph glyph-name="quotedblright" unicode="&#x201d;" horiz-adv-x="286" 
d="M262 700l0.000976562 -91.001c0 -29.333 -2.16699 -51.166 -6.5 -65.499s-14.5 -33.5 -30.5 -57.5l-23 -36l-40 11l12 30c15.333 34 23.666 59.333 24.999 76h-36v133h99zM124.001 699.999v-91c0 -29.333 -2.16699 -51.166 -6.5 -65.499s-14.5 -33.5 -30.5 -57.5l-23 -36
l-40 11l13 30c14 31.333 22.333 56.666 25 75.999h-37v133h99z" />
    <glyph glyph-name="quotedblbase" unicode="&#x201e;" horiz-adv-x="286" 
d="M262 134l0.000976562 -91c0 -29.333 -2.16699 -51.166 -6.5 -65.499s-14.5 -33.5 -30.5 -57.5l-23 -36l-40 11l12 30c15.333 35.333 23.666 60.666 24.999 75.999h-36v133h99zM124.001 134v-91.001c0 -29.333 -2.16699 -51.166 -6.5 -65.499s-14.5 -33.5 -30.5 -57.5
l-23 -36l-40 11l13 30c14 32.667 22.333 58 25 76h-37v133h99z" />
    <glyph glyph-name="dagger" unicode="&#x2020;" horiz-adv-x="236" 
d="M87 348l2 214l-79 -3v62l79 -4l-2 85h62l-2 -85l79 4v-62l-80 3l3 -214h-62z" />
    <glyph glyph-name="daggerdbl" unicode="&#x2021;" horiz-adv-x="236" 
d="M226 621v-62l-80 3l2 -110l-2 -110l80 4v-62l-79 3l2 -84h-62l2 84l-79 -3v62l79 -4l-1 110l1 110l-79 -3v62l79 -4l-2 85h62l-2 -85z" />
    <glyph glyph-name="bullet" unicode="&#x2022;" horiz-adv-x="238" 
d="M196 395v-86c0 -37.333 -20.667 -56 -62 -56h-30c-41.333 0 -62 18.667 -62 56v86c0 37.333 20.667 56 62 56h30c41.333 0 62 -18.667 62 -56z" />
    <glyph glyph-name="ellipsis" unicode="&#x2026;" horiz-adv-x="452" 
d="M126 133v-133h-101v133h101zM276 133v-133h-101v133h101zM427 133v-133h-101v133h101z" />
    <glyph glyph-name="guilsinglleft" unicode="&#x2039;" horiz-adv-x="175" 
d="M4 284l76 160h85l-64 -160l64 -159h-84z" />
    <glyph glyph-name="guilsinglright" unicode="&#x203a;" horiz-adv-x="175" 
d="M95 444l76 -160l-77 -159h-84l64 159l-64 160h85z" />
    <glyph glyph-name="Euro" unicode="&#x20ac;" horiz-adv-x="376" 
d="M16 437h37v139c0 86.667 43.333 130 130 130h41c86 0 129 -43 129 -129v-92h-103v86c0 27.333 -13.333 41 -40 41h-12c-26 0 -39 -13.667 -39 -41v-134h145v-62h-145v-41h145v-62h-145v-143c0 -27.333 13 -41 39 -41h14c26.667 0 40 13.667 40 41v93h103v-98
c0 -86.667 -43.333 -130 -130 -130h-42c-86.667 0 -130 43.333 -130 130v148h-37v62h37v41h-37v62z" />
    <glyph glyph-name="published" unicode="&#x2117;" horiz-adv-x="493" 
d="M223 272v-178h-80v513h124c63.333 0 95 -30.333 95 -91v-153c0 -60.667 -31.667 -91 -95 -91h-44zM282 505c0 18 -9.33301 27 -28 27h-31v-184h31c18.667 0 28 8.66699 28 26v131zM459 542v-384c0 -58 -12.5 -99.833 -37.5 -125.5s-64.5 -38.5 -118.5 -38.5h-113
c-54 0 -93.5 12.833 -118.5 38.5s-37.5 67.5 -37.5 125.5v384c0 58 12.5 99.833 37.5 125.5s64.5 38.5 118.5 38.5h113c54 0 93.5 -12.833 118.5 -38.5s37.5 -67.5 37.5 -125.5zM433 158v384c0 49.333 -10.5 85 -31.5 107s-53.833 33 -98.5 33h-113
c-44.667 0 -77.5 -11 -98.5 -33s-31.5 -57.667 -31.5 -107v-384c0 -49.333 10.5 -85 31.5 -107s53.833 -33 98.5 -33h113c44.667 0 77.5 11 98.5 33s31.5 57.667 31.5 107z" />
    <glyph glyph-name="servicemark" unicode="&#x2120;" horiz-adv-x="470" 
d="M290 700l32 -215l32 215h76v-305h-52v213l-35 -213h-49l-34 214v-214h-47v305h77zM88 509v-52.001c0 -12 6.33301 -18 19 -18h6c13.333 0 20 6 20 18v31c0 10 -4.66699 18.333 -14 25l-54 36c-20.667 14.667 -31 32.334 -31 53.001v42c0 39.333 21 59 63 59h26
c41.333 0 62 -19.667 62 -59v-51h-52v45c0 12 -6.66699 18 -20 18h-6c-12.667 0 -19 -6 -19 -18v-23c0 -10 5 -18.333 15 -25l54 -36c19.333 -13.333 29 -31 29 -53v-50c0 -39.333 -20.667 -59 -62 -59h-27c-42 0 -63 19.667 -63 59v58h54z" />
    <glyph glyph-name="trademark" unicode="&#x2122;" horiz-adv-x="452" 
d="M272 700l33 -215l32 215h76v-305h-53v213l-34 -213h-50l-34 214v-214h-46v305h76zM125 395h-56v255h-49v50h154v-50h-49v-255z" />
    <glyph glyph-name="minus" unicode="&#x2212;" horiz-adv-x="314" 
d="M10 396h294v-81h-294v81z" />
    <glyph glyph-name=".null" horiz-adv-x="0" 
 />
    <glyph glyph-name="nonmarkingreturn" horiz-adv-x="333" 
 />
    <glyph glyph-name="Q.alt" horiz-adv-x="377" 
d="M347 576v-436c0 -19.333 -2 -37 -6 -53l43 -28l-54 -68l-30 30c-22 -18 -52.333 -27 -91 -27h-49c-86.667 0 -130 43.333 -130 130v452c0 86.667 43.333 130 130 130h57c86.667 0 130 -43.333 130 -130zM240 571c0 27.333 -13.333 41 -40 41h-22
c-27.333 0 -41 -13.667 -41 -41v-444c0 -27.333 13.667 -41 41 -41h22c12.667 0 21.667 2.33301 27 7l-57 52l35 42l35 -28v412z" />
    <glyph glyph-name="a.alt" horiz-adv-x="347" 
d="M318 549l0.000976562 -549h-100v37c-30 -28.667 -61.667 -43 -95 -43h-1c-30.667 0 -54.167 9 -70.5 27s-24.5 43.333 -24.5 76v355c0 32.667 8.16699 58 24.5 76s39.833 27 70.5 27h1c33.333 0 64.666 -13.333 93.999 -40v34h101zM217.001 104v341
c-16.667 12 -34.334 18 -53.001 18c-24 0 -36 -11.333 -36 -34v-309c0 -22.667 12 -34 36 -34c18.667 0 36.334 6 53.001 18z" />
    <glyph glyph-name="aacute.alt" horiz-adv-x="347" 
d="M143 589l37 110h101l-67 -110h-71zM318 549l0.000976562 -549h-100v37c-30 -28.667 -61.667 -43 -95 -43h-1c-30.667 0 -54.167 9 -70.5 27s-24.5 43.333 -24.5 76v355c0 32.667 8.16699 58 24.5 76s39.833 27 70.5 27h1c33.333 0 64.666 -13.333 93.999 -40v34h101z
M217.001 104v341c-16.667 12 -34.334 18 -53.001 18c-24 0 -36 -11.333 -36 -34v-309c0 -22.667 12 -34 36 -34c18.667 0 36.334 6 53.001 18z" />
    <glyph glyph-name="abreve.alt" horiz-adv-x="347" 
d="M318 549l0.000976562 -549h-100v37c-30 -28.667 -61.667 -43 -95 -43h-1c-30.667 0 -54.167 9 -70.5 27s-24.5 43.333 -24.5 76v355c0 32.667 8.16699 58 24.5 76s39.833 27 70.5 27h1c33.333 0 64.666 -13.333 93.999 -40v34h101zM217.001 104v341
c-16.667 12 -34.334 18 -53.001 18c-24 0 -36 -11.333 -36 -34v-309c0 -22.667 12 -34 36 -34c18.667 0 36.334 6 53.001 18zM82.001 672v27h66v-25c0 -18 9.33301 -27 28 -27h8c18.667 0 28 9 28 27v25h66v-27c0 -57.333 -27.667 -86 -83 -86h-30
c-55.333 0 -83 28.667 -83 86z" />
    <glyph glyph-name="acircumflex.alt" horiz-adv-x="347" 
d="M221 699l66 -110h-66l-41 49l-41 -49h-66l66 110h82zM318 549l0.000976562 -549h-100v37c-30 -28.667 -61.667 -43 -95 -43h-1c-30.667 0 -54.167 9 -70.5 27s-24.5 43.333 -24.5 76v355c0 32.667 8.16699 58 24.5 76s39.833 27 70.5 27h1
c33.333 0 64.666 -13.333 93.999 -40v34h101zM217.001 104v341c-16.667 12 -34.334 18 -53.001 18c-24 0 -36 -11.333 -36 -34v-309c0 -22.667 12 -34 36 -34c18.667 0 36.334 6 53.001 18z" />
    <glyph glyph-name="adieresis.alt" horiz-adv-x="347" 
d="M200 589v103h83v-103h-83zM160 692v-103h-83v103h83zM318 549l0.000976562 -549h-100v37c-30 -28.667 -61.667 -43 -95 -43h-1c-30.667 0 -54.167 9 -70.5 27s-24.5 43.333 -24.5 76v355c0 32.667 8.16699 58 24.5 76s39.833 27 70.5 27h1
c33.333 0 64.666 -13.333 93.999 -40v34h101zM217.001 104v341c-16.667 12 -34.334 18 -53.001 18c-24 0 -36 -11.333 -36 -34v-309c0 -22.667 12 -34 36 -34c18.667 0 36.334 6 53.001 18z" />
    <glyph glyph-name="agrave.alt" horiz-adv-x="347" 
d="M318 549l0.000976562 -549h-100v37c-30 -28.667 -61.667 -43 -95 -43h-1c-30.667 0 -54.167 9 -70.5 27s-24.5 43.333 -24.5 76v355c0 32.667 8.16699 58 24.5 76s39.833 27 70.5 27h1c33.333 0 64.666 -13.333 93.999 -40v34h101zM217.001 104v341
c-16.667 12 -34.334 18 -53.001 18c-24 0 -36 -11.333 -36 -34v-309c0 -22.667 12 -34 36 -34c18.667 0 36.334 6 53.001 18zM180.001 699l37 -110h-71l-67 110h101z" />
    <glyph glyph-name="amacron.alt" horiz-adv-x="347" 
d="M318 549l0.000976562 -549h-100v37c-30 -28.667 -61.667 -43 -95 -43h-1c-30.667 0 -54.167 9 -70.5 27s-24.5 43.333 -24.5 76v355c0 32.667 8.16699 58 24.5 76s39.833 27 70.5 27h1c33.333 0 64.666 -13.333 93.999 -40v34h101zM217.001 104v341
c-16.667 12 -34.334 18 -53.001 18c-24 0 -36 -11.333 -36 -34v-309c0 -22.667 12 -34 36 -34c18.667 0 36.334 6 53.001 18zM74.001 672h212v-76h-212v76z" />
    <glyph glyph-name="aogonek.alt" horiz-adv-x="347" 
d="M318 549l0.000976562 -549h-13l-8 -14c-6.66699 -11.333 -10 -20.333 -10 -27c0 -6 3.33301 -9 10 -9h27v-56h-53c-35.333 0 -53 15.333 -53 46v6c0 14 6.66699 31.333 20 52l1 2h-21v37c-30 -28.667 -61.667 -43 -95 -43h-1c-30.667 0 -54.167 9 -70.5 27
s-24.5 43.333 -24.5 76v355c0 32.667 8.16699 58 24.5 76s39.833 27 70.5 27h1c33.333 0 64.666 -13.333 93.999 -40v34h101zM217.001 104v341c-16.667 12 -34.334 18 -53.001 18c-24 0 -36 -11.333 -36 -34v-309c0 -22.667 12 -34 36 -34c18.667 0 36.334 6 53.001 18z" />
    <glyph glyph-name="aring.alt" horiz-adv-x="347" 
d="M266 647v-6c0 -36.667 -21.667 -55 -65 -55h-42c-43.333 0 -65 18.333 -65 55v6c0 36.667 21.667 55 65 55h42c43.333 0 65 -18.333 65 -55zM241 641v6c0 22 -14 33 -42 33h-38c-28 0 -42 -11 -42 -33v-6c0 -22 14.333 -33 43 -33h37c28 0 42 11 42 33zM318 549
l0.000976562 -549h-100v37c-30 -28.667 -61.667 -43 -95 -43h-1c-30.667 0 -54.167 9 -70.5 27s-24.5 43.333 -24.5 76v355c0 32.667 8.16699 58 24.5 76s39.833 27 70.5 27h1c33.333 0 64.666 -13.333 93.999 -40v34h101zM217.001 104v341
c-16.667 12 -34.334 18 -53.001 18c-24 0 -36 -11.333 -36 -34v-309c0 -22.667 12 -34 36 -34c18.667 0 36.334 6 53.001 18z" />
    <glyph glyph-name="aringacute.alt" horiz-adv-x="347" 
d="M144 730l37 110h101l-67 -110h-71zM263 647v-6c0 -36.667 -21.667 -55 -65 -55h-42c-43.333 0 -65 18.333 -65 55v6c0 36.667 21.667 55 65 55h42c43.333 0 65 -18.333 65 -55zM238 641v6c0 22 -14 33 -42 33h-38c-28 0 -42 -11 -42 -33v-6c0 -22 14.333 -33 43 -33h37
c28 0 42 11 42 33zM318 549l0.000976562 -549h-100v37c-30 -28.667 -61.667 -43 -95 -43h-1c-30.667 0 -54.167 9 -70.5 27s-24.5 43.333 -24.5 76v355c0 32.667 8.16699 58 24.5 76s39.833 27 70.5 27h1c33.333 0 64.666 -13.333 93.999 -40v34h101zM217.001 104v341
c-16.667 12 -34.334 18 -53.001 18c-24 0 -36 -11.333 -36 -34v-309c0 -22.667 12 -34 36 -34c18.667 0 36.334 6 53.001 18z" />
    <glyph glyph-name="atilde.alt" horiz-adv-x="347" 
d="M318 549l0.000976562 -549h-100v37c-30 -28.667 -61.667 -43 -95 -43h-1c-30.667 0 -54.167 9 -70.5 27s-24.5 43.333 -24.5 76v355c0 32.667 8.16699 58 24.5 76s39.833 27 70.5 27h1c33.333 0 64.666 -13.333 93.999 -40v34h101zM217.001 104v341
c-16.667 12 -34.334 18 -53.001 18c-24 0 -36 -11.333 -36 -34v-309c0 -22.667 12 -34 36 -34c18.667 0 36.334 6 53.001 18zM117.001 699h8c18 0 34 -5 48 -15l27 -19c10 -7.33301 17.333 -11 22 -11c6.66699 0 10 4 10 12v33h59v-59c0 -34 -16 -51 -48 -51h-8
c-17.333 0 -33 5 -47 15l-28 20c-10.667 6.66699 -18 10 -22 10c-6.66699 0 -10 -4 -10 -12v-33h-59v59c0 34 16 51 48 51z" />
    <glyph glyph-name="Oslash.alt" horiz-adv-x="377" 
d="M347 124c0 -86.667 -43.332 -130 -129.999 -130h-52c-18 0 -37 2.33301 -57 7l-10 -33h-71l24 75c-14 20 -21 47 -21 81v452c0 86.667 43.333 130 130 130h53c19.333 0 37.666 -2.66699 54.999 -8l11 34h71l-24 -75c14 -20 21 -47 21 -81v-452zM241.001 129l1 333
l-99 -360c7.33301 -9.33301 19 -14 35 -14h21c28 0 42 13.667 42 41zM137.001 571l-3 -335l100 361c-6 10 -17.333 15 -34 15h-22c-27.333 0 -41 -13.667 -41 -41z" />
    <glyph glyph-name="oslash.alt" horiz-adv-x="344" 
d="M196 -6h-44c-18.667 0 -35.667 2 -51 6l-10 -32h-64l22 67c-14.667 19.333 -22 46.333 -22 81v317c0 81.333 40.667 122 122 122h43c19.333 0 36 -2.33301 50 -7l11 33h65l-23 -67c15.333 -20.667 23 -47.667 23 -81v-317c0 -81.333 -40.667 -122 -122 -122zM180 85
c24.667 0 37 12.333 37 37l2 242l-84 -270c6 -6 15.667 -9 29 -9h16zM180 464h-16c-24.667 0 -37 -12.333 -37 -37l-1 -241l82 268c-6 6.66699 -15.333 10 -28 10z" />
    <glyph glyph-name="Oslashacute.alt" horiz-adv-x="377" 
d="M347 124c0 -86.667 -43.332 -130 -129.999 -130h-52c-18 0 -37 2.33301 -57 7l-10 -33h-71l24 75c-14 20 -21 47 -21 81v452c0 86.667 43.333 130 130 130h53c19.333 0 37.666 -2.66699 54.999 -8l11 34h71l-24 -75c14 -20 21 -47 21 -81v-452zM241.001 129l1 333
l-99 -360c7.33301 -9.33301 19 -14 35 -14h21c28 0 42 13.667 42 41zM137.001 571l-3 -335l100 361c-6 10 -17.333 15 -34 15h-22c-27.333 0 -41 -13.667 -41 -41zM152.001 741l43 89h101l-73 -89h-71z" />
    <glyph glyph-name="oslashacute.alt" horiz-adv-x="344" 
d="M196 -6h-44c-18.667 0 -35.667 2 -51 6l-10 -32h-64l22 67c-14.667 19.333 -22 46.333 -22 81v317c0 81.333 40.667 122 122 122h43c19.333 0 36 -2.33301 50 -7l11 33h65l-23 -67c15.333 -20.667 23 -47.667 23 -81v-317c0 -81.333 -40.667 -122 -122 -122zM180 85
c24.667 0 37 12.333 37 37l2 242l-84 -270c6 -6 15.667 -9 29 -9h16zM180 464h-16c-24.667 0 -37 -12.333 -37 -37l-1 -241l82 268c-6 6.66699 -15.333 10 -28 10zM136 589l37 110h101l-67 -110h-71z" />
    <glyph glyph-name="colon.alt" horiz-adv-x="151" 
d="M126 288v-133h-101v133h101zM126 548v-133h-101v133h101z" />
    <glyph glyph-name="ampersand.alt" horiz-adv-x="370" 
d="M363 310l-31 -0.000976562v-186c0 -86.667 -43.333 -130 -130 -130h-43c-86.667 0 -130 43.333 -130 130v148c0 48.667 20 78.667 60 90c-38.667 14.667 -58 49.334 -58 104.001v110c0 86.667 43.333 130 130 130h40c86 0 129 -43 129 -129v-104h-102v98
c0 27.333 -13.333 41 -40 41h-12c-26 0 -39 -13.667 -39 -41v-129c0 -27.333 13 -41 39 -41h187v-91zM135 269.999v-141c0 -27.333 13.333 -41 40 -41h14c27.333 0 41 13.667 41 41v181h-56c-26 0 -39 -13.333 -39 -40z" />
    <glyph glyph-name="registered.alt" horiz-adv-x="493" 
d="M319 329c16.667 -4.66699 28.5 -12 35.5 -22s10.5 -24.333 10.5 -43v-170h-80v164c0 20.667 -11 31 -33 31h-33v-195h-80v513h130c63.333 0 95 -30.333 95 -91v-112c0 -38.667 -15 -63.667 -45 -75zM284 504c0 18 -9.33301 27 -28 27h-37v-168h33
c21.333 0 32 10.333 32 31v110zM459 542v-384c0 -58 -12.5 -99.833 -37.5 -125.5s-64.5 -38.5 -118.5 -38.5h-113c-54 0 -93.5 12.833 -118.5 38.5s-37.5 67.5 -37.5 125.5v384c0 58 12.5 99.833 37.5 125.5s64.5 38.5 118.5 38.5h113c54 0 93.5 -12.833 118.5 -38.5
s37.5 -67.5 37.5 -125.5zM433 158v384c0 49.333 -10.5 85 -31.5 107s-53.833 33 -98.5 33h-113c-44.667 0 -77.5 -11 -98.5 -33s-31.5 -57.667 -31.5 -107v-384c0 -49.333 10.5 -85 31.5 -107s53.833 -33 98.5 -33h113c44.667 0 77.5 11 98.5 33s31.5 57.667 31.5 107z" />
    <glyph glyph-name="hfjslug" horiz-adv-x="694" 
d="M644 -200h-208l-8 14h-163l-8 -14h-207v303c9.33301 0 17 3.16699 23 9.5s9 13.833 9 22.5s-3.16699 16.167 -9.5 22.5s-13.833 9.5 -22.5 9.5v554h100l30 79h334l29 -79h101v-921zM400 563v-172h15v78h38v14h-38v66h43v14h-58zM184 563v-172h15v79h47v-79h15v172h-15
v-79h-47v79h-15zM460 394c6.66699 -2.66699 13.667 -4 21 -4c20.667 0 31 12 31 36v137h-16v-137c0 -14.667 -5.33301 -22 -16 -22c-5.33301 0 -12 1.66699 -20 5v-15zM371 465l-13 3c-2.66699 -12 -5.33398 -22 -8.00098 -30h-1l-16 31c15.333 14 23 28 23 42
c0 20.667 -9 31 -27 31c-8 0 -14.667 -3 -20 -9s-8 -13.333 -8 -22s4.66699 -21.667 14 -39c-15.333 -12 -23 -27.667 -23 -47c0 -10.667 2.66699 -19.5 8 -26.5s12.333 -10.5 21 -10.5c12.667 0 22.334 8 29.001 24h1l12 -24l12 6l-17 32c4 9.33301 8.33301 22.333 13 39z
M523 323v-46h8v12l8 8l15 -20h10l-20 26l18 20h-10l-20 -24h-1v24h-8zM488 292l10 -15.001h9l-12 17c6.66699 2.66699 10 7.33398 10 14.001c0 10 -5.66699 15 -17 15h-20v-46h8v15h12zM426 275.999c6.66699 0 12.334 2.33301 17.001 7s7 10.334 7 17.001
c0 6 -2.33301 11.5 -7 16.5s-10.334 7.5 -17.001 7.5s-12.334 -2.5 -17.001 -7.5s-7 -10.5 -7 -16.5c0 -6.66699 2.33301 -12.334 7 -17.001s10.334 -7 17.001 -7zM370 300.999l-13 22h-9l18 -29v-17h8v17l18 29h-9zM193 322.999v-46h34v7h-26v13h23v7h-23v12h26v7h-34z
M132 322.999v-46h8v32l25 -32h7v46h-8v-32l-25 32h-7zM241 322.999l14 -47h8l11 34h1l11 -34h8l14 47h-8l-10 -35h-1l-11 35h-7l-11 -35h-1l-10 35h-8zM327 478.999c-8 14.667 -12 25.333 -12 32c0 12.667 4.66699 19 14 19c8.66699 0 13 -6.33301 13 -19
c0 -10 -5 -20.667 -15 -32zM342 422.998c-5.33301 -14 -12 -21.001 -20 -21.001c-10.667 0 -16 8.33301 -16 25c0 12.667 5.33301 24.334 16 35.001zM487 298.997h-11v17h11c6.66699 0 10 -2.66699 10 -8c0 -6 -3.33301 -9 -10 -9zM426 282.997
c-10.667 0 -16 5.66699 -16 17c0 4 1.5 7.83301 4.5 11.5s6.83301 5.5 11.5 5.5s8.5 -1.83301 11.5 -5.5s4.5 -7.5 4.5 -11.5c0 -11.333 -5.33301 -17 -16 -17z" />
    <glyph glyph-name="caron.alt" 
d="M196 588v122h72l-30 -122h-42z" />
    <glyph glyph-name="acute.cap" 
d="M188 741l43 89h101l-73 -89h-71z" />
    <glyph glyph-name="hungarumlaut.cap" 
d="M154 741l37 89h88l-72 -89h-53zM245 741l37 89h89l-72 -89h-54z" />
    <glyph glyph-name="grave.cap" 
d="M289 830l44 -89h-73l-74 89h103z" />
    <glyph glyph-name="circumflex.cap" 
d="M291 838l70 -97h-66l-45 39l-45 -39h-66l70 97h82z" />
    <glyph glyph-name="caron.cap" 
d="M361 838l-70 -97h-82l-70 97h66l45 -40l45 40h66z" />
    <glyph glyph-name="breve.cap" 
d="M150 816v18h66v-12c0 -16 9.33301 -24 28 -24h12c18.667 0 28 8 28 24v12h66v-18c0 -52 -27.667 -78 -83 -78h-34c-55.333 0 -83 26 -83 78z" />
    <glyph glyph-name="tilde.cap" 
d="M185 840h9c17.333 0 33 -4 47 -12l31 -19c8.66699 -4.66699 16 -7 22 -7c6.66699 0 10 4 10 12v26h59v-49c0 -33.333 -16 -50 -48 -50h-9c-18 0 -33.333 4 -46 12l-32 18c-8.66699 4.66699 -16 7 -22 7c-6.66699 0 -10 -4 -10 -12v-25h-59v48c0 34 16 51 48 51z" />
    <glyph glyph-name="macron.cap" 
d="M144 813h212v-65h-212v65z" />
    <glyph glyph-name="dieresis.cap" 
d="M270 741v82h85v-82h-85zM230 823v-82h-85v82h85z" />
    <glyph glyph-name="dotaccent.cap" 
d="M295 819v-78h-90v78h90z" />
    <glyph glyph-name="ring.cap" 
d="M351 796v-5c0 -35.333 -21.667 -53 -65 -53h-72c-43.333 0 -65 17.667 -65 53v5c0 35.333 21.667 53 65 53h72c43.333 0 65 -17.667 65 -53zM325 791v4c0 20.667 -13.667 31 -41 31h-68c-27.333 0 -41 -10.333 -41 -31v-4c0 -20.667 13.667 -31 41 -31h68
c27.333 0 41 10.333 41 31z" />
    <glyph glyph-name="guillemotleft.cap" horiz-adv-x="262" 
d="M4 356l65 169h75l-54 -169l54 -169h-74zM121 356l57 169h75l-46 -169l46 -169h-73z" />
    <glyph glyph-name="guillemotright.cap" horiz-adv-x="262" 
d="M193 525l65 -169l-66 -169h-74l54 169l-54 169h75zM84 525l57 -169l-59 -169h-73l46 169l-46 169h75z" />
    <glyph glyph-name="guilsinglleft.cap" horiz-adv-x="177" 
d="M4 356l80 169h85l-68 -169l68 -169h-84z" />
    <glyph glyph-name="guilsinglright.cap" horiz-adv-x="177" 
d="M93 525l80 -169l-81 -169h-84l68 169l-68 169h85z" />
    <glyph glyph-name="hyphen.cap" horiz-adv-x="219" 
d="M13 404h192v-96h-192v96z" />
    <glyph glyph-name="endash.cap" horiz-adv-x="373" 
d="M13 395h347v-78h-347v78z" />
    <glyph glyph-name="emdash.cap" horiz-adv-x="572" 
d="M13 395h537v-78h-537v78z" />
    <glyph glyph-name="i.dot" horiz-adv-x="164" 
d="M29 595v98h105v-98h-105zM31 0v549h101v-549h-101z" />
    <glyph glyph-name="NUL" horiz-adv-x="0" 
 />
    </font>
</defs>
</svg>
