<svg xmlns="http://www.w3.org/2000/svg" viewBox="21.3 4.4 60 60" enable-background="new 21.3 4.4 60 60"><g fill="#fff"><path d="M51.2 34.8c-.1 0-.3 0-.4-.1l-7.4-7.4c-.2-.2-.2-.5 0-.7.2-.2.5-.2.7 0l7.4 7.4c.2.2.2.5 0 .7 0 .1-.1.1-.3.1zM51.2 34.9c-.1 0-.3 0-.4-.1-.2-.2-.2-.5 0-.7l7.4-7.4c.2-.2.5-.2.7 0 .2.2.2.5 0 .7l-7.4 7.4s-.1.1-.3.1zM58.6 42.3c-.1 0-.3 0-.4-.1l-7.4-7.4c-.2-.2-.2-.5 0-.7.2-.2.5-.2.7 0l7.4 7.4c.2.2.2.5 0 .7 0 0-.1.1-.3.1zM43.9 42.3c-.1 0-.3 0-.4-.1-.2-.2-.2-.5 0-.7l7.4-7.4c.2-.2.5-.2.7 0 .2.2.2.5 0 .7l-7.4 7.4c-.1 0-.2.1-.3.1z"/></g><path fill="#fff" d="M51.3 64.4c-16.5 0-30-13.5-30-30s13.5-30 30-30 30 13.5 30 30-13.5 30-30 30zm0-59c-16 0-29 13-29 29s13 29 29 29 29-13 29-29-13-29-29-29z"/></svg>