<svg xmlns="http://www.w3.org/2000/svg" width="60" height="60" viewBox="0 0 60 60"><circle fill="#fff" cx="29.999" cy="30" r="29.999"/><g fill="#646363"><path d="M34.76 20.898h-7.52c-1.206 0-2.185.976-2.185 2.182v10.236c0 1.205.98 2.183 2.184 2.183h.01v7.25c0 1.206.947 2.183 2.123 2.183h3.253c1.173 0 2.124-.977 2.124-2.183V35.5h.012c1.206 0 2.185-.978 2.185-2.184V23.08c-.003-1.206-.98-2.182-2.186-2.182z"/><circle cx="31" cy="16.631" r="3.563"/><path d="M47.782 21.748h-6.444c-1.036 0-1.873.838-1.873 1.87v8.773c0 1.036.837 1.873 1.873 1.873h.01v6.213c0 1.033.813 1.87 1.817 1.87h2.79c1.003 0 1.816-.837 1.816-1.87V34.26h.01c1.036 0 1.874-.837 1.874-1.87v-8.773c0-1.03-.838-1.87-1.87-1.87zM44.56 15.04c1.684 0 3.052 1.367 3.052 3.052 0 1.687-1.368 3.054-3.052 3.054-1.687 0-3.053-1.367-3.053-3.054 0-1.685 1.367-3.052 3.053-3.052zm-23.897 6.708H14.22c-1.035 0-1.872.838-1.872 1.87v8.772c0 1.034.837 1.872 1.87 1.872h.01v6.212c0 1.034.815 1.87 1.82 1.87h2.788c1.004 0 1.817-.836 1.817-1.87V34.26h.01c1.033 0 1.87-.837 1.87-1.87v-8.773c0-1.03-.836-1.87-1.87-1.87z"/><circle cx="17.441" cy="18.093" r="3.052"/></g></svg>