<svg xmlns="http://www.w3.org/2000/svg" width="100" height="100" viewBox="0 0 100 100"><path d="M71.235 77.834H29.098c-.552 0-1-.447-1-1V49.068c-1.396-.163-2.687-.785-3.694-1.793-1.178-1.178-1.83-2.743-1.837-4.41-.002-.07.004-.14.017-.21.013-.07.033-.136.06-.2l5.33-13.664V23.5c0-.552.448-1 1-1h42.39c.552 0 1 .448 1 1v5.298l5.076 13.67c.024.062.042.126.055.192.012.068.018.136.016.204-.006 1.666-.657 3.23-1.836 4.41-.945.945-2.14 1.552-3.437 1.757v27.803c-.002.554-.45 1-1.002 1zm-4.9-2h3.9V49.03c-1.293-.206-2.485-.812-3.43-1.756-.332-.33-.622-.694-.867-1.08-.246.385-.536.748-.867 1.08-1.183 1.183-2.757 1.835-4.432 1.835s-3.25-.653-4.434-1.837c-.332-.332-.622-.694-.867-1.08-.246.386-.535.748-.867 1.08-1.183 1.184-2.758 1.836-4.433 1.836-1.675 0-3.25-.653-4.433-1.837-.332-.332-.622-.694-.867-1.08-.246.386-.536.748-.868 1.08-1.183 1.183-2.757 1.835-4.433 1.835-1.675 0-3.25-.652-4.434-1.836-.332-.332-.62-.693-.867-1.08-.246.386-.535.748-.866 1.08-.88.88-1.978 1.468-3.173 1.71v26.85h23.886V53.655c0-.553.447-1 1-1h10.352c.553 0 1 .447 1 1v22.18zm-10.35 0h8.35v-21.18h-8.35v21.18zm.303-33.386c.052.12.08.252.08.392 0 1.14.444 2.213 1.25 3.02.808.807 1.88 1.25 3.02 1.25 1.14 0 2.213-.443 3.02-1.25.806-.806 1.25-1.878 1.25-3.02 0-.054.004-.107.013-.16l-2.683-12.7h-6.565l.616 12.468zm-10.55.153c.02.078.03.157.03.24 0 1.142.444 2.215 1.25 3.02s1.878 1.25 3.02 1.25c1.14 0 2.212-.443 3.017-1.25.802-.8 1.245-1.863 1.25-2.996l-.638-12.884H47.09L45.738 42.6zm-10.575.155l.003.084c0 1.14.445 2.214 1.25 3.02.808.806 1.88 1.25 3.02 1.25s2.213-.444 3.02-1.25c.803-.804 1.247-1.87 1.25-3.008v-.065l.007-.068 1.365-12.74h-6.544l-3.37 12.775zm-10.593.263c.044 1.075.484 2.078 1.248 2.842.833.833 1.944 1.266 3.132 1.25.065-.01.134-.014.198-.01 1.024-.073 1.976-.507 2.708-1.24.8-.802 1.245-1.866 1.25-3 0-.05 0-.1.008-.148.006-.05.017-.1.03-.15l3.322-12.582h-6.81L24.57 43.018zm46.665 4.086c.034 0 .067 0 .1.005 1.104-.025 2.14-.467 2.922-1.25.768-.768 1.207-1.774 1.25-2.85l-4.84-13.033H64.28l2.674 12.654c.023.11.027.22.015.327.03 1.1.473 2.125 1.25 2.9.782.783 1.814 1.225 2.917 1.25.032 0 .065-.003.098-.003zM63.067 27.98h7.294V24.5H29.974v3.478h33.092zM49.89 66.185H34.064c-.552 0-1-.447-1-1V53.854c0-.553.448-1 1-1H49.89c.552 0 1 .447 1 1v11.332c0 .552-.448 1-1 1zm-14.826-2H48.89v-9.332H35.064v9.332z"/></svg>