<svg xmlns="http://www.w3.org/2000/svg" width="100" height="100" viewBox="0 0 100 100"><path d="M24.458 55.755c0-.678-.55-1.228-1.228-1.228-.677 0-1.227.55-1.227 1.228v1.942c0 .678.55 1.227 1.227 1.227.678 0 1.228-.55 1.228-1.227v-1.942zM29.68 55.755c0-.678-.55-1.228-1.228-1.228s-1.227.55-1.227 1.228v1.942c0 .678.55 1.227 1.227 1.227s1.228-.55 1.228-1.227v-1.942zM34.9 55.755c0-.678-.55-1.228-1.228-1.228-.678 0-1.228.55-1.228 1.228v1.942c0 .678.55 1.227 1.228 1.227.677 0 1.227-.55 1.227-1.227v-1.942zM40.12 55.755c0-.678-.55-1.228-1.227-1.228s-1.227.55-1.227 1.228v1.942c0 .678.55 1.227 1.227 1.227s1.227-.55 1.227-1.227v-1.942zM45.34 55.755c0-.678-.548-1.228-1.227-1.228-.677 0-1.227.55-1.227 1.228v1.942c0 .678.55 1.227 1.227 1.227.678 0 1.228-.55 1.228-1.227v-1.942zM50.562 55.755c0-.678-.55-1.228-1.227-1.228s-1.227.55-1.227 1.228v1.942c0 .678.55 1.227 1.227 1.227s1.227-.55 1.227-1.227v-1.942zM45.717 16.467c0-.678-.55-1.228-1.227-1.228s-1.227.548-1.227 1.227v1.942c0 .676.55 1.226 1.227 1.226s1.227-.55 1.227-1.227v-1.943zM50.937 16.467c0-.678-.55-1.228-1.227-1.228s-1.227.548-1.227 1.227v1.942c0 .676.55 1.226 1.227 1.226s1.227-.55 1.227-1.227v-1.943zM56.158 16.467c0-.678-.55-1.228-1.227-1.228-.678 0-1.228.548-1.228 1.227v1.942c0 .676.55 1.226 1.23 1.226.677 0 1.226-.55 1.226-1.227v-1.943zM61.378 16.467c0-.678-.548-1.228-1.227-1.228-.677 0-1.227.548-1.227 1.227v1.942c0 .676.55 1.226 1.228 1.226.68 0 1.228-.55 1.228-1.227v-1.943zM66.6 16.467c0-.678-.548-1.228-1.227-1.228s-1.227.548-1.227 1.227v1.942c0 .676.548 1.226 1.227 1.226s1.228-.55 1.228-1.227v-1.943zM71.82 16.467c0-.678-.548-1.228-1.227-1.228s-1.227.548-1.227 1.227v1.942c0 .676.548 1.226 1.227 1.226s1.227-.55 1.227-1.227v-1.943zM24.458 64.18c0-.678-.55-1.227-1.228-1.227-.677 0-1.227.55-1.227 1.228v1.942c0 .678.55 1.227 1.227 1.227.678 0 1.228-.55 1.228-1.228v-1.94zM29.68 64.18c0-.678-.55-1.227-1.228-1.227s-1.227.55-1.227 1.228v1.942c0 .678.55 1.227 1.227 1.227s1.228-.55 1.228-1.228v-1.94zM34.9 64.18c0-.678-.55-1.227-1.228-1.227-.678 0-1.228.55-1.228 1.228v1.942c0 .678.55 1.227 1.228 1.227.677 0 1.227-.55 1.227-1.228v-1.94zM40.12 64.18c0-.678-.55-1.227-1.227-1.227s-1.227.55-1.227 1.228v1.942c0 .678.55 1.227 1.227 1.227s1.227-.55 1.227-1.228v-1.94zM45.34 64.18c0-.678-.548-1.227-1.227-1.227-.677 0-1.227.55-1.227 1.228v1.942c0 .678.55 1.227 1.227 1.227.678 0 1.228-.55 1.228-1.228v-1.94zM50.562 64.18c0-.678-.55-1.227-1.227-1.227s-1.227.55-1.227 1.228v1.942c0 .678.55 1.227 1.227 1.227s1.227-.55 1.227-1.228v-1.94zM45.717 24.894c0-.677-.55-1.227-1.227-1.227s-1.227.55-1.227 1.227v1.943c0 .678.55 1.228 1.227 1.228s1.227-.55 1.227-1.228v-1.943zM50.937 24.894c0-.677-.55-1.227-1.227-1.227s-1.227.55-1.227 1.227v1.943c0 .678.55 1.228 1.227 1.228s1.227-.55 1.227-1.228v-1.943zM56.158 24.894c0-.677-.55-1.227-1.227-1.227-.678 0-1.228.55-1.228 1.227v1.943c0 .678.55 1.228 1.23 1.228.677 0 1.226-.55 1.226-1.228v-1.943zM61.378 24.894c0-.677-.548-1.227-1.227-1.227-.677 0-1.227.55-1.227 1.227v1.943c0 .678.55 1.228 1.228 1.228.68 0 1.228-.55 1.228-1.228v-1.943zM66.6 24.894c0-.677-.548-1.227-1.227-1.227s-1.227.55-1.227 1.227v1.943c0 .678.548 1.228 1.227 1.228s1.228-.55 1.228-1.228v-1.943zM71.82 24.894c0-.677-.548-1.227-1.227-1.227s-1.227.55-1.227 1.227v1.943c0 .678.548 1.228 1.227 1.228s1.227-.55 1.227-1.228v-1.943zM23.23 71.38c-.676 0-1.226.55-1.226 1.228v1.94c0 .68.55 1.228 1.227 1.228.68 0 1.23-.548 1.23-1.227v-1.942c-.002-.678-.55-1.227-1.23-1.227zM28.452 71.38c-.678 0-1.227.55-1.227 1.228v1.94c0 .68.55 1.228 1.227 1.228s1.228-.548 1.228-1.227v-1.942c0-.678-.55-1.227-1.228-1.227zM33.673 71.38c-.678 0-1.228.55-1.228 1.228v1.94c0 .68.55 1.228 1.228 1.228.677 0 1.227-.548 1.227-1.227v-1.942c0-.678-.55-1.227-1.227-1.227zM38.893 71.38c-.678 0-1.227.55-1.227 1.228v1.94c0 .68.55 1.228 1.227 1.228s1.227-.548 1.227-1.227v-1.942c0-.678-.55-1.227-1.227-1.227zM44.114 71.38c-.677 0-1.227.55-1.227 1.228v1.94c0 .68.55 1.228 1.227 1.228.678 0 1.228-.548 1.228-1.227v-1.942c0-.678-.55-1.227-1.228-1.227zM49.334 71.38c-.678 0-1.227.55-1.227 1.228v1.94c0 .68.55 1.228 1.227 1.228s1.227-.548 1.227-1.227v-1.942c.002-.678-.547-1.227-1.226-1.227zM44.49 32.093c-.678 0-1.227.55-1.227 1.227v1.943c0 .678.55 1.228 1.227 1.228s1.227-.55 1.227-1.227V33.32c0-.677-.55-1.227-1.227-1.227zM49.71 32.093c-.68 0-1.228.55-1.228 1.227v1.943c0 .678.55 1.228 1.227 1.228s1.226-.55 1.226-1.227V33.32c0-.677-.548-1.227-1.227-1.227zM54.932 32.093c-.68 0-1.23.55-1.23 1.227v1.943c0 .678.55 1.228 1.23 1.228.678 0 1.227-.55 1.227-1.227V33.32c-.002-.677-.55-1.227-1.228-1.227zM60.15 32.093c-.677 0-1.227.55-1.227 1.227v1.943c0 .678.55 1.228 1.228 1.228.68 0 1.228-.55 1.228-1.227V33.32c0-.677-.548-1.227-1.227-1.227zM65.373 32.093c-.68 0-1.227.55-1.227 1.227v1.943c0 .678.548 1.228 1.227 1.228s1.228-.55 1.228-1.227V33.32c0-.677-.548-1.227-1.227-1.227zM70.594 32.093c-.68 0-1.227.55-1.227 1.227v1.943c0 .678.548 1.228 1.227 1.228s1.227-.55 1.227-1.227V33.32c0-.677-.548-1.227-1.226-1.227zM37.51 47.83c.678 0 1.228-.548 1.228-1.226V12.67h37.895v46.882c0 .68.548 1.23 1.228 1.23.68 0 1.228-.55 1.228-1.23V11.444c0-.678-.548-1.227-1.227-1.227H37.51c-.677 0-1.227.55-1.227 1.227v35.16c0 .677.55 1.227 1.227 1.227zM83.75 62.254H65.75c-.68 0-1.227.55-1.227 1.227 0 .68.548 1.23 1.227 1.23h16.77v22.62h-3.356v-5.997c0-.68-.548-1.228-1.228-1.228h-4.94c-.678 0-1.227.55-1.227 1.228v5.997H57.876l.03-36.597c0-.326-.128-.638-.358-.87-.23-.23-.54-.358-.867-.358H16.252c-.678 0-1.228.55-1.228 1.228v37.825c0 .678.55 1.227 1.228 1.227h36.56c.68 0 1.228-.55 1.228-1.227 0-.68-.548-1.228-1.227-1.228H17.48V51.958h37.97l-.03 36.6c0 .324.128.637.358.866.23.23.542.36.867.36h16.353c.68 0 1.227-.55 1.227-1.228V82.56h2.486v5.997c0 .678.55 1.227 1.228 1.227h5.812c.677 0 1.227-.55 1.227-1.227V63.48c0-.677-.55-1.226-1.228-1.226z"/></svg>