<svg xmlns="http://www.w3.org/2000/svg" viewBox="0 0 100 100" height="100" width="100"><path d="M72.845 38.34L50.003 61.186 27.155 38.34c-1.185-1.184-3.105-1.184-4.29 0s-1.185 3.106 0 4.29l24.993 24.99c.57.57 1.34.89 2.145.89.806 0 1.576-.32 2.145-.89l24.987-24.99c1.185-1.184 1.185-3.104 0-4.29s-3.105-1.184-4.29 0zM49.997 5C38.087 5 26.86 9.61 18.38 17.977 9.83 26.425 5.078 37.698 5 49.718s4.534 23.35 12.983 31.9C26.503 90.248 37.873 95 50.003 95c11.91 0 23.138-4.61 31.617-12.98C90.17 73.576 94.922 62.306 95 50.287c.076-12.02-4.534-23.35-12.983-31.9-8.52-8.632-19.89-13.387-32.02-13.387zM77.354 77.7c-7.33 7.244-17.047 11.23-27.35 11.23-10.495 0-20.336-4.11-27.707-11.577-7.306-7.398-11.293-17.2-11.228-27.6.064-10.4 4.176-20.152 11.577-27.457 7.335-7.244 17.047-11.23 27.35-11.23 10.495 0 20.336 4.11 27.707 11.58 7.306 7.398 11.293 17.2 11.228 27.6-.066 10.398-4.178 20.148-11.578 27.454z"/></svg>