<svg xmlns="http://www.w3.org/2000/svg" viewBox="0 0 81.6 81.6" enable-background="new 0 0 81.6 81.6"><path fill="#fff" d="M56 41.3c.3 0 .6-.1 1.1-.2l-.4-1c0-.1 0-.3-.1-.5-.1-.4-.4-.8-.3-1.3.2-2.1.1-2.1-.2-3-.2-.6-1.2-.1-1.1-1.6-.6 0-1 .9-1.7.8-1-.2-.2-1.1.1-1.8.2-.4.1-.6.6-.7-.6.1-.9.1-1.4-.1-.3-.1-.6-.5-.8-.7-.4-.4-.5-.3-1-.4-1.5-.5-2.8-1.4-4.2-2-.7-.3-1.5-.2-2.3-.3-.7-.1-1.5-.6-2.1.1.4.5 1 1 1.3 1.5.2.5.3 1.2.5 1.7.4 1.1 1.3 2 1.6 3.1.2.7 0 1 .8 1.3.8.3 1.5.5 2.3.8 1.1.4 3 2.6 3.9 3.1.7.4 2.1 1.1 2.8 1.5.3-.2.5-.2.6-.3zM40.8 0C18.3 0 0 18.3 0 40.8c0 22.5 18.3 40.8 40.8 40.8 22.5 0 40.8-18.3 40.8-40.8C81.6 18.3 63.4 0 40.8 0zm22.4 69.7c-.1.2-.9.6-1.7.2-.7-.3-1.9.1-2.6 0-1.4-.1-3.3-.2-3.9-.1-1.8.1-2.4-.4-4.2-.4-2 0-3.3.3-4.4.4-.3 0-2.1-.3-2.1-.3s-1.4-.1-3.9 0c-.8 0-2.6.3-3.3.3-.7 0-1.3.1-2 .1-1.1 0-2.4-.3-3.9-.5-.6-.1-1.3.1-2.1 0-1-.1-1.4-.2-1.7-.5-.2-.1-.5-.1-.6-.7-.3-1.8-1.6-2-1.6-3.8 0-.7-.6-2.7-.7-3.4-.2-.9-.4-1.3-1-2.1-.5-.6-.9-1.1-1.4-1.7-.6-.7-.9-2.1-1.4-2.9-.4-.7-.3-1.7-.8-2.4-.4-.6-.9-1-1.1-1.8-.4-1.7-.7-3.6-.7-5.4 0-.7.2-1.9.4-2.6.2-.5.3-.4.5-.8.4-.6.4-1.4.4-2 .1-1.8.6-3 .5-4.7 0-.3-.4-1.5.1-3.1.3-.9.8-1.2 1.3-2 .6-1 1-2.4 1.2-2.8.7-1.5 1.4-3.5 2.6-4.6.6-.6 1.3-1.1 1.6-2 .3-.8.3-1 1.1-1.5.3-.2.8-.2 1-.6.2-.4.4-.9.7-1.2.5-.6 1.3-.6 2.1-.7 1.5-.2 3.2-.8 4.3-1.9.7-.6 1.4-1.5 2.1-2 .6-.5 1.4-.4 2.1-.6 1.6-.4 3.3-.7 4.8-1.5 1.4 0 2.4.4 3.7.7 1.4.4 1.9 1 3.1 1.9 1 .8 1.8 1.7 2.5 2.8.2.4.7.9.9 1 .5.3.9.4.9 1 .1 1.2-1.5 1.6-1.7 2.7-.3 1.3 1.7 1.7 1.7 2.9 0 .7-.4.7 0 1.5.2.4.5.9.6 1.4.1.4-.2 1.4.1 1.7.3.3.6.6.1.7v.2c.7.3-.4.8-.6 1.2-.3.5-.2 1.4-.8 1.7.5-.1 1.1-.1 1.6 0 .5 0 1.4.6 1.4.6.4.2.8.3 1 .8.1.2.2.7.5 1.5 0 .2.3 1.3.5 1.9.1.5.2.7.1 1.2 0 .3.4.9.5 1.2.7 1.4 1.2 3.3 1 4.9-.1.9.2 1.3-.2 2.2-.4.9-.1 1.5-.9 2.2-.8.7-1.5.7-2.6 1.5l-.5.4s-.2.1-.4.5c-.1.4.2 1.3.2 1.8-.2 1.3-.5 2.4-.4 3.7.1 1.5-.5 2.9-.8 4.4-.1.6-.7 1.9-.7 1.9s-.1.5-.1 1.1c-.1.9-.8 1.7.3 1.8 0 0 1 .6 1.8.6.6-.1 1.6.6 1.9.6.6 0 1.5-.3 2.9.4.3.2.6.9 1 1.5.3.4-.2 1.1-.3 1.5z"/></svg>