<svg xmlns="http://www.w3.org/2000/svg" viewBox="0 0 100 100" enable-background="new 0 0 100 100"><path fill="#fff" d="M71.2 77.8H29.1c-.6 0-1-.4-1-1V49.1c-1.4-.2-2.7-.8-3.7-1.8-1.2-1.2-1.8-2.7-1.8-4.4v-.2c0-.1 0-.1.1-.2L28 28.8v-5.3c0-.6.4-1 1-1h42.4c.6 0 1 .4 1 1v5.3l5.1 13.7c0 .1 0 .1.1.2v.2c0 1.7-.7 3.2-1.8 4.4-.9.9-2.1 1.6-3.4 1.8v27.8c-.2.5-.6.9-1.2.9zm-4.9-2h3.9V49c-1.3-.2-2.5-.8-3.4-1.8-.3-.3-.6-.7-.9-1.1-.2.4-.5.7-.9 1.1-1.2 1.2-2.8 1.8-4.4 1.8s-3.2-.7-4.4-1.8c-.3-.3-.6-.7-.9-1.1-.2.4-.5.7-.9 1.1-1.2 1.2-2.8 1.8-4.4 1.8s-3.2-.7-4.4-1.8c-.3-.3-.6-.7-.9-1.1-.2.4-.5.7-.9 1.1-1.2 1.2-2.8 1.8-4.4 1.8-1.7 0-3.2-.7-4.4-1.8-.3-.3-.6-.7-.9-1.1-.2.4-.5.7-.9 1.1-.9.9-2 1.5-3.2 1.7v26.8h24v-22c0-.6.4-1 1-1h10.4c.6 0 1 .4 1 1l-.1 22.1zm-10.3 0h8.4V54.7H56v21.1zm.3-33.4c.1.1.1.3.1.4 0 1.1.4 2.2 1.3 3 .8.8 1.9 1.2 3 1.2s2.2-.4 3-1.3c.8-.8 1.3-1.9 1.3-3v-.2L62.2 30h-6.6l.7 12.4zm-10.6.2v.2c0 1.1.4 2.2 1.3 3s1.9 1.2 3 1.2 2.2-.4 3-1.2c.8-.8 1.2-1.9 1.3-3L53.7 30h-6.6l-1.4 12.6zm-10.5.2c0 1.2.4 2.3 1.3 3.1.8.8 1.9 1.2 3 1.2s2.2-.4 3-1.2c.8-.8 1.2-1.9 1.3-3v-.2L45.1 30h-6.5l-3.4 12.8zm-10.6.2c0 1.1.5 2.1 1.2 2.8.8.8 1.9 1.3 3.1 1.2h.2c1-.1 2-.5 2.7-1.2.8-.8 1.2-1.9 1.2-3v-.2L36.5 30h-6.8l-5.1 13zm46.6 4.1c.1 0 .1 0 0 0 1.2 0 2.2-.5 3-1.2.8-.8 1.2-1.8 1.2-2.8l-4.8-13h-6.4L67 42.6v.3c0 1.1.5 2.1 1.3 2.9.7.8 1.7 1.3 2.9 1.3zM63.1 28h7.3v-3.5H30V28h33.1c-.1 0 0 0 0 0zM49.9 66.2H34.1c-.6 0-1-.4-1-1V53.9c0-.6.4-1 1-1h15.8c.6 0 1 .4 1 1v11.3c0 .5-.5 1-1 1zm-14.8-2h13.8v-9.3H35.1v9.3z"/></svg>